0
SECTION
2
HEADER
0
ENDSEC
0
SECTION
2
ENTITIES
0
3DFACE
8
0
62
1
10
0.001000
20
0.001000
30
0.251000
11
0.069317
21
0.001000
31
0.241485
12
0.022111
22
0.065973
32
0.241485
13
0.022111
23
0.065973
33
0.241485
0
3DFACE
8
0
62
1
10
0.069317
20
0.001000
30
0.241485
11
0.132433
21
0.001000
31
0.213663
12
0.091451
22
0.066716
32
0.224607
13
0.091451
23
0.066716
33
0.224607
0
3DFACE
8
0
62
1
10
0.069317
20
0.001000
30
0.241485
11
0.091451
21
0.066716
31
0.224607
12
0.022111
22
0.065973
32
0.241485
13
0.022111
23
0.065973
33
0.241485
0
3DFACE
8
0
62
1
10
0.022111
20
0.065973
30
0.241485
11
0.091451
21
0.066716
31
0.224607
12
0.041615
22
0.126000
32
0.213663
13
0.041615
23
0.126000
33
0.213663
0
3DFACE
8
0
62
1
10
0.132433
20
0.001000
30
0.213663
11
0.185544
21
0.001000
31
0.169652
12
0.155466
22
0.067169
32
0.186100
13
0.155466
23
0.067169
33
0.186100
0
3DFACE
8
0
62
1
10
0.132433
20
0.001000
30
0.213663
11
0.155466
21
0.067169
31
0.186100
12
0.091451
22
0.066716
32
0.224607
13
0.091451
23
0.066716
33
0.224607
0
3DFACE
8
0
62
1
10
0.091451
20
0.066716
30
0.224607
11
0.155466
21
0.067169
31
0.186100
12
0.111663
22
0.127459
32
0.186100
13
0.111663
23
0.127459
33
0.186100
0
3DFACE
8
0
62
1
10
0.091451
20
0.066716
30
0.224607
11
0.111663
21
0.127459
31
0.186100
12
0.041615
22
0.126000
32
0.213663
13
0.041615
23
0.126000
33
0.213663
0
3DFACE
8
0
62
1
10
0.041615
20
0.126000
30
0.213663
11
0.111663
21
0.127459
31
0.186100
12
0.058027
22
0.176512
32
0.169652
13
0.058027
23
0.176512
33
0.169652
0
3DFACE
8
0
62
1
10
0.185544
20
0.001000
30
0.169652
11
0.224607
21
0.001000
31
0.112803
12
0.206655
22
0.065973
32
0.127430
13
0.206655
23
0.065973
33
0.127430
0
3DFACE
8
0
62
1
10
0.185544
20
0.001000
30
0.169652
11
0.206655
21
0.065973
31
0.127430
12
0.155466
22
0.067169
32
0.186100
13
0.155466
23
0.067169
33
0.186100
0
3DFACE
8
0
62
1
10
0.155466
20
0.067169
30
0.186100
11
0.206655
21
0.065973
31
0.127430
12
0.173048
22
0.126000
32
0.132433
13
0.173048
23
0.126000
33
0.132433
0
3DFACE
8
0
62
1
10
0.155466
20
0.067169
30
0.186100
11
0.173048
21
0.126000
31
0.132433
12
0.111663
22
0.127459
32
0.186100
13
0.111663
23
0.127459
33
0.186100
0
3DFACE
8
0
62
1
10
0.111663
20
0.127459
30
0.186100
11
0.173048
21
0.126000
31
0.132433
12
0.126344
22
0.176512
32
0.127430
13
0.126344
23
0.176512
33
0.127430
0
3DFACE
8
0
62
1
10
0.111663
20
0.127459
30
0.186100
11
0.126344
21
0.176512
31
0.127430
12
0.058027
22
0.176512
32
0.169652
13
0.058027
23
0.176512
33
0.169652
0
3DFACE
8
0
62
1
10
0.058027
20
0.176512
30
0.169652
11
0.126344
21
0.176512
31
0.127430
12
0.070098
22
0.213663
32
0.112803
13
0.070098
23
0.213663
33
0.112803
0
3DFACE
8
0
62
1
10
0.001000
20
0.001000
30
0.251000
11
0.022111
21
0.065973
31
0.241485
12
-0.054269
22
0.041156
32
0.241485
13
-0.054269
23
0.041156
33
0.241485
0
3DFACE
8
0
62
1
10
0.022111
20
0.065973
30
0.241485
11
0.041615
21
0.126000
31
0.213663
12
-0.033549
22
0.107331
32
0.224607
13
-0.033549
23
0.107331
33
0.224607
0
3DFACE
8
0
62
1
10
0.022111
20
0.065973
30
0.241485
11
-0.033549
21
0.107331
31
0.224607
12
-0.054269
22
0.041156
32
0.241485
13
-0.054269
23
0.041156
33
0.241485
0
3DFACE
8
0
62
1
10
-0.054269
20
0.041156
30
0.241485
11
-0.033549
21
0.107331
31
0.224607
12
-0.105331
22
0.078254
32
0.213663
13
-0.105331
23
0.078254
33
0.213663
0
3DFACE
8
0
62
1
10
0.041615
20
0.126000
30
0.213663
11
0.058027
21
0.176512
31
0.169652
12
-0.014198
22
0.168353
32
0.186100
13
-0.014198
23
0.168353
33
0.186100
0
3DFACE
8
0
62
1
10
0.041615
20
0.126000
30
0.213663
11
-0.014198
21
0.168353
31
0.186100
12
-0.033549
22
0.107331
32
0.224607
13
-0.033549
23
0.107331
33
0.224607
0
3DFACE
8
0
62
1
10
-0.033549
20
0.107331
30
0.224607
11
-0.014198
21
0.168353
31
0.186100
12
-0.085073
22
0.145325
32
0.186100
13
-0.085073
23
0.145325
33
0.186100
0
3DFACE
8
0
62
1
10
-0.033549
20
0.107331
30
0.224607
11
-0.085073
21
0.145325
31
0.186100
12
-0.105331
22
0.078254
32
0.213663
13
-0.105331
23
0.078254
33
0.213663
0
3DFACE
8
0
62
1
10
-0.105331
20
0.078254
30
0.213663
11
-0.085073
21
0.145325
31
0.186100
12
-0.148299
22
0.109472
32
0.169652
13
-0.148299
23
0.109472
33
0.169652
0
3DFACE
8
0
62
1
10
0.058027
20
0.176512
30
0.169652
11
0.070098
21
0.213663
31
0.112803
12
0.002758
22
0.216667
32
0.127430
13
0.002758
23
0.216667
33
0.127430
0
3DFACE
8
0
62
1
10
0.058027
20
0.176512
30
0.169652
11
0.002758
21
0.216667
31
0.127430
12
-0.014198
22
0.168353
32
0.186100
13
-0.014198
23
0.168353
33
0.186100
0
3DFACE
8
0
62
1
10
-0.014198
20
0.168353
30
0.186100
11
0.002758
21
0.216667
31
0.127430
12
-0.064716
22
0.203254
32
0.132433
13
-0.064716
23
0.203254
33
0.132433
0
3DFACE
8
0
62
1
10
-0.014198
20
0.168353
30
0.186100
11
-0.064716
21
0.203254
31
0.132433
12
-0.085073
22
0.145325
32
0.186100
13
-0.085073
23
0.145325
33
0.186100
0
3DFACE
8
0
62
1
10
-0.085073
20
0.145325
30
0.186100
11
-0.064716
21
0.203254
31
0.132433
12
-0.127188
22
0.174445
32
0.127430
13
-0.127188
23
0.174445
33
0.127430
0
3DFACE
8
0
62
1
10
-0.085073
20
0.145325
30
0.186100
11
-0.127188
21
0.174445
31
0.127430
12
-0.148299
22
0.109472
32
0.169652
13
-0.148299
23
0.109472
33
0.169652
0
3DFACE
8
0
62
1
10
-0.148299
20
0.109472
30
0.169652
11
-0.127188
21
0.174445
31
0.127430
12
-0.179902
22
0.132433
32
0.112803
13
-0.179902
23
0.132433
33
0.112803
0
3DFACE
8
0
62
1
10
0.001000
20
0.001000
30
0.251000
11
-0.054269
21
0.041156
31
0.241485
12
-0.054269
22
-0.039156
32
0.241485
13
-0.054269
23
-0.039156
33
0.241485
0
3DFACE
8
0
62
1
10
-0.054269
20
0.041156
30
0.241485
11
-0.105331
21
0.078254
31
0.213663
12
-0.110803
22
0.001000
32
0.224607
13
-0.110803
23
0.001000
33
0.224607
0
3DFACE
8
0
62
1
10
-0.054269
20
0.041156
30
0.241485
11
-0.110803
21
0.001000
31
0.224607
12
-0.054269
22
-0.039156
32
0.241485
13
-0.054269
23
-0.039156
33
0.241485
0
3DFACE
8
0
62
1
10
-0.054269
20
-0.039156
30
0.241485
11
-0.110803
21
0.001000
31
0.224607
12
-0.105331
22
-0.076254
32
0.213663
13
-0.105331
23
-0.076254
33
0.213663
0
3DFACE
8
0
62
1
10
-0.105331
20
0.078254
30
0.213663
11
-0.148299
21
0.109472
31
0.169652
12
-0.162859
22
0.038261
32
0.186100
13
-0.162859
23
0.038261
33
0.186100
0
3DFACE
8
0
62
1
10
-0.105331
20
0.078254
30
0.213663
11
-0.162859
21
0.038261
31
0.186100
12
-0.110803
22
0.001000
32
0.224607
13
-0.110803
23
0.001000
33
0.224607
0
3DFACE
8
0
62
1
10
-0.110803
20
0.001000
30
0.224607
11
-0.162859
21
0.038261
31
0.186100
12
-0.162859
22
-0.036261
32
0.186100
13
-0.162859
23
-0.036261
33
0.186100
0
3DFACE
8
0
62
1
10
-0.110803
20
0.001000
30
0.224607
11
-0.162859
21
-0.036261
31
0.186100
12
-0.105331
22
-0.076254
32
0.213663
13
-0.105331
23
-0.076254
33
0.213663
0
3DFACE
8
0
62
1
10
-0.105331
20
-0.076254
30
0.213663
11
-0.162859
21
-0.036261
31
0.186100
12
-0.148299
22
-0.107472
32
0.169652
13
-0.148299
23
-0.107472
33
0.169652
0
3DFACE
8
0
62
1
10
-0.148299
20
0.109472
30
0.169652
11
-0.179902
21
0.132433
31
0.112803
12
-0.203568
22
0.069317
32
0.127430
13
-0.203568
23
0.069317
33
0.127430
0
3DFACE
8
0
62
1
10
-0.148299
20
0.109472
30
0.169652
11
-0.203568
21
0.069317
31
0.127430
12
-0.162859
22
0.038261
32
0.186100
13
-0.162859
23
0.038261
33
0.186100
0
3DFACE
8
0
62
1
10
-0.162859
20
0.038261
30
0.186100
11
-0.203568
21
0.069317
31
0.127430
12
-0.211663
22
0.001000
32
0.132433
13
-0.211663
23
0.001000
33
0.132433
0
3DFACE
8
0
62
1
10
-0.162859
20
0.038261
30
0.186100
11
-0.211663
21
0.001000
31
0.132433
12
-0.162859
22
-0.036261
32
0.186100
13
-0.162859
23
-0.036261
33
0.186100
0
3DFACE
8
0
62
1
10
-0.162859
20
-0.036261
30
0.186100
11
-0.211663
21
0.001000
31
0.132433
12
-0.203568
22
-0.067317
32
0.127430
13
-0.203568
23
-0.067317
33
0.127430
0
3DFACE
8
0
62
1
10
-0.162859
20
-0.036261
30
0.186100
11
-0.203568
21
-0.067317
31
0.127430
12
-0.148299
22
-0.107472
32
0.169652
13
-0.148299
23
-0.107472
33
0.169652
0
3DFACE
8
0
62
1
10
-0.148299
20
-0.107472
30
0.169652
11
-0.203568
21
-0.067317
31
0.127430
12
-0.179902
22
-0.130433
32
0.112803
13
-0.179902
23
-0.130433
33
0.112803
0
3DFACE
8
0
62
1
10
0.001000
20
0.001000
30
0.251000
11
-0.054269
21
-0.039156
31
0.241485
12
0.022111
22
-0.063973
32
0.241485
13
0.022111
23
-0.063973
33
0.241485
0
3DFACE
8
0
62
1
10
-0.054269
20
-0.039156
30
0.241485
11
-0.105331
21
-0.076254
31
0.213663
12
-0.033549
22
-0.105331
32
0.224607
13
-0.033549
23
-0.105331
33
0.224607
0
3DFACE
8
0
62
1
10
-0.054269
20
-0.039156
30
0.241485
11
-0.033549
21
-0.105331
31
0.224607
12
0.022111
22
-0.063973
32
0.241485
13
0.022111
23
-0.063973
33
0.241485
0
3DFACE
8
0
62
1
10
0.022111
20
-0.063973
30
0.241485
11
-0.033549
21
-0.105331
31
0.224607
12
0.041615
22
-0.124000
32
0.213663
13
0.041615
23
-0.124000
33
0.213663
0
3DFACE
8
0
62
1
10
-0.105331
20
-0.076254
30
0.213663
11
-0.148299
21
-0.107472
31
0.169652
12
-0.085073
22
-0.143325
32
0.186100
13
-0.085073
23
-0.143325
33
0.186100
0
3DFACE
8
0
62
1
10
-0.105331
20
-0.076254
30
0.213663
11
-0.085073
21
-0.143325
31
0.186100
12
-0.033549
22
-0.105331
32
0.224607
13
-0.033549
23
-0.105331
33
0.224607
0
3DFACE
8
0
62
1
10
-0.033549
20
-0.105331
30
0.224607
11
-0.085073
21
-0.143325
31
0.186100
12
-0.014198
22
-0.166353
32
0.186100
13
-0.014198
23
-0.166353
33
0.186100
0
3DFACE
8
0
62
1
10
-0.033549
20
-0.105331
30
0.224607
11
-0.014198
21
-0.166353
31
0.186100
12
0.041615
22
-0.124000
32
0.213663
13
0.041615
23
-0.124000
33
0.213663
0
3DFACE
8
0
62
1
10
0.041615
20
-0.124000
30
0.213663
11
-0.014198
21
-0.166353
31
0.186100
12
0.058027
22
-0.174512
32
0.169652
13
0.058027
23
-0.174512
33
0.169652
0
3DFACE
8
0
62
1
10
-0.148299
20
-0.107472
30
0.169652
11
-0.179902
21
-0.130433
31
0.112803
12
-0.127188
22
-0.172445
32
0.127430
13
-0.127188
23
-0.172445
33
0.127430
0
3DFACE
8
0
62
1
10
-0.148299
20
-0.107472
30
0.169652
11
-0.127188
21
-0.172445
31
0.127430
12
-0.085073
22
-0.143325
32
0.186100
13
-0.085073
23
-0.143325
33
0.186100
0
3DFACE
8
0
62
1
10
-0.085073
20
-0.143325
30
0.186100
11
-0.127188
21
-0.172445
31
0.127430
12
-0.064716
22
-0.201254
32
0.132433
13
-0.064716
23
-0.201254
33
0.132433
0
3DFACE
8
0
62
1
10
-0.085073
20
-0.143325
30
0.186100
11
-0.064716
21
-0.201254
31
0.132433
12
-0.014198
22
-0.166353
32
0.186100
13
-0.014198
23
-0.166353
33
0.186100
0
3DFACE
8
0
62
1
10
-0.014198
20
-0.166353
30
0.186100
11
-0.064716
21
-0.201254
31
0.132433
12
0.002758
22
-0.214667
32
0.127430
13
0.002758
23
-0.214667
33
0.127430
0
3DFACE
8
0
62
1
10
-0.014198
20
-0.166353
30
0.186100
11
0.002758
21
-0.214667
31
0.127430
12
0.058027
22
-0.174512
32
0.169652
13
0.058027
23
-0.174512
33
0.169652
0
3DFACE
8
0
62
1
10
0.058027
20
-0.174512
30
0.169652
11
0.002758
21
-0.214667
31
0.127430
12
0.070098
22
-0.211663
32
0.112803
13
0.070098
23
-0.211663
33
0.112803
0
3DFACE
8
0
62
1
10
0.001000
20
0.001000
30
0.251000
11
0.022111
21
-0.063973
31
0.241485
12
0.069317
22
0.001000
32
0.241485
13
0.069317
23
0.001000
33
0.241485
0
3DFACE
8
0
62
1
10
0.022111
20
-0.063973
30
0.241485
11
0.041615
21
-0.124000
31
0.213663
12
0.091451
22
-0.064716
32
0.224607
13
0.091451
23
-0.064716
33
0.224607
0
3DFACE
8
0
62
1
10
0.022111
20
-0.063973
30
0.241485
11
0.091451
21
-0.064716
31
0.224607
12
0.069317
22
0.001000
32
0.241485
13
0.069317
23
0.001000
33
0.241485
0
3DFACE
8
0
62
1
10
0.069317
20
0.001000
30
0.241485
11
0.091451
21
-0.064716
31
0.224607
12
0.132433
22
0.001000
32
0.213663
13
0.132433
23
0.001000
33
0.213663
0
3DFACE
8
0
62
1
10
0.041615
20
-0.124000
30
0.213663
11
0.058027
21
-0.174512
31
0.169652
12
0.111663
22
-0.125459
32
0.186100
13
0.111663
23
-0.125459
33
0.186100
0
3DFACE
8
0
62
1
10
0.041615
20
-0.124000
30
0.213663
11
0.111663
21
-0.125459
31
0.186100
12
0.091451
22
-0.064716
32
0.224607
13
0.091451
23
-0.064716
33
0.224607
0
3DFACE
8
0
62
1
10
0.091451
20
-0.064716
30
0.224607
11
0.111663
21
-0.125459
31
0.186100
12
0.155466
22
-0.065169
32
0.186100
13
0.155466
23
-0.065169
33
0.186100
0
3DFACE
8
0
62
1
10
0.091451
20
-0.064716
30
0.224607
11
0.155466
21
-0.065169
31
0.186100
12
0.132433
22
0.001000
32
0.213663
13
0.132433
23
0.001000
33
0.213663
0
3DFACE
8
0
62
1
10
0.132433
20
0.001000
30
0.213663
11
0.155466
21
-0.065169
31
0.186100
12
0.185544
22
0.001000
32
0.169652
13
0.185544
23
0.001000
33
0.169652
0
3DFACE
8
0
62
1
10
0.058027
20
-0.174512
30
0.169652
11
0.070098
21
-0.211663
31
0.112803
12
0.126344
22
-0.174512
32
0.127430
13
0.126344
23
-0.174512
33
0.127430
0
3DFACE
8
0
62
1
10
0.058027
20
-0.174512
30
0.169652
11
0.126344
21
-0.174512
31
0.127430
12
0.111663
22
-0.125459
32
0.186100
13
0.111663
23
-0.125459
33
0.186100
0
3DFACE
8
0
62
1
10
0.111663
20
-0.125459
30
0.186100
11
0.126344
21
-0.174512
31
0.127430
12
0.173048
22
-0.124000
32
0.132433
13
0.173048
23
-0.124000
33
0.132433
0
3DFACE
8
0
62
1
10
0.111663
20
-0.125459
30
0.186100
11
0.173048
21
-0.124000
31
0.132433
12
0.155466
22
-0.065169
32
0.186100
13
0.155466
23
-0.065169
33
0.186100
0
3DFACE
8
0
62
1
10
0.155466
20
-0.065169
30
0.186100
11
0.173048
21
-0.124000
31
0.132433
12
0.206655
22
-0.063973
32
0.127430
13
0.206655
23
-0.063973
33
0.127430
0
3DFACE
8
0
62
1
10
0.155466
20
-0.065169
30
0.186100
11
0.206655
21
-0.063973
31
0.127430
12
0.185544
22
0.001000
32
0.169652
13
0.185544
23
0.001000
33
0.169652
0
3DFACE
8
0
62
1
10
0.185544
20
0.001000
30
0.169652
11
0.206655
21
-0.063973
31
0.127430
12
0.224607
22
0.001000
32
0.112803
13
0.224607
23
0.001000
33
0.112803
0
3DFACE
8
0
62
1
10
0.224607
20
0.001000
30
0.112803
11
0.240813
21
-0.039155
31
0.059114
12
0.240813
22
0.041156
32
0.059114
13
0.240813
23
0.041156
33
0.059114
0
3DFACE
8
0
62
1
10
0.240813
20
-0.039155
30
0.059114
11
0.238764
21
-0.076254
31
0.001000
12
0.251000
22
0.001000
32
0.001000
13
0.251000
23
0.001000
33
0.001000
0
3DFACE
8
0
62
1
10
0.240813
20
-0.039155
30
0.059114
11
0.251000
21
0.001000
31
0.001000
12
0.240813
22
0.041156
32
0.059114
13
0.240813
23
0.041156
33
0.059114
0
3DFACE
8
0
62
1
10
0.240813
20
0.041156
30
0.059114
11
0.251000
21
0.001000
31
0.001000
12
0.238764
22
0.078254
32
0.001000
13
0.238764
23
0.078254
33
0.001000
0
3DFACE
8
0
62
1
10
0.238764
20
-0.076254
30
0.001000
11
0.218616
21
-0.107472
31
-0.057114
12
0.239838
22
-0.036261
32
-0.062781
13
0.239838
23
-0.036261
33
-0.062781
0
3DFACE
8
0
62
1
10
0.238764
20
-0.076254
30
0.001000
11
0.239838
21
-0.036261
31
-0.062781
12
0.251000
22
0.001000
32
0.001000
13
0.251000
23
0.001000
33
0.001000
0
3DFACE
8
0
62
1
10
0.251000
20
0.001000
30
0.001000
11
0.239838
21
-0.036261
31
-0.062781
12
0.239838
22
0.038261
32
-0.062781
13
0.239838
23
0.038261
33
-0.062781
0
3DFACE
8
0
62
1
10
0.251000
20
0.001000
30
0.001000
11
0.239838
21
0.038261
31
-0.062781
12
0.238764
22
0.078254
32
0.001000
13
0.238764
23
0.078254
33
0.001000
0
3DFACE
8
0
62
1
10
0.238764
20
0.078254
30
0.001000
11
0.239838
21
0.038261
31
-0.062781
12
0.218616
22
0.109472
32
-0.057114
13
0.218616
23
0.109472
33
-0.057114
0
3DFACE
8
0
62
1
10
0.218616
20
-0.107472
30
-0.057114
11
0.181902
21
-0.130433
31
-0.110803
12
0.205568
22
-0.067317
32
-0.125430
13
0.205568
23
-0.067317
33
-0.125430
0
3DFACE
8
0
62
1
10
0.218616
20
-0.107472
30
-0.057114
11
0.205568
21
-0.067317
31
-0.125430
12
0.239838
22
-0.036261
32
-0.062781
13
0.239838
23
-0.036261
33
-0.062781
0
3DFACE
8
0
62
1
10
0.239838
20
-0.036261
30
-0.062781
11
0.205568
21
-0.067317
31
-0.125430
12
0.213663
22
0.001000
32
-0.130433
13
0.213663
23
0.001000
33
-0.130433
0
3DFACE
8
0
62
1
10
0.239838
20
-0.036261
30
-0.062781
11
0.213663
21
0.001000
31
-0.130433
12
0.239838
22
0.038261
32
-0.062781
13
0.239838
23
0.038261
33
-0.062781
0
3DFACE
8
0
62
1
10
0.239838
20
0.038261
30
-0.062781
11
0.213663
21
0.001000
31
-0.130433
12
0.205568
22
0.069317
32
-0.125430
13
0.205568
23
0.069317
33
-0.125430
0
3DFACE
8
0
62
1
10
0.239838
20
0.038261
30
-0.062781
11
0.205568
21
0.069317
31
-0.125430
12
0.218616
22
0.109472
32
-0.057114
13
0.218616
23
0.109472
33
-0.057114
0
3DFACE
8
0
62
1
10
0.218616
20
0.109472
30
-0.057114
11
0.205568
21
0.069317
31
-0.125430
12
0.181902
22
0.132433
32
-0.110803
13
0.181902
23
0.132433
33
-0.110803
0
3DFACE
8
0
62
1
10
0.070098
20
0.213663
30
0.112803
11
0.113296
21
0.216667
31
0.059114
12
0.036916
22
0.241485
32
0.059114
13
0.036916
23
0.241485
33
0.059114
0
3DFACE
8
0
62
1
10
0.113296
20
0.216667
30
0.059114
11
0.147946
21
0.203254
31
0.001000
12
0.078254
22
0.238764
32
0.001000
13
0.078254
23
0.238764
33
0.001000
0
3DFACE
8
0
62
1
10
0.113296
20
0.216667
30
0.059114
11
0.078254
21
0.238764
31
0.001000
12
0.036916
22
0.241485
32
0.059114
13
0.036916
23
0.241485
33
0.059114
0
3DFACE
8
0
62
1
10
0.036916
20
0.241485
30
0.059114
11
0.078254
21
0.238764
31
0.001000
12
0.001000
22
0.251000
32
0.001000
13
0.001000
23
0.251000
33
0.001000
0
3DFACE
8
0
62
1
10
0.147946
20
0.203254
30
0.001000
11
0.171410
21
0.174445
31
-0.057114
12
0.110242
22
0.216634
32
-0.062781
13
0.110242
23
0.216634
33
-0.062781
0
3DFACE
8
0
62
1
10
0.147946
20
0.203254
30
0.001000
11
0.110242
21
0.216634
31
-0.062781
12
0.078254
22
0.238764
32
0.001000
13
0.078254
23
0.238764
33
0.001000
0
3DFACE
8
0
62
1
10
0.078254
20
0.238764
30
0.001000
11
0.110242
21
0.216634
31
-0.062781
12
0.039368
22
0.239663
32
-0.062781
13
0.039368
23
0.239663
33
-0.062781
0
3DFACE
8
0
62
1
10
0.078254
20
0.238764
30
0.001000
11
0.039368
21
0.239663
31
-0.062781
12
0.001000
22
0.251000
32
0.001000
13
0.001000
23
0.251000
33
0.001000
0
3DFACE
8
0
62
1
10
0.001000
20
0.251000
30
0.001000
11
0.039368
21
0.239663
31
-0.062781
12
-0.034916
22
0.241485
32
-0.057114
13
-0.034916
23
0.241485
33
-0.057114
0
3DFACE
8
0
62
1
10
0.171410
20
0.174445
30
-0.057114
11
0.181902
21
0.132433
31
-0.110803
12
0.129188
22
0.174445
32
-0.125430
13
0.129188
23
0.174445
33
-0.125430
0
3DFACE
8
0
62
1
10
0.171410
20
0.174445
30
-0.057114
11
0.129188
21
0.174445
31
-0.125430
12
0.110242
22
0.216634
32
-0.062781
13
0.110242
23
0.216634
33
-0.062781
0
3DFACE
8
0
62
1
10
0.110242
20
0.216634
30
-0.062781
11
0.129188
21
0.174445
31
-0.125430
12
0.066716
22
0.203254
32
-0.130433
13
0.066716
23
0.203254
33
-0.130433
0
3DFACE
8
0
62
1
10
0.110242
20
0.216634
30
-0.062781
11
0.066716
21
0.203254
31
-0.130433
12
0.039368
22
0.239663
32
-0.062781
13
0.039368
23
0.239663
33
-0.062781
0
3DFACE
8
0
62
1
10
0.039368
20
0.239663
30
-0.062781
11
0.066716
21
0.203254
31
-0.130433
12
-0.000758
22
0.216667
32
-0.125430
13
-0.000758
23
0.216667
33
-0.125430
0
3DFACE
8
0
62
1
10
0.039368
20
0.239663
30
-0.062781
11
-0.000758
21
0.216667
31
-0.125430
12
-0.034916
22
0.241485
32
-0.057114
13
-0.034916
23
0.241485
33
-0.057114
0
3DFACE
8
0
62
1
10
-0.034916
20
0.241485
30
-0.057114
11
-0.000758
21
0.216667
31
-0.125430
12
-0.068098
22
0.213663
32
-0.110803
13
-0.068098
23
0.213663
33
-0.110803
0
3DFACE
8
0
62
1
10
-0.179902
20
0.132433
30
0.112803
11
-0.169410
21
0.174445
31
0.059114
12
-0.216616
22
0.109472
32
0.059114
13
-0.216616
23
0.109472
33
0.059114
0
3DFACE
8
0
62
1
10
-0.169410
20
0.174445
30
0.059114
11
-0.145946
21
0.203254
31
0.001000
12
-0.201254
22
0.147946
32
0.001000
13
-0.201254
23
0.147946
33
0.001000
0
3DFACE
8
0
62
1
10
-0.169410
20
0.174445
30
0.059114
11
-0.201254
21
0.147946
31
0.001000
12
-0.216616
22
0.109472
32
0.059114
13
-0.216616
23
0.109472
33
0.059114
0
3DFACE
8
0
62
1
10
-0.216616
20
0.109472
30
0.059114
11
-0.201254
21
0.147946
31
0.001000
12
-0.236764
22
0.078254
32
0.001000
13
-0.236764
23
0.078254
33
0.001000
0
3DFACE
8
0
62
1
10
-0.145946
20
0.203254
30
0.001000
11
-0.111297
21
0.216667
31
-0.057114
12
-0.170323
22
0.171530
32
-0.062781
13
-0.170323
23
0.171530
33
-0.062781
0
3DFACE
8
0
62
1
10
-0.145946
20
0.203254
30
0.001000
11
-0.170323
21
0.171530
31
-0.062781
12
-0.201254
22
0.147946
32
0.001000
13
-0.201254
23
0.147946
33
0.001000
0
3DFACE
8
0
62
1
10
-0.201254
20
0.147946
30
0.001000
11
-0.170323
21
0.171530
31
-0.062781
12
-0.214126
22
0.111241
32
-0.062781
13
-0.214126
23
0.111241
33
-0.062781
0
3DFACE
8
0
62
1
10
-0.201254
20
0.147946
30
0.001000
11
-0.214126
21
0.111241
31
-0.062781
12
-0.236764
22
0.078254
32
0.001000
13
-0.236764
23
0.078254
33
0.001000
0
3DFACE
8
0
62
1
10
-0.236764
20
0.078254
30
0.001000
11
-0.214126
21
0.111241
31
-0.062781
12
-0.238813
22
0.041155
32
-0.057114
13
-0.238813
23
0.041155
33
-0.057114
0
3DFACE
8
0
62
1
10
-0.111297
20
0.216667
30
-0.057114
11
-0.068098
21
0.213663
31
-0.110803
12
-0.124344
22
0.176512
32
-0.125430
13
-0.124344
23
0.176512
33
-0.125430
0
3DFACE
8
0
62
1
10
-0.111297
20
0.216667
30
-0.057114
11
-0.124344
21
0.176512
31
-0.125430
12
-0.170323
22
0.171530
32
-0.062781
13
-0.170323
23
0.171530
33
-0.062781
0
3DFACE
8
0
62
1
10
-0.170323
20
0.171530
30
-0.062781
11
-0.124344
21
0.176512
31
-0.125430
12
-0.171048
22
0.126000
32
-0.130433
13
-0.171048
23
0.126000
33
-0.130433
0
3DFACE
8
0
62
1
10
-0.170323
20
0.171530
30
-0.062781
11
-0.171048
21
0.126000
31
-0.130433
12
-0.214126
22
0.111241
32
-0.062781
13
-0.214126
23
0.111241
33
-0.062781
0
3DFACE
8
0
62
1
10
-0.214126
20
0.111241
30
-0.062781
11
-0.171048
21
0.126000
31
-0.130433
12
-0.204655
22
0.065973
32
-0.125430
13
-0.204655
23
0.065973
33
-0.125430
0
3DFACE
8
0
62
1
10
-0.214126
20
0.111241
30
-0.062781
11
-0.204655
21
0.065973
31
-0.125430
12
-0.238813
22
0.041155
32
-0.057114
13
-0.238813
23
0.041155
33
-0.057114
0
3DFACE
8
0
62
1
10
-0.238813
20
0.041155
30
-0.057114
11
-0.204655
21
0.065973
31
-0.125430
12
-0.222607
22
0.001000
32
-0.110803
13
-0.222607
23
0.001000
33
-0.110803
0
3DFACE
8
0
62
1
10
-0.179902
20
-0.130433
30
0.112803
11
-0.216616
21
-0.107472
31
0.059114
12
-0.169410
22
-0.172445
32
0.059114
13
-0.169410
23
-0.172445
33
0.059114
0
3DFACE
8
0
62
1
10
-0.216616
20
-0.107472
30
0.059114
11
-0.236764
21
-0.076254
31
0.001000
12
-0.201254
22
-0.145946
32
0.001000
13
-0.201254
23
-0.145946
33
0.001000
0
3DFACE
8
0
62
1
10
-0.216616
20
-0.107472
30
0.059114
11
-0.201254
21
-0.145946
31
0.001000
12
-0.169410
22
-0.172445
32
0.059114
13
-0.169410
23
-0.172445
33
0.059114
0
3DFACE
8
0
62
1
10
-0.169410
20
-0.172445
30
0.059114
11
-0.201254
21
-0.145946
31
0.001000
12
-0.145946
22
-0.201254
32
0.001000
13
-0.145946
23
-0.201254
33
0.001000
0
3DFACE
8
0
62
1
10
-0.236764
20
-0.076254
30
0.001000
11
-0.238813
21
-0.039156
31
-0.057114
12
-0.214125
22
-0.109241
32
-0.062781
13
-0.214125
23
-0.109241
33
-0.062781
0
3DFACE
8
0
62
1
10
-0.236764
20
-0.076254
30
0.001000
11
-0.214125
21
-0.109241
31
-0.062781
12
-0.201254
22
-0.145946
32
0.001000
13
-0.201254
23
-0.145946
33
0.001000
0
3DFACE
8
0
62
1
10
-0.201254
20
-0.145946
30
0.001000
11
-0.214125
21
-0.109241
31
-0.062781
12
-0.170323
22
-0.169530
32
-0.062781
13
-0.170323
23
-0.169530
33
-0.062781
0
3DFACE
8
0
62
1
10
-0.201254
20
-0.145946
30
0.001000
11
-0.170323
21
-0.169530
31
-0.062781
12
-0.145946
22
-0.201254
32
0.001000
13
-0.145946
23
-0.201254
33
0.001000
0
3DFACE
8
0
62
1
10
-0.145946
20
-0.201254
30
0.001000
11
-0.170323
21
-0.169530
31
-0.062781
12
-0.111297
22
-0.214667
32
-0.057114
13
-0.111297
23
-0.214667
33
-0.057114
0
3DFACE
8
0
62
1
10
-0.238813
20
-0.039156
30
-0.057114
11
-0.222607
21
0.001000
31
-0.110803
12
-0.204655
22
-0.063973
32
-0.125430
13
-0.204655
23
-0.063973
33
-0.125430
0
3DFACE
8
0
62
1
10
-0.238813
20
-0.039156
30
-0.057114
11
-0.204655
21
-0.063973
31
-0.125430
12
-0.214125
22
-0.109241
32
-0.062781
13
-0.214125
23
-0.109241
33
-0.062781
0
3DFACE
8
0
62
1
10
-0.214125
20
-0.109241
30
-0.062781
11
-0.204655
21
-0.063973
31
-0.125430
12
-0.171048
22
-0.124000
32
-0.130433
13
-0.171048
23
-0.124000
33
-0.130433
0
3DFACE
8
0
62
1
10
-0.214125
20
-0.109241
30
-0.062781
11
-0.171048
21
-0.124000
31
-0.130433
12
-0.170323
22
-0.169530
32
-0.062781
13
-0.170323
23
-0.169530
33
-0.062781
0
3DFACE
8
0
62
1
10
-0.170323
20
-0.169530
30
-0.062781
11
-0.171048
21
-0.124000
31
-0.130433
12
-0.124344
22
-0.174512
32
-0.125430
13
-0.124344
23
-0.174512
33
-0.125430
0
3DFACE
8
0
62
1
10
-0.170323
20
-0.169530
30
-0.062781
11
-0.124344
21
-0.174512
31
-0.125430
12
-0.111297
22
-0.214667
32
-0.057114
13
-0.111297
23
-0.214667
33
-0.057114
0
3DFACE
8
0
62
1
10
-0.111297
20
-0.214667
30
-0.057114
11
-0.124344
21
-0.174512
31
-0.125430
12
-0.068098
22
-0.211663
32
-0.110803
13
-0.068098
23
-0.211663
33
-0.110803
0
3DFACE
8
0
62
1
10
0.070098
20
-0.211663
30
0.112803
11
0.036916
21
-0.239485
31
0.059114
12
0.113297
22
-0.214667
32
0.059114
13
0.113297
23
-0.214667
33
0.059114
0
3DFACE
8
0
62
1
10
0.036916
20
-0.239485
30
0.059114
11
0.001000
21
-0.249000
31
0.001000
12
0.078254
22
-0.236764
32
0.001000
13
0.078254
23
-0.236764
33
0.001000
0
3DFACE
8
0
62
1
10
0.036916
20
-0.239485
30
0.059114
11
0.078254
21
-0.236764
31
0.001000
12
0.113297
22
-0.214667
32
0.059114
13
0.113297
23
-0.214667
33
0.059114
0
3DFACE
8
0
62
1
10
0.113297
20
-0.214667
30
0.059114
11
0.078254
21
-0.236764
31
0.001000
12
0.147946
22
-0.201254
32
0.001000
13
0.147946
23
-0.201254
33
0.001000
0
3DFACE
8
0
62
1
10
0.001000
20
-0.249000
30
0.001000
11
-0.034916
21
-0.239485
31
-0.057114
12
0.039368
22
-0.237663
32
-0.062781
13
0.039368
23
-0.237663
33
-0.062781
0
3DFACE
8
0
62
1
10
0.001000
20
-0.249000
30
0.001000
11
0.039368
21
-0.237663
31
-0.062781
12
0.078254
22
-0.236764
32
0.001000
13
0.078254
23
-0.236764
33
0.001000
0
3DFACE
8
0
62
1
10
0.078254
20
-0.236764
30
0.001000
11
0.039368
21
-0.237663
31
-0.062781
12
0.110242
22
-0.214634
32
-0.062781
13
0.110242
23
-0.214634
33
-0.062781
0
3DFACE
8
0
62
1
10
0.078254
20
-0.236764
30
0.001000
11
0.110242
21
-0.214634
31
-0.062781
12
0.147946
22
-0.201254
32
0.001000
13
0.147946
23
-0.201254
33
0.001000
0
3DFACE
8
0
62
1
10
0.147946
20
-0.201254
30
0.001000
11
0.110242
21
-0.214634
31
-0.062781
12
0.171410
22
-0.172445
32
-0.057114
13
0.171410
23
-0.172445
33
-0.057114
0
3DFACE
8
0
62
1
10
-0.034916
20
-0.239485
30
-0.057114
11
-0.068098
21
-0.211663
31
-0.110803
12
-0.000758
22
-0.214667
32
-0.125430
13
-0.000758
23
-0.214667
33
-0.125430
0
3DFACE
8
0
62
1
10
-0.034916
20
-0.239485
30
-0.057114
11
-0.000758
21
-0.214667
31
-0.125430
12
0.039368
22
-0.237663
32
-0.062781
13
0.039368
23
-0.237663
33
-0.062781
0
3DFACE
8
0
62
1
10
0.039368
20
-0.237663
30
-0.062781
11
-0.000758
21
-0.214667
31
-0.125430
12
0.066716
22
-0.201254
32
-0.130433
13
0.066716
23
-0.201254
33
-0.130433
0
3DFACE
8
0
62
1
10
0.039368
20
-0.237663
30
-0.062781
11
0.066716
21
-0.201254
31
-0.130433
12
0.110242
22
-0.214634
32
-0.062781
13
0.110242
23
-0.214634
33
-0.062781
0
3DFACE
8
0
62
1
10
0.110242
20
-0.214634
30
-0.062781
11
0.066716
21
-0.201254
31
-0.130433
12
0.129188
22
-0.172445
32
-0.125430
13
0.129188
23
-0.172445
33
-0.125430
0
3DFACE
8
0
62
1
10
0.110242
20
-0.214634
30
-0.062781
11
0.129188
21
-0.172445
31
-0.125430
12
0.171410
22
-0.172445
32
-0.057114
13
0.171410
23
-0.172445
33
-0.057114
0
3DFACE
8
0
62
1
10
0.171410
20
-0.172445
30
-0.057114
11
0.129188
21
-0.172445
31
-0.125430
12
0.181902
22
-0.130433
32
-0.110803
13
0.181902
23
-0.130433
33
-0.110803
0
3DFACE
8
0
62
1
10
0.181902
20
0.132433
30
-0.110803
11
0.171410
21
0.174445
31
-0.057114
12
0.218616
22
0.109472
32
-0.057114
13
0.218616
23
0.109472
33
-0.057114
0
3DFACE
8
0
62
1
10
0.171410
20
0.174445
30
-0.057114
11
0.147946
21
0.203254
31
0.001000
12
0.203254
22
0.147946
32
0.001000
13
0.203254
23
0.147946
33
0.001000
0
3DFACE
8
0
62
1
10
0.171410
20
0.174445
30
-0.057114
11
0.203254
21
0.147946
31
0.001000
12
0.218616
22
0.109472
32
-0.057114
13
0.218616
23
0.109472
33
-0.057114
0
3DFACE
8
0
62
1
10
0.218616
20
0.109472
30
-0.057114
11
0.203254
21
0.147946
31
0.001000
12
0.238764
22
0.078254
32
0.001000
13
0.238764
23
0.078254
33
0.001000
0
3DFACE
8
0
62
1
10
0.147946
20
0.203254
30
0.001000
11
0.113296
21
0.216667
31
0.059114
12
0.172323
22
0.171530
32
0.064781
13
0.172323
23
0.171530
33
0.064781
0
3DFACE
8
0
62
1
10
0.147946
20
0.203254
30
0.001000
11
0.172323
21
0.171530
31
0.064781
12
0.203254
22
0.147946
32
0.001000
13
0.203254
23
0.147946
33
0.001000
0
3DFACE
8
0
62
1
10
0.203254
20
0.147946
30
0.001000
11
0.172323
21
0.171530
31
0.064781
12
0.216126
22
0.111241
32
0.064781
13
0.216126
23
0.111241
33
0.064781
0
3DFACE
8
0
62
1
10
0.203254
20
0.147946
30
0.001000
11
0.216126
21
0.111241
31
0.064781
12
0.238764
22
0.078254
32
0.001000
13
0.238764
23
0.078254
33
0.001000
0
3DFACE
8
0
62
1
10
0.238764
20
0.078254
30
0.001000
11
0.216126
21
0.111241
31
0.064781
12
0.240813
22
0.041156
32
0.059114
13
0.240813
23
0.041156
33
0.059114
0
3DFACE
8
0
62
1
10
0.113296
20
0.216667
30
0.059114
11
0.070098
21
0.213663
31
0.112803
12
0.126344
22
0.176512
32
0.127430
13
0.126344
23
0.176512
33
0.127430
0
3DFACE
8
0
62
1
10
0.113296
20
0.216667
30
0.059114
11
0.126344
21
0.176512
31
0.127430
12
0.172323
22
0.171530
32
0.064781
13
0.172323
23
0.171530
33
0.064781
0
3DFACE
8
0
62
1
10
0.172323
20
0.171530
30
0.064781
11
0.126344
21
0.176512
31
0.127430
12
0.173048
22
0.126000
32
0.132433
13
0.173048
23
0.126000
33
0.132433
0
3DFACE
8
0
62
1
10
0.172323
20
0.171530
30
0.064781
11
0.173048
21
0.126000
31
0.132433
12
0.216126
22
0.111241
32
0.064781
13
0.216126
23
0.111241
33
0.064781
0
3DFACE
8
0
62
1
10
0.216126
20
0.111241
30
0.064781
11
0.173048
21
0.126000
31
0.132433
12
0.206655
22
0.065973
32
0.127430
13
0.206655
23
0.065973
33
0.127430
0
3DFACE
8
0
62
1
10
0.216126
20
0.111241
30
0.064781
11
0.206655
21
0.065973
31
0.127430
12
0.240813
22
0.041156
32
0.059114
13
0.240813
23
0.041156
33
0.059114
0
3DFACE
8
0
62
1
10
0.240813
20
0.041156
30
0.059114
11
0.206655
21
0.065973
31
0.127430
12
0.224607
22
0.001000
32
0.112803
13
0.224607
23
0.001000
33
0.112803
0
3DFACE
8
0
62
1
10
-0.068098
20
0.213663
30
-0.110803
11
-0.111297
21
0.216667
31
-0.057114
12
-0.034916
22
0.241485
32
-0.057114
13
-0.034916
23
0.241485
33
-0.057114
0
3DFACE
8
0
62
1
10
-0.111297
20
0.216667
30
-0.057114
11
-0.145946
21
0.203254
31
0.001000
12
-0.076254
22
0.238764
32
0.001000
13
-0.076254
23
0.238764
33
0.001000
0
3DFACE
8
0
62
1
10
-0.111297
20
0.216667
30
-0.057114
11
-0.076254
21
0.238764
31
0.001000
12
-0.034916
22
0.241485
32
-0.057114
13
-0.034916
23
0.241485
33
-0.057114
0
3DFACE
8
0
62
1
10
-0.034916
20
0.241485
30
-0.057114
11
-0.076254
21
0.238764
31
0.001000
12
0.001000
22
0.251000
32
0.001000
13
0.001000
23
0.251000
33
0.001000
0
3DFACE
8
0
62
1
10
-0.145946
20
0.203254
30
0.001000
11
-0.169410
21
0.174445
31
0.059114
12
-0.108242
22
0.216634
32
0.064781
13
-0.108242
23
0.216634
33
0.064781
0
3DFACE
8
0
62
1
10
-0.145946
20
0.203254
30
0.001000
11
-0.108242
21
0.216634
31
0.064781
12
-0.076254
22
0.238764
32
0.001000
13
-0.076254
23
0.238764
33
0.001000
0
3DFACE
8
0
62
1
10
-0.076254
20
0.238764
30
0.001000
11
-0.108242
21
0.216634
31
0.064781
12
-0.037368
22
0.239663
32
0.064781
13
-0.037368
23
0.239663
33
0.064781
0
3DFACE
8
0
62
1
10
-0.076254
20
0.238764
30
0.001000
11
-0.037368
21
0.239663
31
0.064781
12
0.001000
22
0.251000
32
0.001000
13
0.001000
23
0.251000
33
0.001000
0
3DFACE
8
0
62
1
10
0.001000
20
0.251000
30
0.001000
11
-0.037368
21
0.239663
31
0.064781
12
0.036916
22
0.241485
32
0.059114
13
0.036916
23
0.241485
33
0.059114
0
3DFACE
8
0
62
1
10
-0.169410
20
0.174445
30
0.059114
11
-0.179902
21
0.132433
31
0.112803
12
-0.127188
22
0.174445
32
0.127430
13
-0.127188
23
0.174445
33
0.127430
0
3DFACE
8
0
62
1
10
-0.169410
20
0.174445
30
0.059114
11
-0.127188
21
0.174445
31
0.127430
12
-0.108242
22
0.216634
32
0.064781
13
-0.108242
23
0.216634
33
0.064781
0
3DFACE
8
0
62
1
10
-0.108242
20
0.216634
30
0.064781
11
-0.127188
21
0.174445
31
0.127430
12
-0.064716
22
0.203254
32
0.132433
13
-0.064716
23
0.203254
33
0.132433
0
3DFACE
8
0
62
1
10
-0.108242
20
0.216634
30
0.064781
11
-0.064716
21
0.203254
31
0.132433
12
-0.037368
22
0.239663
32
0.064781
13
-0.037368
23
0.239663
33
0.064781
0
3DFACE
8
0
62
1
10
-0.037368
20
0.239663
30
0.064781
11
-0.064716
21
0.203254
31
0.132433
12
0.002758
22
0.216667
32
0.127430
13
0.002758
23
0.216667
33
0.127430
0
3DFACE
8
0
62
1
10
-0.037368
20
0.239663
30
0.064781
11
0.002758
21
0.216667
31
0.127430
12
0.036916
22
0.241485
32
0.059114
13
0.036916
23
0.241485
33
0.059114
0
3DFACE
8
0
62
1
10
0.036916
20
0.241485
30
0.059114
11
0.002758
21
0.216667
31
0.127430
12
0.070098
22
0.213663
32
0.112803
13
0.070098
23
0.213663
33
0.112803
0
3DFACE
8
0
62
1
10
-0.222607
20
0.001000
30
-0.110803
11
-0.238813
21
-0.039156
31
-0.057114
12
-0.238813
22
0.041155
32
-0.057114
13
-0.238813
23
0.041155
33
-0.057114
0
3DFACE
8
0
62
1
10
-0.238813
20
-0.039156
30
-0.057114
11
-0.236764
21
-0.076254
31
0.001000
12
-0.249000
22
0.001000
32
0.001000
13
-0.249000
23
0.001000
33
0.001000
0
3DFACE
8
0
62
1
10
-0.238813
20
-0.039156
30
-0.057114
11
-0.249000
21
0.001000
31
0.001000
12
-0.238813
22
0.041155
32
-0.057114
13
-0.238813
23
0.041155
33
-0.057114
0
3DFACE
8
0
62
1
10
-0.238813
20
0.041155
30
-0.057114
11
-0.249000
21
0.001000
31
0.001000
12
-0.236764
22
0.078254
32
0.001000
13
-0.236764
23
0.078254
33
0.001000
0
3DFACE
8
0
62
1
10
-0.236764
20
-0.076254
30
0.001000
11
-0.216616
21
-0.107472
31
0.059114
12
-0.237838
22
-0.036261
32
0.064781
13
-0.237838
23
-0.036261
33
0.064781
0
3DFACE
8
0
62
1
10
-0.236764
20
-0.076254
30
0.001000
11
-0.237838
21
-0.036261
31
0.064781
12
-0.249000
22
0.001000
32
0.001000
13
-0.249000
23
0.001000
33
0.001000
0
3DFACE
8
0
62
1
10
-0.249000
20
0.001000
30
0.001000
11
-0.237838
21
-0.036261
31
0.064781
12
-0.237838
22
0.038261
32
0.064781
13
-0.237838
23
0.038261
33
0.064781
0
3DFACE
8
0
62
1
10
-0.249000
20
0.001000
30
0.001000
11
-0.237838
21
0.038261
31
0.064781
12
-0.236764
22
0.078254
32
0.001000
13
-0.236764
23
0.078254
33
0.001000
0
3DFACE
8
0
62
1
10
-0.236764
20
0.078254
30
0.001000
11
-0.237838
21
0.038261
31
0.064781
12
-0.216616
22
0.109472
32
0.059114
13
-0.216616
23
0.109472
33
0.059114
0
3DFACE
8
0
62
1
10
-0.216616
20
-0.107472
30
0.059114
11
-0.179902
21
-0.130433
31
0.112803
12
-0.203568
22
-0.067317
32
0.127430
13
-0.203568
23
-0.067317
33
0.127430
0
3DFACE
8
0
62
1
10
-0.216616
20
-0.107472
30
0.059114
11
-0.203568
21
-0.067317
31
0.127430
12
-0.237838
22
-0.036261
32
0.064781
13
-0.237838
23
-0.036261
33
0.064781
0
3DFACE
8
0
62
1
10
-0.237838
20
-0.036261
30
0.064781
11
-0.203568
21
-0.067317
31
0.127430
12
-0.211663
22
0.001000
32
0.132433
13
-0.211663
23
0.001000
33
0.132433
0
3DFACE
8
0
62
1
10
-0.237838
20
-0.036261
30
0.064781
11
-0.211663
21
0.001000
31
0.132433
12
-0.237838
22
0.038261
32
0.064781
13
-0.237838
23
0.038261
33
0.064781
0
3DFACE
8
0
62
1
10
-0.237838
20
0.038261
30
0.064781
11
-0.211663
21
0.001000
31
0.132433
12
-0.203568
22
0.069317
32
0.127430
13
-0.203568
23
0.069317
33
0.127430
0
3DFACE
8
0
62
1
10
-0.237838
20
0.038261
30
0.064781
11
-0.203568
21
0.069317
31
0.127430
12
-0.216616
22
0.109472
32
0.059114
13
-0.216616
23
0.109472
33
0.059114
0
3DFACE
8
0
62
1
10
-0.216616
20
0.109472
30
0.059114
11
-0.203568
21
0.069317
31
0.127430
12
-0.179902
22
0.132433
32
0.112803
13
-0.179902
23
0.132433
33
0.112803
0
3DFACE
8
0
62
1
10
-0.068098
20
-0.211663
30
-0.110803
11
-0.034916
21
-0.239485
31
-0.057114
12
-0.111297
22
-0.214667
32
-0.057114
13
-0.111297
23
-0.214667
33
-0.057114
0
3DFACE
8
0
62
1
10
-0.034916
20
-0.239485
30
-0.057114
11
0.001000
21
-0.249000
31
0.001000
12
-0.076254
22
-0.236764
32
0.001000
13
-0.076254
23
-0.236764
33
0.001000
0
3DFACE
8
0
62
1
10
-0.034916
20
-0.239485
30
-0.057114
11
-0.076254
21
-0.236764
31
0.001000
12
-0.111297
22
-0.214667
32
-0.057114
13
-0.111297
23
-0.214667
33
-0.057114
0
3DFACE
8
0
62
1
10
-0.111297
20
-0.214667
30
-0.057114
11
-0.076254
21
-0.236764
31
0.001000
12
-0.145946
22
-0.201254
32
0.001000
13
-0.145946
23
-0.201254
33
0.001000
0
3DFACE
8
0
62
1
10
0.001000
20
-0.249000
30
0.001000
11
0.036916
21
-0.239485
31
0.059114
12
-0.037368
22
-0.237663
32
0.064781
13
-0.037368
23
-0.237663
33
0.064781
0
3DFACE
8
0
62
1
10
0.001000
20
-0.249000
30
0.001000
11
-0.037368
21
-0.237663
31
0.064781
12
-0.076254
22
-0.236764
32
0.001000
13
-0.076254
23
-0.236764
33
0.001000
0
3DFACE
8
0
62
1
10
-0.076254
20
-0.236764
30
0.001000
11
-0.037368
21
-0.237663
31
0.064781
12
-0.108242
22
-0.214634
32
0.064781
13
-0.108242
23
-0.214634
33
0.064781
0
3DFACE
8
0
62
1
10
-0.076254
20
-0.236764
30
0.001000
11
-0.108242
21
-0.214634
31
0.064781
12
-0.145946
22
-0.201254
32
0.001000
13
-0.145946
23
-0.201254
33
0.001000
0
3DFACE
8
0
62
1
10
-0.145946
20
-0.201254
30
0.001000
11
-0.108242
21
-0.214634
31
0.064781
12
-0.169410
22
-0.172445
32
0.059114
13
-0.169410
23
-0.172445
33
0.059114
0
3DFACE
8
0
62
1
10
0.036916
20
-0.239485
30
0.059114
11
0.070098
21
-0.211663
31
0.112803
12
0.002758
22
-0.214667
32
0.127430
13
0.002758
23
-0.214667
33
0.127430
0
3DFACE
8
0
62
1
10
0.036916
20
-0.239485
30
0.059114
11
0.002758
21
-0.214667
31
0.127430
12
-0.037368
22
-0.237663
32
0.064781
13
-0.037368
23
-0.237663
33
0.064781
0
3DFACE
8
0
62
1
10
-0.037368
20
-0.237663
30
0.064781
11
0.002758
21
-0.214667
31
0.127430
12
-0.064716
22
-0.201254
32
0.132433
13
-0.064716
23
-0.201254
33
0.132433
0
3DFACE
8
0
62
1
10
-0.037368
20
-0.237663
30
0.064781
11
-0.064716
21
-0.201254
31
0.132433
12
-0.108242
22
-0.214634
32
0.064781
13
-0.108242
23
-0.214634
33
0.064781
0
3DFACE
8
0
62
1
10
-0.108242
20
-0.214634
30
0.064781
11
-0.064716
21
-0.201254
31
0.132433
12
-0.127188
22
-0.172445
32
0.127430
13
-0.127188
23
-0.172445
33
0.127430
0
3DFACE
8
0
62
1
10
-0.108242
20
-0.214634
30
0.064781
11
-0.127188
21
-0.172445
31
0.127430
12
-0.169410
22
-0.172445
32
0.059114
13
-0.169410
23
-0.172445
33
0.059114
0
3DFACE
8
0
62
1
10
-0.169410
20
-0.172445
30
0.059114
11
-0.127188
21
-0.172445
31
0.127430
12
-0.179902
22
-0.130433
32
0.112803
13
-0.179902
23
-0.130433
33
0.112803
0
3DFACE
8
0
62
1
10
0.181902
20
-0.130433
30
-0.110803
11
0.218616
21
-0.107472
31
-0.057114
12
0.171410
22
-0.172445
32
-0.057114
13
0.171410
23
-0.172445
33
-0.057114
0
3DFACE
8
0
62
1
10
0.218616
20
-0.107472
30
-0.057114
11
0.238764
21
-0.076254
31
0.001000
12
0.203254
22
-0.145946
32
0.001000
13
0.203254
23
-0.145946
33
0.001000
0
3DFACE
8
0
62
1
10
0.218616
20
-0.107472
30
-0.057114
11
0.203254
21
-0.145946
31
0.001000
12
0.171410
22
-0.172445
32
-0.057114
13
0.171410
23
-0.172445
33
-0.057114
0
3DFACE
8
0
62
1
10
0.171410
20
-0.172445
30
-0.057114
11
0.203254
21
-0.145946
31
0.001000
12
0.147946
22
-0.201254
32
0.001000
13
0.147946
23
-0.201254
33
0.001000
0
3DFACE
8
0
62
1
10
0.238764
20
-0.076254
30
0.001000
11
0.240813
21
-0.039155
31
0.059114
12
0.216126
22
-0.109241
32
0.064781
13
0.216126
23
-0.109241
33
0.064781
0
3DFACE
8
0
62
1
10
0.238764
20
-0.076254
30
0.001000
11
0.216126
21
-0.109241
31
0.064781
12
0.203254
22
-0.145946
32
0.001000
13
0.203254
23
-0.145946
33
0.001000
0
3DFACE
8
0
62
1
10
0.203254
20
-0.145946
30
0.001000
11
0.216126
21
-0.109241
31
0.064781
12
0.172323
22
-0.169530
32
0.064781
13
0.172323
23
-0.169530
33
0.064781
0
3DFACE
8
0
62
1
10
0.203254
20
-0.145946
30
0.001000
11
0.172323
21
-0.169530
31
0.064781
12
0.147946
22
-0.201254
32
0.001000
13
0.147946
23
-0.201254
33
0.001000
0
3DFACE
8
0
62
1
10
0.147946
20
-0.201254
30
0.001000
11
0.172323
21
-0.169530
31
0.064781
12
0.113297
22
-0.214667
32
0.059114
13
0.113297
23
-0.214667
33
0.059114
0
3DFACE
8
0
62
1
10
0.240813
20
-0.039155
30
0.059114
11
0.224607
21
0.001000
31
0.112803
12
0.206655
22
-0.063973
32
0.127430
13
0.206655
23
-0.063973
33
0.127430
0
3DFACE
8
0
62
1
10
0.240813
20
-0.039155
30
0.059114
11
0.206655
21
-0.063973
31
0.127430
12
0.216126
22
-0.109241
32
0.064781
13
0.216126
23
-0.109241
33
0.064781
0
3DFACE
8
0
62
1
10
0.216126
20
-0.109241
30
0.064781
11
0.206655
21
-0.063973
31
0.127430
12
0.173048
22
-0.124000
32
0.132433
13
0.173048
23
-0.124000
33
0.132433
0
3DFACE
8
0
62
1
10
0.216126
20
-0.109241
30
0.064781
11
0.173048
21
-0.124000
31
0.132433
12
0.172323
22
-0.169530
32
0.064781
13
0.172323
23
-0.169530
33
0.064781
0
3DFACE
8
0
62
1
10
0.172323
20
-0.169530
30
0.064781
11
0.173048
21
-0.124000
31
0.132433
12
0.126344
22
-0.174512
32
0.127430
13
0.126344
23
-0.174512
33
0.127430
0
3DFACE
8
0
62
1
10
0.172323
20
-0.169530
30
0.064781
11
0.126344
21
-0.174512
31
0.127430
12
0.113297
22
-0.214667
32
0.059114
13
0.113297
23
-0.214667
33
0.059114
0
3DFACE
8
0
62
1
10
0.113297
20
-0.214667
30
0.059114
11
0.126344
21
-0.174512
31
0.127430
12
0.070098
22
-0.211663
32
0.112803
13
0.070098
23
-0.211663
33
0.112803
0
3DFACE
8
0
62
1
10
0.001000
20
0.001000
30
-0.249000
11
-0.020111
21
0.065973
31
-0.239485
12
0.056269
22
0.041156
32
-0.239485
13
0.056269
23
0.041156
33
-0.239485
0
3DFACE
8
0
62
1
10
-0.020111
20
0.065973
30
-0.239485
11
-0.039615
21
0.126000
31
-0.211663
12
0.035549
22
0.107331
32
-0.222607
13
0.035549
23
0.107331
33
-0.222607
0
3DFACE
8
0
62
1
10
-0.020111
20
0.065973
30
-0.239485
11
0.035549
21
0.107331
31
-0.222607
12
0.056269
22
0.041156
32
-0.239485
13
0.056269
23
0.041156
33
-0.239485
0
3DFACE
8
0
62
1
10
0.056269
20
0.041156
30
-0.239485
11
0.035549
21
0.107331
31
-0.222607
12
0.107331
22
0.078254
32
-0.211663
13
0.107331
23
0.078254
33
-0.211663
0
3DFACE
8
0
62
1
10
-0.039615
20
0.126000
30
-0.211663
11
-0.056027
21
0.176512
31
-0.167652
12
0.016198
22
0.168353
32
-0.184100
13
0.016198
23
0.168353
33
-0.184100
0
3DFACE
8
0
62
1
10
-0.039615
20
0.126000
30
-0.211663
11
0.016198
21
0.168353
31
-0.184100
12
0.035549
22
0.107331
32
-0.222607
13
0.035549
23
0.107331
33
-0.222607
0
3DFACE
8
0
62
1
10
0.035549
20
0.107331
30
-0.222607
11
0.016198
21
0.168353
31
-0.184100
12
0.087073
22
0.145325
32
-0.184100
13
0.087073
23
0.145325
33
-0.184100
0
3DFACE
8
0
62
1
10
0.035549
20
0.107331
30
-0.222607
11
0.087073
21
0.145325
31
-0.184100
12
0.107331
22
0.078254
32
-0.211663
13
0.107331
23
0.078254
33
-0.211663
0
3DFACE
8
0
62
1
10
0.107331
20
0.078254
30
-0.211663
11
0.087073
21
0.145325
31
-0.184100
12
0.150299
22
0.109472
32
-0.167652
13
0.150299
23
0.109472
33
-0.167652
0
3DFACE
8
0
62
1
10
-0.056027
20
0.176512
30
-0.167652
11
-0.068098
21
0.213663
31
-0.110803
12
-0.000758
22
0.216667
32
-0.125430
13
-0.000758
23
0.216667
33
-0.125430
0
3DFACE
8
0
62
1
10
-0.056027
20
0.176512
30
-0.167652
11
-0.000758
21
0.216667
31
-0.125430
12
0.016198
22
0.168353
32
-0.184100
13
0.016198
23
0.168353
33
-0.184100
0
3DFACE
8
0
62
1
10
0.016198
20
0.168353
30
-0.184100
11
-0.000758
21
0.216667
31
-0.125430
12
0.066716
22
0.203254
32
-0.130433
13
0.066716
23
0.203254
33
-0.130433
0
3DFACE
8
0
62
1
10
0.016198
20
0.168353
30
-0.184100
11
0.066716
21
0.203254
31
-0.130433
12
0.087073
22
0.145325
32
-0.184100
13
0.087073
23
0.145325
33
-0.184100
0
3DFACE
8
0
62
1
10
0.087073
20
0.145325
30
-0.184100
11
0.066716
21
0.203254
31
-0.130433
12
0.129188
22
0.174445
32
-0.125430
13
0.129188
23
0.174445
33
-0.125430
0
3DFACE
8
0
62
1
10
0.087073
20
0.145325
30
-0.184100
11
0.129188
21
0.174445
31
-0.125430
12
0.150299
22
0.109472
32
-0.167652
13
0.150299
23
0.109472
33
-0.167652
0
3DFACE
8
0
62
1
10
0.150299
20
0.109472
30
-0.167652
11
0.129188
21
0.174445
31
-0.125430
12
0.181902
22
0.132433
32
-0.110803
13
0.181902
23
0.132433
33
-0.110803
0
3DFACE
8
0
62
1
10
0.001000
20
0.001000
30
-0.249000
11
-0.067317
21
0.001000
31
-0.239485
12
-0.020111
22
0.065973
32
-0.239485
13
-0.020111
23
0.065973
33
-0.239485
0
3DFACE
8
0
62
1
10
-0.067317
20
0.001000
30
-0.239485
11
-0.130433
21
0.001000
31
-0.211663
12
-0.089451
22
0.066716
32
-0.222607
13
-0.089451
23
0.066716
33
-0.222607
0
3DFACE
8
0
62
1
10
-0.067317
20
0.001000
30
-0.239485
11
-0.089451
21
0.066716
31
-0.222607
12
-0.020111
22
0.065973
32
-0.239485
13
-0.020111
23
0.065973
33
-0.239485
0
3DFACE
8
0
62
1
10
-0.020111
20
0.065973
30
-0.239485
11
-0.089451
21
0.066716
31
-0.222607
12
-0.039615
22
0.126000
32
-0.211663
13
-0.039615
23
0.126000
33
-0.211663
0
3DFACE
8
0
62
1
10
-0.130433
20
0.001000
30
-0.211663
11
-0.183544
21
0.001000
31
-0.167652
12
-0.153466
22
0.067169
32
-0.184100
13
-0.153466
23
0.067169
33
-0.184100
0
3DFACE
8
0
62
1
10
-0.130433
20
0.001000
30
-0.211663
11
-0.153466
21
0.067169
31
-0.184100
12
-0.089451
22
0.066716
32
-0.222607
13
-0.089451
23
0.066716
33
-0.222607
0
3DFACE
8
0
62
1
10
-0.089451
20
0.066716
30
-0.222607
11
-0.153466
21
0.067169
31
-0.184100
12
-0.109663
22
0.127459
32
-0.184100
13
-0.109663
23
0.127459
33
-0.184100
0
3DFACE
8
0
62
1
10
-0.089451
20
0.066716
30
-0.222607
11
-0.109663
21
0.127459
31
-0.184100
12
-0.039615
22
0.126000
32
-0.211663
13
-0.039615
23
0.126000
33
-0.211663
0
3DFACE
8
0
62
1
10
-0.039615
20
0.126000
30
-0.211663
11
-0.109663
21
0.127459
31
-0.184100
12
-0.056027
22
0.176512
32
-0.167652
13
-0.056027
23
0.176512
33
-0.167652
0
3DFACE
8
0
62
1
10
-0.183544
20
0.001000
30
-0.167652
11
-0.222607
21
0.001000
31
-0.110803
12
-0.204655
22
0.065973
32
-0.125430
13
-0.204655
23
0.065973
33
-0.125430
0
3DFACE
8
0
62
1
10
-0.183544
20
0.001000
30
-0.167652
11
-0.204655
21
0.065973
31
-0.125430
12
-0.153466
22
0.067169
32
-0.184100
13
-0.153466
23
0.067169
33
-0.184100
0
3DFACE
8
0
62
1
10
-0.153466
20
0.067169
30
-0.184100
11
-0.204655
21
0.065973
31
-0.125430
12
-0.171048
22
0.126000
32
-0.130433
13
-0.171048
23
0.126000
33
-0.130433
0
3DFACE
8
0
62
1
10
-0.153466
20
0.067169
30
-0.184100
11
-0.171048
21
0.126000
31
-0.130433
12
-0.109663
22
0.127459
32
-0.184100
13
-0.109663
23
0.127459
33
-0.184100
0
3DFACE
8
0
62
1
10
-0.109663
20
0.127459
30
-0.184100
11
-0.171048
21
0.126000
31
-0.130433
12
-0.124344
22
0.176512
32
-0.125430
13
-0.124344
23
0.176512
33
-0.125430
0
3DFACE
8
0
62
1
10
-0.109663
20
0.127459
30
-0.184100
11
-0.124344
21
0.176512
31
-0.125430
12
-0.056027
22
0.176512
32
-0.167652
13
-0.056027
23
0.176512
33
-0.167652
0
3DFACE
8
0
62
1
10
-0.056027
20
0.176512
30
-0.167652
11
-0.124344
21
0.176512
31
-0.125430
12
-0.068098
22
0.213663
32
-0.110803
13
-0.068098
23
0.213663
33
-0.110803
0
3DFACE
8
0
62
1
10
0.001000
20
0.001000
30
-0.249000
11
-0.020111
21
-0.063973
31
-0.239485
12
-0.067317
22
0.001000
32
-0.239485
13
-0.067317
23
0.001000
33
-0.239485
0
3DFACE
8
0
62
1
10
-0.020111
20
-0.063973
30
-0.239485
11
-0.039615
21
-0.124000
31
-0.211663
12
-0.089451
22
-0.064716
32
-0.222607
13
-0.089451
23
-0.064716
33
-0.222607
0
3DFACE
8
0
62
1
10
-0.020111
20
-0.063973
30
-0.239485
11
-0.089451
21
-0.064716
31
-0.222607
12
-0.067317
22
0.001000
32
-0.239485
13
-0.067317
23
0.001000
33
-0.239485
0
3DFACE
8
0
62
1
10
-0.067317
20
0.001000
30
-0.239485
11
-0.089451
21
-0.064716
31
-0.222607
12
-0.130433
22
0.001000
32
-0.211663
13
-0.130433
23
0.001000
33
-0.211663
0
3DFACE
8
0
62
1
10
-0.039615
20
-0.124000
30
-0.211663
11
-0.056027
21
-0.174512
31
-0.167652
12
-0.109663
22
-0.125459
32
-0.184100
13
-0.109663
23
-0.125459
33
-0.184100
0
3DFACE
8
0
62
1
10
-0.039615
20
-0.124000
30
-0.211663
11
-0.109663
21
-0.125459
31
-0.184100
12
-0.089451
22
-0.064716
32
-0.222607
13
-0.089451
23
-0.064716
33
-0.222607
0
3DFACE
8
0
62
1
10
-0.089451
20
-0.064716
30
-0.222607
11
-0.109663
21
-0.125459
31
-0.184100
12
-0.153466
22
-0.065169
32
-0.184100
13
-0.153466
23
-0.065169
33
-0.184100
0
3DFACE
8
0
62
1
10
-0.089451
20
-0.064716
30
-0.222607
11
-0.153466
21
-0.065169
31
-0.184100
12
-0.130433
22
0.001000
32
-0.211663
13
-0.130433
23
0.001000
33
-0.211663
0
3DFACE
8
0
62
1
10
-0.130433
20
0.001000
30
-0.211663
11
-0.153466
21
-0.065169
31
-0.184100
12
-0.183544
22
0.001000
32
-0.167652
13
-0.183544
23
0.001000
33
-0.167652
0
3DFACE
8
0
62
1
10
-0.056027
20
-0.174512
30
-0.167652
11
-0.068098
21
-0.211663
31
-0.110803
12
-0.124344
22
-0.174512
32
-0.125430
13
-0.124344
23
-0.174512
33
-0.125430
0
3DFACE
8
0
62
1
10
-0.056027
20
-0.174512
30
-0.167652
11
-0.124344
21
-0.174512
31
-0.125430
12
-0.109663
22
-0.125459
32
-0.184100
13
-0.109663
23
-0.125459
33
-0.184100
0
3DFACE
8
0
62
1
10
-0.109663
20
-0.125459
30
-0.184100
11
-0.124344
21
-0.174512
31
-0.125430
12
-0.171048
22
-0.124000
32
-0.130433
13
-0.171048
23
-0.124000
33
-0.130433
0
3DFACE
8
0
62
1
10
-0.109663
20
-0.125459
30
-0.184100
11
-0.171048
21
-0.124000
31
-0.130433
12
-0.153466
22
-0.065169
32
-0.184100
13
-0.153466
23
-0.065169
33
-0.184100
0
3DFACE
8
0
62
1
10
-0.153466
20
-0.065169
30
-0.184100
11
-0.171048
21
-0.124000
31
-0.130433
12
-0.204655
22
-0.063973
32
-0.125430
13
-0.204655
23
-0.063973
33
-0.125430
0
3DFACE
8
0
62
1
10
-0.153466
20
-0.065169
30
-0.184100
11
-0.204655
21
-0.063973
31
-0.125430
12
-0.183544
22
0.001000
32
-0.167652
13
-0.183544
23
0.001000
33
-0.167652
0
3DFACE
8
0
62
1
10
-0.183544
20
0.001000
30
-0.167652
11
-0.204655
21
-0.063973
31
-0.125430
12
-0.222607
22
0.001000
32
-0.110803
13
-0.222607
23
0.001000
33
-0.110803
0
3DFACE
8
0
62
1
10
0.001000
20
0.001000
30
-0.249000
11
0.056269
21
-0.039155
31
-0.239485
12
-0.020111
22
-0.063973
32
-0.239485
13
-0.020111
23
-0.063973
33
-0.239485
0
3DFACE
8
0
62
1
10
0.056269
20
-0.039155
30
-0.239485
11
0.107331
21
-0.076254
31
-0.211663
12
0.035549
22
-0.105331
32
-0.222607
13
0.035549
23
-0.105331
33
-0.222607
0
3DFACE
8
0
62
1
10
0.056269
20
-0.039155
30
-0.239485
11
0.035549
21
-0.105331
31
-0.222607
12
-0.020111
22
-0.063973
32
-0.239485
13
-0.020111
23
-0.063973
33
-0.239485
0
3DFACE
8
0
62
1
10
-0.020111
20
-0.063973
30
-0.239485
11
0.035549
21
-0.105331
31
-0.222607
12
-0.039615
22
-0.124000
32
-0.211663
13
-0.039615
23
-0.124000
33
-0.211663
0
3DFACE
8
0
62
1
10
0.107331
20
-0.076254
30
-0.211663
11
0.150299
21
-0.107472
31
-0.167652
12
0.087073
22
-0.143325
32
-0.184100
13
0.087073
23
-0.143325
33
-0.184100
0
3DFACE
8
0
62
1
10
0.107331
20
-0.076254
30
-0.211663
11
0.087073
21
-0.143325
31
-0.184100
12
0.035549
22
-0.105331
32
-0.222607
13
0.035549
23
-0.105331
33
-0.222607
0
3DFACE
8
0
62
1
10
0.035549
20
-0.105331
30
-0.222607
11
0.087073
21
-0.143325
31
-0.184100
12
0.016198
22
-0.166353
32
-0.184100
13
0.016198
23
-0.166353
33
-0.184100
0
3DFACE
8
0
62
1
10
0.035549
20
-0.105331
30
-0.222607
11
0.016198
21
-0.166353
31
-0.184100
12
-0.039615
22
-0.124000
32
-0.211663
13
-0.039615
23
-0.124000
33
-0.211663
0
3DFACE
8
0
62
1
10
-0.039615
20
-0.124000
30
-0.211663
11
0.016198
21
-0.166353
31
-0.184100
12
-0.056027
22
-0.174512
32
-0.167652
13
-0.056027
23
-0.174512
33
-0.167652
0
3DFACE
8
0
62
1
10
0.150299
20
-0.107472
30
-0.167652
11
0.181902
21
-0.130433
31
-0.110803
12
0.129188
22
-0.172445
32
-0.125430
13
0.129188
23
-0.172445
33
-0.125430
0
3DFACE
8
0
62
1
10
0.150299
20
-0.107472
30
-0.167652
11
0.129188
21
-0.172445
31
-0.125430
12
0.087073
22
-0.143325
32
-0.184100
13
0.087073
23
-0.143325
33
-0.184100
0
3DFACE
8
0
62
1
10
0.087073
20
-0.143325
30
-0.184100
11
0.129188
21
-0.172445
31
-0.125430
12
0.066716
22
-0.201254
32
-0.130433
13
0.066716
23
-0.201254
33
-0.130433
0
3DFACE
8
0
62
1
10
0.087073
20
-0.143325
30
-0.184100
11
0.066716
21
-0.201254
31
-0.130433
12
0.016198
22
-0.166353
32
-0.184100
13
0.016198
23
-0.166353
33
-0.184100
0
3DFACE
8
0
62
1
10
0.016198
20
-0.166353
30
-0.184100
11
0.066716
21
-0.201254
31
-0.130433
12
-0.000758
22
-0.214667
32
-0.125430
13
-0.000758
23
-0.214667
33
-0.125430
0
3DFACE
8
0
62
1
10
0.016198
20
-0.166353
30
-0.184100
11
-0.000758
21
-0.214667
31
-0.125430
12
-0.056027
22
-0.174512
32
-0.167652
13
-0.056027
23
-0.174512
33
-0.167652
0
3DFACE
8
0
62
1
10
-0.056027
20
-0.174512
30
-0.167652
11
-0.000758
21
-0.214667
31
-0.125430
12
-0.068098
22
-0.211663
32
-0.110803
13
-0.068098
23
-0.211663
33
-0.110803
0
3DFACE
8
0
62
1
10
0.001000
20
0.001000
30
-0.249000
11
0.056269
21
0.041156
31
-0.239485
12
0.056269
22
-0.039155
32
-0.239485
13
0.056269
23
-0.039155
33
-0.239485
0
3DFACE
8
0
62
1
10
0.056269
20
0.041156
30
-0.239485
11
0.107331
21
0.078254
31
-0.211663
12
0.112803
22
0.001000
32
-0.222607
13
0.112803
23
0.001000
33
-0.222607
0
3DFACE
8
0
62
1
10
0.056269
20
0.041156
30
-0.239485
11
0.112803
21
0.001000
31
-0.222607
12
0.056269
22
-0.039155
32
-0.239485
13
0.056269
23
-0.039155
33
-0.239485
0
3DFACE
8
0
62
1
10
0.056269
20
-0.039155
30
-0.239485
11
0.112803
21
0.001000
31
-0.222607
12
0.107331
22
-0.076254
32
-0.211663
13
0.107331
23
-0.076254
33
-0.211663
0
3DFACE
8
0
62
1
10
0.107331
20
0.078254
30
-0.211663
11
0.150299
21
0.109472
31
-0.167652
12
0.164859
22
0.038261
32
-0.184100
13
0.164859
23
0.038261
33
-0.184100
0
3DFACE
8
0
62
1
10
0.107331
20
0.078254
30
-0.211663
11
0.164859
21
0.038261
31
-0.184100
12
0.112803
22
0.001000
32
-0.222607
13
0.112803
23
0.001000
33
-0.222607
0
3DFACE
8
0
62
1
10
0.112803
20
0.001000
30
-0.222607
11
0.164859
21
0.038261
31
-0.184100
12
0.164859
22
-0.036261
32
-0.184100
13
0.164859
23
-0.036261
33
-0.184100
0
3DFACE
8
0
62
1
10
0.112803
20
0.001000
30
-0.222607
11
0.164859
21
-0.036261
31
-0.184100
12
0.107331
22
-0.076254
32
-0.211663
13
0.107331
23
-0.076254
33
-0.211663
0
3DFACE
8
0
62
1
10
0.107331
20
-0.076254
30
-0.211663
11
0.164859
21
-0.036261
31
-0.184100
12
0.150299
22
-0.107472
32
-0.167652
13
0.150299
23
-0.107472
33
-0.167652
0
3DFACE
8
0
62
1
10
0.150299
20
0.109472
30
-0.167652
11
0.181902
21
0.132433
31
-0.110803
12
0.205568
22
0.069317
32
-0.125430
13
0.205568
23
0.069317
33
-0.125430
0
3DFACE
8
0
62
1
10
0.150299
20
0.109472
30
-0.167652
11
0.205568
21
0.069317
31
-0.125430
12
0.164859
22
0.038261
32
-0.184100
13
0.164859
23
0.038261
33
-0.184100
0
3DFACE
8
0
62
1
10
0.164859
20
0.038261
30
-0.184100
11
0.205568
21
0.069317
31
-0.125430
12
0.213663
22
0.001000
32
-0.130433
13
0.213663
23
0.001000
33
-0.130433
0
3DFACE
8
0
62
1
10
0.164859
20
0.038261
30
-0.184100
11
0.213663
21
0.001000
31
-0.130433
12
0.164859
22
-0.036261
32
-0.184100
13
0.164859
23
-0.036261
33
-0.184100
0
3DFACE
8
0
62
1
10
0.164859
20
-0.036261
30
-0.184100
11
0.213663
21
0.001000
31
-0.130433
12
0.205568
22
-0.067317
32
-0.125430
13
0.205568
23
-0.067317
33
-0.125430
0
3DFACE
8
0
62
1
10
0.164859
20
-0.036261
30
-0.184100
11
0.205568
21
-0.067317
31
-0.125430
12
0.150299
22
-0.107472
32
-0.167652
13
0.150299
23
-0.107472
33
-0.167652
0
3DFACE
8
0
62
1
10
0.150299
20
-0.107472
30
-0.167652
11
0.205568
21
-0.067317
31
-0.125430
12
0.181902
22
-0.130433
32
-0.110803
13
0.181902
23
-0.130433
33
-0.110803
0
ENDSEC
0
EOF
