0
SECTION
2
HEADER
0
ENDSEC
0
SECTION
2
ENTITIES
0
3DFACE
8
0
62
1
10
9.804839
20
-10.324755
30
0.899989
11
10.599839
21
-10.324755
31
0.840000
12
10.599839
22
-9.331005
32
0.759457
13
10.599839
23
-9.331005
33
0.759457
0
3DFACE
8
0
62
1
10
9.804839
20
-10.324755
30
0.899989
11
10.599839
21
-9.331005
31
0.759457
12
9.804839
22
-9.380692
32
0.825201
13
9.804839
23
-9.380692
33
0.825201
0
3DFACE
8
0
62
1
10
9.804839
20
-9.380692
30
0.825201
11
10.599839
21
-9.331005
31
0.759457
12
10.599839
22
-8.337255
32
0.638546
13
10.599839
23
-8.337255
33
0.638546
0
3DFACE
8
0
62
1
10
9.804839
20
-9.380692
30
0.825201
11
10.599839
21
-8.337255
31
0.638546
12
9.804839
22
-8.436630
32
0.721226
13
9.804839
23
-8.436630
33
0.721226
0
3DFACE
8
0
62
1
10
9.804839
20
-8.436630
30
0.721226
11
10.599839
21
-8.337255
31
0.638546
12
10.599839
22
-7.343505
32
0.518488
13
10.599839
23
-7.343505
33
0.518488
0
3DFACE
8
0
62
1
10
9.804839
20
-8.436630
30
0.721226
11
10.599839
21
-7.343505
31
0.518488
12
9.804839
22
-7.492568
32
0.630047
13
9.804839
23
-7.492568
33
0.630047
0
3DFACE
8
0
62
1
10
9.804839
20
-7.492568
30
0.630047
11
10.599839
21
-7.343505
31
0.518488
12
10.599839
22
-6.349755
32
0.437005
13
10.599839
23
-6.349755
33
0.437005
0
3DFACE
8
0
62
1
10
9.804839
20
-7.492568
30
0.630047
11
10.599839
21
-6.349755
31
0.437005
12
9.804839
22
-6.548505
32
0.587317
13
9.804839
23
-6.548505
33
0.587317
0
3DFACE
8
0
62
1
10
9.804839
20
-6.548505
30
0.587317
11
10.599839
21
-6.349755
31
0.437005
12
10.599839
22
-5.356005
32
0.416756
13
10.599839
23
-5.356005
33
0.416756
0
3DFACE
8
0
62
1
10
9.804839
20
-6.548505
30
0.587317
11
10.599839
21
-5.356005
31
0.416756
12
9.804839
22
-5.604443
32
0.612409
13
9.804839
23
-5.604443
33
0.612409
0
3DFACE
8
0
62
1
10
9.804839
20
-5.604443
30
0.612409
11
10.599839
21
-5.356005
31
0.416756
12
10.599839
22
-4.362255
32
0.460219
13
10.599839
23
-4.362255
33
0.460219
0
3DFACE
8
0
62
1
10
9.804839
20
-5.604443
30
0.612409
11
10.599839
21
-4.362255
31
0.460219
12
9.804839
22
-4.660380
32
0.704671
13
9.804839
23
-4.660380
33
0.704671
0
3DFACE
8
0
62
1
10
9.804839
20
-4.660380
30
0.704671
11
10.599839
21
-4.362255
31
0.460219
12
10.599839
22
-3.368505
32
0.551485
13
10.599839
23
-3.368505
33
0.551485
0
3DFACE
8
0
62
1
10
9.804839
20
-4.660380
30
0.704671
11
10.599839
21
-3.368505
31
0.551485
12
9.804839
22
-3.716318
32
0.845975
13
9.804839
23
-3.716318
33
0.845975
0
3DFACE
8
0
62
1
10
9.804839
20
-3.716318
30
0.845975
11
10.599839
21
-3.368505
31
0.551485
12
10.599839
22
-2.374755
32
0.662935
13
10.599839
23
-2.374755
33
0.662935
0
3DFACE
8
0
62
1
10
9.804839
20
-3.716318
30
0.845975
11
10.599839
21
-2.374755
31
0.662935
12
9.804839
22
-2.772255
32
1.007503
13
9.804839
23
-2.772255
33
1.007503
0
3DFACE
8
0
62
1
10
9.804839
20
-2.772255
30
1.007503
11
10.599839
21
-2.374755
31
0.662935
12
10.599839
22
-1.381005
32
0.763673
13
10.599839
23
-1.381005
33
0.763673
0
3DFACE
8
0
62
1
10
9.804839
20
-2.772255
30
1.007503
11
10.599839
21
-1.381005
31
0.763673
12
9.804839
22
-1.828193
32
1.157655
13
9.804839
23
-1.828193
33
1.157655
0
3DFACE
8
0
62
1
10
9.804839
20
-1.828193
30
1.157655
11
10.599839
21
-1.381005
31
0.763673
12
10.599839
22
-0.387255
32
0.827124
13
10.599839
23
-0.387255
33
0.827124
0
3DFACE
8
0
62
1
10
9.804839
20
-1.828193
30
1.157655
11
10.599839
21
-0.387255
31
0.827124
12
9.804839
22
-0.884130
32
1.268441
13
9.804839
23
-0.884130
33
1.268441
0
3DFACE
8
0
62
1
10
9.804839
20
-0.884130
30
1.268441
11
10.599839
21
-0.387255
31
0.827124
12
10.599839
22
0.606495
32
0.836756
13
10.599839
23
0.606495
33
0.836756
0
3DFACE
8
0
62
1
10
9.804839
20
-0.884130
30
1.268441
11
10.599839
21
0.606495
31
0.836756
12
9.804839
22
0.059932
32
1.319349
13
9.804839
23
0.059932
33
1.319349
0
3DFACE
8
0
62
1
10
9.804839
20
0.059932
30
1.319349
11
10.599839
21
0.606495
31
0.836756
12
10.599839
22
1.600245
32
0.790035
13
10.599839
23
1.600245
33
0.790035
0
3DFACE
8
0
62
1
10
9.804839
20
0.059932
30
1.319349
11
10.599839
21
1.600245
31
0.790035
12
9.804839
22
1.003995
32
1.299987
13
9.804839
23
1.003995
33
1.299987
0
3DFACE
8
0
62
1
10
9.804839
20
1.003995
30
1.299987
11
10.599839
21
1.600245
31
0.790035
12
10.599839
22
2.593995
32
0.699170
13
10.599839
23
2.593995
33
0.699170
0
3DFACE
8
0
62
1
10
9.804839
20
1.003995
30
1.299987
11
10.599839
21
2.593995
31
0.699170
12
9.804839
22
1.948057
32
1.214510
13
9.804839
23
1.948057
33
1.214510
0
3DFACE
8
0
62
1
10
9.804839
20
1.948057
30
1.214510
11
10.599839
21
2.593995
31
0.699170
12
10.599839
22
3.587744
32
0.587931
13
10.599839
23
3.587744
33
0.587931
0
3DFACE
8
0
62
1
10
9.804839
20
1.948057
30
1.214510
11
10.599839
21
3.587744
31
0.587931
12
9.804839
22
2.892120
32
1.079229
13
9.804839
23
2.892120
33
1.079229
0
3DFACE
8
0
62
1
10
9.804839
20
2.892120
30
1.079229
11
10.599839
21
3.587744
31
0.587931
12
10.599839
22
4.581494
32
0.486532
13
10.599839
23
4.581494
33
0.486532
0
3DFACE
8
0
62
1
10
9.804839
20
2.892120
30
1.079229
11
10.599839
21
4.581494
31
0.486532
12
9.804839
22
3.836182
32
0.919068
13
9.804839
23
3.836182
33
0.919068
0
3DFACE
8
0
62
1
10
9.804839
20
3.836182
30
0.919068
11
10.599839
21
4.581494
31
0.486532
12
10.599839
22
5.575244
32
0.424621
13
10.599839
23
5.575244
33
0.424621
0
3DFACE
8
0
62
1
10
9.804839
20
3.836182
30
0.919068
11
10.599839
21
5.575244
31
0.424621
12
9.804839
22
4.780244
32
0.764621
13
9.804839
23
4.780244
33
0.764621
0
3DFACE
8
0
62
1
10
9.804839
20
4.780244
30
0.764621
11
10.599839
21
5.575244
31
0.424621
12
9.274839
22
5.575244
32
0.814663
13
9.274839
23
5.575244
33
0.814663
0
3DFACE
8
0
62
1
10
9.804839
20
4.780244
30
0.764621
11
9.274839
21
5.575244
31
0.814663
12
8.579214
22
4.780244
32
1.138366
13
8.579214
23
4.780244
33
1.138366
0
3DFACE
8
0
62
1
10
8.579214
20
4.780244
30
1.138366
11
9.274839
21
5.575244
31
0.814663
12
7.949840
22
5.575244
32
1.067175
13
7.949840
23
5.575244
33
1.067175
0
3DFACE
8
0
62
1
10
8.579214
20
4.780244
30
1.138366
11
7.949840
21
5.575244
31
1.067175
12
7.353590
22
4.780244
32
1.266489
13
7.353590
23
4.780244
33
1.266489
0
3DFACE
8
0
62
1
10
7.353590
20
4.780244
30
1.266489
11
7.949840
21
5.575244
31
1.067175
12
6.624839
22
5.575244
32
1.051476
13
6.624839
23
5.575244
33
1.051476
0
3DFACE
8
0
62
1
10
7.353590
20
4.780244
30
1.266489
11
6.624839
21
5.575244
31
1.051476
12
6.127964
22
4.780244
32
1.136578
13
6.127964
23
4.780244
33
1.136578
0
3DFACE
8
0
62
1
10
6.127964
20
4.780244
30
1.136578
11
6.624839
21
5.575244
31
1.051476
12
5.299839
22
5.575244
32
0.840000
13
5.299839
23
5.575244
33
0.840000
0
3DFACE
8
0
62
1
10
6.127964
20
4.780244
30
1.136578
11
5.299839
21
5.575244
31
0.840000
12
4.902339
22
4.780244
32
0.901563
13
4.902339
23
4.780244
33
0.901563
0
3DFACE
8
0
62
1
10
4.902339
20
4.780244
30
0.901563
11
5.299839
21
5.575244
31
0.840000
12
3.974840
22
5.575244
32
0.639084
13
3.974840
23
5.575244
33
0.639084
0
3DFACE
8
0
62
1
10
4.902339
20
4.780244
30
0.901563
11
3.974840
21
5.575244
31
0.639084
12
3.676715
22
4.780244
32
0.778961
13
3.676715
23
4.780244
33
0.778961
0
3DFACE
8
0
62
1
10
3.676715
20
4.780244
30
0.778961
11
3.974840
21
5.575244
31
0.639084
12
2.649840
22
5.575244
32
0.617165
13
2.649840
23
5.575244
33
0.617165
0
3DFACE
8
0
62
1
10
3.676715
20
4.780244
30
0.778961
11
2.649840
21
5.575244
31
0.617165
12
2.451090
22
4.780244
32
0.896285
13
2.451090
23
4.780244
33
0.896285
0
3DFACE
8
0
62
1
10
2.451090
20
4.780244
30
0.896285
11
2.649840
21
5.575244
31
0.617165
12
1.324840
22
5.575244
32
0.751052
13
1.324840
23
5.575244
33
0.751052
0
3DFACE
8
0
62
1
10
2.451090
20
4.780244
30
0.896285
11
1.324840
21
5.575244
31
0.751052
12
1.225465
22
4.780244
32
1.168456
13
1.225465
23
4.780244
33
1.168456
0
3DFACE
8
0
62
1
10
1.225465
20
4.780244
30
1.168456
11
1.324840
21
5.575244
31
0.751052
12
-0.000160
22
5.575244
32
0.840000
13
-0.000160
23
5.575244
33
0.840000
0
3DFACE
8
0
62
1
10
1.225465
20
4.780244
30
1.168456
11
-0.000160
21
5.575244
31
0.840000
12
-0.000160
22
4.780244
32
1.321230
13
-0.000160
23
4.780244
33
1.321230
0
3DFACE
8
0
62
1
10
-0.000160
20
4.780244
30
1.321230
11
-0.000160
21
5.575244
31
0.840000
12
-1.325160
22
5.575244
32
0.751052
13
-1.325160
23
5.575244
33
0.751052
0
3DFACE
8
0
62
1
10
-0.000160
20
4.780244
30
1.321230
11
-1.325160
21
5.575244
31
0.751052
12
-1.225785
22
4.780244
32
1.168456
13
-1.225785
23
4.780244
33
1.168456
0
3DFACE
8
0
62
1
10
-1.225785
20
4.780244
30
1.168456
11
-1.325160
21
5.575244
31
0.751052
12
-2.650160
22
5.575244
32
0.617165
13
-2.650160
23
5.575244
33
0.617165
0
3DFACE
8
0
62
1
10
-1.225785
20
4.780244
30
1.168456
11
-2.650160
21
5.575244
31
0.617165
12
-2.451410
22
4.780244
32
0.896285
13
-2.451410
23
4.780244
33
0.896285
0
3DFACE
8
0
62
1
10
-2.451410
20
4.780244
30
0.896285
11
-2.650160
21
5.575244
31
0.617165
12
-3.975160
22
5.575244
32
0.639084
13
-3.975160
23
5.575244
33
0.639084
0
3DFACE
8
0
62
1
10
-2.451410
20
4.780244
30
0.896285
11
-3.975160
21
5.575244
31
0.639084
12
-3.677035
22
4.780244
32
0.778961
13
-3.677035
23
4.780244
33
0.778961
0
3DFACE
8
0
62
1
10
-3.677035
20
4.780244
30
0.778961
11
-3.975160
21
5.575244
31
0.639084
12
-5.300160
22
5.575244
32
0.840000
13
-5.300160
23
5.575244
33
0.840000
0
3DFACE
8
0
62
1
10
-3.677035
20
4.780244
30
0.778961
11
-5.300160
21
5.575244
31
0.840000
12
-4.902660
22
4.780244
32
0.901563
13
-4.902660
23
4.780244
33
0.901563
0
3DFACE
8
0
62
1
10
-4.902660
20
4.780244
30
0.901563
11
-5.300160
21
5.575244
31
0.840000
12
-6.625160
22
5.575244
32
1.051476
13
-6.625160
23
5.575244
33
1.051476
0
3DFACE
8
0
62
1
10
-4.902660
20
4.780244
30
0.901563
11
-6.625160
21
5.575244
31
1.051476
12
-6.128285
22
4.780244
32
1.136578
13
-6.128285
23
4.780244
33
1.136578
0
3DFACE
8
0
62
1
10
-6.128285
20
4.780244
30
1.136578
11
-6.625160
21
5.575244
31
1.051476
12
-7.950160
22
5.575244
32
1.067175
13
-7.950160
23
5.575244
33
1.067175
0
3DFACE
8
0
62
1
10
-6.128285
20
4.780244
30
1.136578
11
-7.950160
21
5.575244
31
1.067175
12
-7.353910
22
4.780244
32
1.266489
13
-7.353910
23
4.780244
33
1.266489
0
3DFACE
8
0
62
1
10
-7.353910
20
4.780244
30
1.266489
11
-7.950160
21
5.575244
31
1.067175
12
-9.275160
22
5.575244
32
0.814663
13
-9.275160
23
5.575244
33
0.814663
0
3DFACE
8
0
62
1
10
-7.353910
20
4.780244
30
1.266489
11
-9.275160
21
5.575244
31
0.814663
12
-8.579535
22
4.780244
32
1.138366
13
-8.579535
23
4.780244
33
1.138366
0
3DFACE
8
0
62
1
10
-8.579535
20
4.780244
30
1.138366
11
-9.275160
21
5.575244
31
0.814663
12
-10.600160
22
5.575244
32
0.424621
13
-10.600160
23
5.575244
33
0.424621
0
3DFACE
8
0
62
1
10
-8.579535
20
4.780244
30
1.138366
11
-10.600160
21
5.575244
31
0.424621
12
-9.805160
22
4.780244
32
0.764621
13
-9.805160
23
4.780244
33
0.764621
0
3DFACE
8
0
62
1
10
-9.805160
20
4.780244
30
0.764621
11
-10.600160
21
5.575244
31
0.424621
12
-10.600160
22
4.581494
32
0.486532
13
-10.600160
23
4.581494
33
0.486532
0
3DFACE
8
0
62
1
10
-9.805160
20
4.780244
30
0.764621
11
-10.600160
21
4.581494
31
0.486532
12
-9.805160
22
3.836182
32
0.919068
13
-9.805160
23
3.836182
33
0.919068
0
3DFACE
8
0
62
1
10
-9.805160
20
3.836182
30
0.919068
11
-10.600160
21
4.581494
31
0.486532
12
-10.600160
22
3.587744
32
0.587931
13
-10.600160
23
3.587744
33
0.587931
0
3DFACE
8
0
62
1
10
-9.805160
20
3.836182
30
0.919068
11
-10.600160
21
3.587744
31
0.587931
12
-9.805160
22
2.892120
32
1.079229
13
-9.805160
23
2.892120
33
1.079229
0
3DFACE
8
0
62
1
10
-9.805160
20
2.892120
30
1.079229
11
-10.600160
21
3.587744
31
0.587931
12
-10.600160
22
2.593995
32
0.699170
13
-10.600160
23
2.593995
33
0.699170
0
3DFACE
8
0
62
1
10
-9.805160
20
2.892120
30
1.079229
11
-10.600160
21
2.593995
31
0.699170
12
-9.805160
22
1.948057
32
1.214510
13
-9.805160
23
1.948057
33
1.214510
0
3DFACE
8
0
62
1
10
-9.805160
20
1.948057
30
1.214510
11
-10.600160
21
2.593995
31
0.699170
12
-10.600160
22
1.600245
32
0.790035
13
-10.600160
23
1.600245
33
0.790035
0
3DFACE
8
0
62
1
10
-9.805160
20
1.948057
30
1.214510
11
-10.600160
21
1.600245
31
0.790035
12
-9.805160
22
1.003995
32
1.299987
13
-9.805160
23
1.003995
33
1.299987
0
3DFACE
8
0
62
1
10
-9.805160
20
1.003995
30
1.299987
11
-10.600160
21
1.600245
31
0.790035
12
-10.600160
22
0.606495
32
0.836756
13
-10.600160
23
0.606495
33
0.836756
0
3DFACE
8
0
62
1
10
-9.805160
20
1.003995
30
1.299987
11
-10.600160
21
0.606495
31
0.836756
12
-9.805160
22
0.059932
32
1.319349
13
-9.805160
23
0.059932
33
1.319349
0
3DFACE
8
0
62
1
10
-9.805160
20
0.059932
30
1.319349
11
-10.600160
21
0.606495
31
0.836756
12
-10.600160
22
-0.387255
32
0.827124
13
-10.600160
23
-0.387255
33
0.827124
0
3DFACE
8
0
62
1
10
-9.805160
20
0.059932
30
1.319349
11
-10.600160
21
-0.387255
31
0.827124
12
-9.805160
22
-0.884130
32
1.268441
13
-9.805160
23
-0.884130
33
1.268441
0
3DFACE
8
0
62
1
10
-9.805160
20
-0.884130
30
1.268441
11
-10.600160
21
-0.387255
31
0.827124
12
-10.600160
22
-1.381005
32
0.763673
13
-10.600160
23
-1.381005
33
0.763673
0
3DFACE
8
0
62
1
10
-9.805160
20
-0.884130
30
1.268441
11
-10.600160
21
-1.381005
31
0.763673
12
-9.805160
22
-1.828193
32
1.157655
13
-9.805160
23
-1.828193
33
1.157655
0
3DFACE
8
0
62
1
10
-9.805160
20
-1.828193
30
1.157655
11
-10.600160
21
-1.381005
31
0.763673
12
-10.600160
22
-2.374755
32
0.662935
13
-10.600160
23
-2.374755
33
0.662935
0
3DFACE
8
0
62
1
10
-9.805160
20
-1.828193
30
1.157655
11
-10.600160
21
-2.374755
31
0.662935
12
-9.805160
22
-2.772255
32
1.007503
13
-9.805160
23
-2.772255
33
1.007503
0
3DFACE
8
0
62
1
10
-9.805160
20
-2.772255
30
1.007503
11
-10.600160
21
-2.374755
31
0.662935
12
-10.600160
22
-3.368505
32
0.551485
13
-10.600160
23
-3.368505
33
0.551485
0
3DFACE
8
0
62
1
10
-9.805160
20
-2.772255
30
1.007503
11
-10.600160
21
-3.368505
31
0.551485
12
-9.805160
22
-3.716318
32
0.845975
13
-9.805160
23
-3.716318
33
0.845975
0
3DFACE
8
0
62
1
10
-9.805160
20
-3.716318
30
0.845975
11
-10.600160
21
-3.368505
31
0.551485
12
-10.600160
22
-4.362255
32
0.460219
13
-10.600160
23
-4.362255
33
0.460219
0
3DFACE
8
0
62
1
10
-9.805160
20
-3.716318
30
0.845975
11
-10.600160
21
-4.362255
31
0.460219
12
-9.805160
22
-4.660380
32
0.704671
13
-9.805160
23
-4.660380
33
0.704671
0
3DFACE
8
0
62
1
10
-9.805160
20
-4.660380
30
0.704671
11
-10.600160
21
-4.362255
31
0.460219
12
-10.600160
22
-5.356005
32
0.416756
13
-10.600160
23
-5.356005
33
0.416756
0
3DFACE
8
0
62
1
10
-9.805160
20
-4.660380
30
0.704671
11
-10.600160
21
-5.356005
31
0.416756
12
-9.805160
22
-5.604443
32
0.612409
13
-9.805160
23
-5.604443
33
0.612409
0
3DFACE
8
0
62
1
10
-9.805160
20
-5.604443
30
0.612409
11
-10.600160
21
-5.356005
31
0.416756
12
-10.600160
22
-6.349755
32
0.437005
13
-10.600160
23
-6.349755
33
0.437005
0
3DFACE
8
0
62
1
10
-9.805160
20
-5.604443
30
0.612409
11
-10.600160
21
-6.349755
31
0.437005
12
-9.805160
22
-6.548505
32
0.587317
13
-9.805160
23
-6.548505
33
0.587317
0
3DFACE
8
0
62
1
10
-9.805160
20
-6.548505
30
0.587317
11
-10.600160
21
-6.349755
31
0.437005
12
-10.600160
22
-7.343505
32
0.518488
13
-10.600160
23
-7.343505
33
0.518488
0
3DFACE
8
0
62
1
10
-9.805160
20
-6.548505
30
0.587317
11
-10.600160
21
-7.343505
31
0.518488
12
-9.805160
22
-7.492568
32
0.630047
13
-9.805160
23
-7.492568
33
0.630047
0
3DFACE
8
0
62
1
10
-9.805160
20
-7.492568
30
0.630047
11
-10.600160
21
-7.343505
31
0.518488
12
-10.600160
22
-8.337255
32
0.638546
13
-10.600160
23
-8.337255
33
0.638546
0
3DFACE
8
0
62
1
10
-9.805160
20
-7.492568
30
0.630047
11
-10.600160
21
-8.337255
31
0.638546
12
-9.805160
22
-8.436630
32
0.721226
13
-9.805160
23
-8.436630
33
0.721226
0
3DFACE
8
0
62
1
10
-9.805160
20
-8.436630
30
0.721226
11
-10.600160
21
-8.337255
31
0.638546
12
-10.600160
22
-9.331005
32
0.759457
13
-10.600160
23
-9.331005
33
0.759457
0
3DFACE
8
0
62
1
10
-9.805160
20
-8.436630
30
0.721226
11
-10.600160
21
-9.331005
31
0.759457
12
-9.805160
22
-9.380692
32
0.825201
13
-9.805160
23
-9.380692
33
0.825201
0
3DFACE
8
0
62
1
10
-9.805160
20
-9.380692
30
0.825201
11
-10.600160
21
-9.331005
31
0.759457
12
-10.600160
22
-10.324755
32
0.840000
13
-10.600160
23
-10.324755
33
0.840000
0
3DFACE
8
0
62
1
10
-9.805160
20
-9.380692
30
0.825201
11
-10.600160
21
-10.324755
31
0.840000
12
-9.805160
22
-10.324755
32
0.899989
13
-9.805160
23
-10.324755
33
0.899989
0
3DFACE
8
0
62
1
10
10.599839
20
-10.324755
30
0.840000
11
10.599839
21
-10.324755
31
-0.750000
12
10.599839
22
-9.331005
32
-0.750000
13
10.599839
23
-9.331005
33
-0.750000
0
3DFACE
8
0
62
1
10
10.599839
20
-10.324755
30
0.840000
11
10.599839
21
-9.331005
31
-0.750000
12
10.599839
22
-9.331005
32
0.759457
13
10.599839
23
-9.331005
33
0.759457
0
3DFACE
8
0
62
1
10
10.599839
20
-9.331005
30
0.759457
11
10.599839
21
-9.331005
31
-0.750000
12
10.599839
22
-8.337255
32
-0.750000
13
10.599839
23
-8.337255
33
-0.750000
0
3DFACE
8
0
62
1
10
10.599839
20
-9.331005
30
0.759457
11
10.599839
21
-8.337255
31
-0.750000
12
10.599839
22
-8.337255
32
0.638546
13
10.599839
23
-8.337255
33
0.638546
0
3DFACE
8
0
62
1
10
10.599839
20
-8.337255
30
0.638546
11
10.599839
21
-8.337255
31
-0.750000
12
10.599839
22
-7.343505
32
-0.750000
13
10.599839
23
-7.343505
33
-0.750000
0
3DFACE
8
0
62
1
10
10.599839
20
-8.337255
30
0.638546
11
10.599839
21
-7.343505
31
-0.750000
12
10.599839
22
-7.343505
32
0.518488
13
10.599839
23
-7.343505
33
0.518488
0
3DFACE
8
0
62
1
10
10.599839
20
-7.343505
30
0.518488
11
10.599839
21
-7.343505
31
-0.750000
12
10.599839
22
-6.349755
32
-0.750000
13
10.599839
23
-6.349755
33
-0.750000
0
3DFACE
8
0
62
1
10
10.599839
20
-7.343505
30
0.518488
11
10.599839
21
-6.349755
31
-0.750000
12
10.599839
22
-6.349755
32
0.437005
13
10.599839
23
-6.349755
33
0.437005
0
3DFACE
8
0
62
1
10
10.599839
20
-6.349755
30
0.437005
11
10.599839
21
-6.349755
31
-0.750000
12
10.599839
22
-5.356005
32
-0.750000
13
10.599839
23
-5.356005
33
-0.750000
0
3DFACE
8
0
62
1
10
10.599839
20
-6.349755
30
0.437005
11
10.599839
21
-5.356005
31
-0.750000
12
10.599839
22
-5.356005
32
0.416756
13
10.599839
23
-5.356005
33
0.416756
0
3DFACE
8
0
62
1
10
10.599839
20
-5.356005
30
0.416756
11
10.599839
21
-5.356005
31
-0.750000
12
10.599839
22
-4.362255
32
-0.750000
13
10.599839
23
-4.362255
33
-0.750000
0
3DFACE
8
0
62
1
10
10.599839
20
-5.356005
30
0.416756
11
10.599839
21
-4.362255
31
-0.750000
12
10.599839
22
-4.362255
32
0.460219
13
10.599839
23
-4.362255
33
0.460219
0
3DFACE
8
0
62
1
10
10.599839
20
-4.362255
30
0.460219
11
10.599839
21
-4.362255
31
-0.750000
12
10.599839
22
-3.368505
32
-0.750000
13
10.599839
23
-3.368505
33
-0.750000
0
3DFACE
8
0
62
1
10
10.599839
20
-4.362255
30
0.460219
11
10.599839
21
-3.368505
31
-0.750000
12
10.599839
22
-3.368505
32
0.551485
13
10.599839
23
-3.368505
33
0.551485
0
3DFACE
8
0
62
1
10
10.599839
20
-3.368505
30
0.551485
11
10.599839
21
-3.368505
31
-0.750000
12
10.599839
22
-2.374755
32
-0.750000
13
10.599839
23
-2.374755
33
-0.750000
0
3DFACE
8
0
62
1
10
10.599839
20
-3.368505
30
0.551485
11
10.599839
21
-2.374755
31
-0.750000
12
10.599839
22
-2.374755
32
0.662935
13
10.599839
23
-2.374755
33
0.662935
0
3DFACE
8
0
62
1
10
10.599839
20
-2.374755
30
0.662935
11
10.599839
21
-2.374755
31
-0.750000
12
10.599839
22
-1.381005
32
-0.750000
13
10.599839
23
-1.381005
33
-0.750000
0
3DFACE
8
0
62
1
10
10.599839
20
-2.374755
30
0.662935
11
10.599839
21
-1.381005
31
-0.750000
12
10.599839
22
-1.381005
32
0.763673
13
10.599839
23
-1.381005
33
0.763673
0
3DFACE
8
0
62
1
10
10.599839
20
-1.381005
30
0.763673
11
10.599839
21
-1.381005
31
-0.750000
12
10.599839
22
-0.387255
32
-0.750000
13
10.599839
23
-0.387255
33
-0.750000
0
3DFACE
8
0
62
1
10
10.599839
20
-1.381005
30
0.763673
11
10.599839
21
-0.387255
31
-0.750000
12
10.599839
22
-0.387255
32
0.827124
13
10.599839
23
-0.387255
33
0.827124
0
3DFACE
8
0
62
1
10
10.599839
20
-0.387255
30
0.827124
11
10.599839
21
-0.387255
31
-0.750000
12
10.599839
22
0.606495
32
-0.750000
13
10.599839
23
0.606495
33
-0.750000
0
3DFACE
8
0
62
1
10
10.599839
20
-0.387255
30
0.827124
11
10.599839
21
0.606495
31
-0.750000
12
10.599839
22
0.606495
32
0.836756
13
10.599839
23
0.606495
33
0.836756
0
3DFACE
8
0
62
1
10
10.599839
20
0.606495
30
0.836756
11
10.599839
21
0.606495
31
-0.750000
12
10.599839
22
1.600245
32
-0.750000
13
10.599839
23
1.600245
33
-0.750000
0
3DFACE
8
0
62
1
10
10.599839
20
0.606495
30
0.836756
11
10.599839
21
1.600245
31
-0.750000
12
10.599839
22
1.600245
32
0.790035
13
10.599839
23
1.600245
33
0.790035
0
3DFACE
8
0
62
1
10
10.599839
20
1.600245
30
0.790035
11
10.599839
21
1.600245
31
-0.750000
12
10.599839
22
2.593995
32
-0.750000
13
10.599839
23
2.593995
33
-0.750000
0
3DFACE
8
0
62
1
10
10.599839
20
1.600245
30
0.790035
11
10.599839
21
2.593995
31
-0.750000
12
10.599839
22
2.593995
32
0.699170
13
10.599839
23
2.593995
33
0.699170
0
3DFACE
8
0
62
1
10
10.599839
20
2.593995
30
0.699170
11
10.599839
21
2.593995
31
-0.750000
12
10.599839
22
3.587744
32
-0.750000
13
10.599839
23
3.587744
33
-0.750000
0
3DFACE
8
0
62
1
10
10.599839
20
2.593995
30
0.699170
11
10.599839
21
3.587744
31
-0.750000
12
10.599839
22
3.587744
32
0.587931
13
10.599839
23
3.587744
33
0.587931
0
3DFACE
8
0
62
1
10
10.599839
20
3.587744
30
0.587931
11
10.599839
21
3.587744
31
-0.750000
12
10.599839
22
4.581494
32
-0.750000
13
10.599839
23
4.581494
33
-0.750000
0
3DFACE
8
0
62
1
10
10.599839
20
3.587744
30
0.587931
11
10.599839
21
4.581494
31
-0.750000
12
10.599839
22
4.581494
32
0.486532
13
10.599839
23
4.581494
33
0.486532
0
3DFACE
8
0
62
1
10
10.599839
20
4.581494
30
0.486532
11
10.599839
21
4.581494
31
-0.750000
12
10.599839
22
5.575244
32
-0.750000
13
10.599839
23
5.575244
33
-0.750000
0
3DFACE
8
0
62
1
10
10.599839
20
4.581494
30
0.486532
11
10.599839
21
5.575244
31
-0.750000
12
10.599839
22
5.575244
32
0.424621
13
10.599839
23
5.575244
33
0.424621
0
3DFACE
8
0
62
1
10
10.599839
20
5.575244
30
0.424621
11
10.599839
21
5.575244
31
-0.750000
12
9.274839
22
5.575244
32
-0.750000
13
9.274839
23
5.575244
33
-0.750000
0
3DFACE
8
0
62
1
10
10.599839
20
5.575244
30
0.424621
11
9.274839
21
5.575244
31
-0.750000
12
9.274839
22
5.575244
32
0.814663
13
9.274839
23
5.575244
33
0.814663
0
3DFACE
8
0
62
1
10
9.274839
20
5.575244
30
0.814663
11
9.274839
21
5.575244
31
-0.750000
12
7.949840
22
5.575244
32
-0.750000
13
7.949840
23
5.575244
33
-0.750000
0
3DFACE
8
0
62
1
10
9.274839
20
5.575244
30
0.814663
11
7.949840
21
5.575244
31
-0.750000
12
7.949840
22
5.575244
32
1.067175
13
7.949840
23
5.575244
33
1.067175
0
3DFACE
8
0
62
1
10
7.949840
20
5.575244
30
1.067175
11
7.949840
21
5.575244
31
-0.750000
12
6.624839
22
5.575244
32
-0.750000
13
6.624839
23
5.575244
33
-0.750000
0
3DFACE
8
0
62
1
10
7.949840
20
5.575244
30
1.067175
11
6.624839
21
5.575244
31
-0.750000
12
6.624839
22
5.575244
32
1.051476
13
6.624839
23
5.575244
33
1.051476
0
3DFACE
8
0
62
1
10
6.624839
20
5.575244
30
1.051476
11
6.624839
21
5.575244
31
-0.750000
12
5.299839
22
5.575244
32
-0.750000
13
5.299839
23
5.575244
33
-0.750000
0
3DFACE
8
0
62
1
10
6.624839
20
5.575244
30
1.051476
11
5.299839
21
5.575244
31
-0.750000
12
5.299839
22
5.575244
32
0.840000
13
5.299839
23
5.575244
33
0.840000
0
3DFACE
8
0
62
1
10
5.299839
20
5.575244
30
0.840000
11
5.299839
21
5.575244
31
-0.750000
12
3.974840
22
5.575244
32
-0.750000
13
3.974840
23
5.575244
33
-0.750000
0
3DFACE
8
0
62
1
10
5.299839
20
5.575244
30
0.840000
11
3.974840
21
5.575244
31
-0.750000
12
3.974840
22
5.575244
32
0.639084
13
3.974840
23
5.575244
33
0.639084
0
3DFACE
8
0
62
1
10
3.974840
20
5.575244
30
0.639084
11
3.974840
21
5.575244
31
-0.750000
12
2.649840
22
5.575244
32
-0.750000
13
2.649840
23
5.575244
33
-0.750000
0
3DFACE
8
0
62
1
10
3.974840
20
5.575244
30
0.639084
11
2.649840
21
5.575244
31
-0.750000
12
2.649840
22
5.575244
32
0.617165
13
2.649840
23
5.575244
33
0.617165
0
3DFACE
8
0
62
1
10
2.649840
20
5.575244
30
0.617165
11
2.649840
21
5.575244
31
-0.750000
12
1.324840
22
5.575244
32
-0.750000
13
1.324840
23
5.575244
33
-0.750000
0
3DFACE
8
0
62
1
10
2.649840
20
5.575244
30
0.617165
11
1.324840
21
5.575244
31
-0.750000
12
1.324840
22
5.575244
32
0.751052
13
1.324840
23
5.575244
33
0.751052
0
3DFACE
8
0
62
1
10
1.324840
20
5.575244
30
0.751052
11
1.324840
21
5.575244
31
-0.750000
12
-0.000160
22
5.575244
32
-0.750000
13
-0.000160
23
5.575244
33
-0.750000
0
3DFACE
8
0
62
1
10
1.324840
20
5.575244
30
0.751052
11
-0.000160
21
5.575244
31
-0.750000
12
-0.000160
22
5.575244
32
0.840000
13
-0.000160
23
5.575244
33
0.840000
0
3DFACE
8
0
62
1
10
-0.000160
20
5.575244
30
0.840000
11
-0.000160
21
5.575244
31
-0.750000
12
-1.325160
22
5.575244
32
-0.750000
13
-1.325160
23
5.575244
33
-0.750000
0
3DFACE
8
0
62
1
10
-0.000160
20
5.575244
30
0.840000
11
-1.325160
21
5.575244
31
-0.750000
12
-1.325160
22
5.575244
32
0.751052
13
-1.325160
23
5.575244
33
0.751052
0
3DFACE
8
0
62
1
10
-1.325160
20
5.575244
30
0.751052
11
-1.325160
21
5.575244
31
-0.750000
12
-2.650160
22
5.575244
32
-0.750000
13
-2.650160
23
5.575244
33
-0.750000
0
3DFACE
8
0
62
1
10
-1.325160
20
5.575244
30
0.751052
11
-2.650160
21
5.575244
31
-0.750000
12
-2.650160
22
5.575244
32
0.617165
13
-2.650160
23
5.575244
33
0.617165
0
3DFACE
8
0
62
1
10
-2.650160
20
5.575244
30
0.617165
11
-2.650160
21
5.575244
31
-0.750000
12
-3.975160
22
5.575244
32
-0.750000
13
-3.975160
23
5.575244
33
-0.750000
0
3DFACE
8
0
62
1
10
-2.650160
20
5.575244
30
0.617165
11
-3.975160
21
5.575244
31
-0.750000
12
-3.975160
22
5.575244
32
0.639084
13
-3.975160
23
5.575244
33
0.639084
0
3DFACE
8
0
62
1
10
-3.975160
20
5.575244
30
0.639084
11
-3.975160
21
5.575244
31
-0.750000
12
-5.300160
22
5.575244
32
-0.750000
13
-5.300160
23
5.575244
33
-0.750000
0
3DFACE
8
0
62
1
10
-3.975160
20
5.575244
30
0.639084
11
-5.300160
21
5.575244
31
-0.750000
12
-5.300160
22
5.575244
32
0.840000
13
-5.300160
23
5.575244
33
0.840000
0
3DFACE
8
0
62
1
10
-5.300160
20
5.575244
30
0.840000
11
-5.300160
21
5.575244
31
-0.750000
12
-6.625160
22
5.575244
32
-0.750000
13
-6.625160
23
5.575244
33
-0.750000
0
3DFACE
8
0
62
1
10
-5.300160
20
5.575244
30
0.840000
11
-6.625160
21
5.575244
31
-0.750000
12
-6.625160
22
5.575244
32
1.051476
13
-6.625160
23
5.575244
33
1.051476
0
3DFACE
8
0
62
1
10
-6.625160
20
5.575244
30
1.051476
11
-6.625160
21
5.575244
31
-0.750000
12
-7.950160
22
5.575244
32
-0.750000
13
-7.950160
23
5.575244
33
-0.750000
0
3DFACE
8
0
62
1
10
-6.625160
20
5.575244
30
1.051476
11
-7.950160
21
5.575244
31
-0.750000
12
-7.950160
22
5.575244
32
1.067175
13
-7.950160
23
5.575244
33
1.067175
0
3DFACE
8
0
62
1
10
-7.950160
20
5.575244
30
1.067175
11
-7.950160
21
5.575244
31
-0.750000
12
-9.275160
22
5.575244
32
-0.750000
13
-9.275160
23
5.575244
33
-0.750000
0
3DFACE
8
0
62
1
10
-7.950160
20
5.575244
30
1.067175
11
-9.275160
21
5.575244
31
-0.750000
12
-9.275160
22
5.575244
32
0.814663
13
-9.275160
23
5.575244
33
0.814663
0
3DFACE
8
0
62
1
10
-9.275160
20
5.575244
30
0.814663
11
-9.275160
21
5.575244
31
-0.750000
12
-10.600160
22
5.575244
32
-0.750000
13
-10.600160
23
5.575244
33
-0.750000
0
3DFACE
8
0
62
1
10
-9.275160
20
5.575244
30
0.814663
11
-10.600160
21
5.575244
31
-0.750000
12
-10.600160
22
5.575244
32
0.424621
13
-10.600160
23
5.575244
33
0.424621
0
3DFACE
8
0
62
1
10
-10.600160
20
5.575244
30
0.424621
11
-10.600160
21
5.575244
31
-0.750000
12
-10.600160
22
4.581494
32
-0.750000
13
-10.600160
23
4.581494
33
-0.750000
0
3DFACE
8
0
62
1
10
-10.600160
20
5.575244
30
0.424621
11
-10.600160
21
4.581494
31
-0.750000
12
-10.600160
22
4.581494
32
0.486532
13
-10.600160
23
4.581494
33
0.486532
0
3DFACE
8
0
62
1
10
-10.600160
20
4.581494
30
0.486532
11
-10.600160
21
4.581494
31
-0.750000
12
-10.600160
22
3.587744
32
-0.750000
13
-10.600160
23
3.587744
33
-0.750000
0
3DFACE
8
0
62
1
10
-10.600160
20
4.581494
30
0.486532
11
-10.600160
21
3.587744
31
-0.750000
12
-10.600160
22
3.587744
32
0.587931
13
-10.600160
23
3.587744
33
0.587931
0
3DFACE
8
0
62
1
10
-10.600160
20
3.587744
30
0.587931
11
-10.600160
21
3.587744
31
-0.750000
12
-10.600160
22
2.593995
32
-0.750000
13
-10.600160
23
2.593995
33
-0.750000
0
3DFACE
8
0
62
1
10
-10.600160
20
3.587744
30
0.587931
11
-10.600160
21
2.593995
31
-0.750000
12
-10.600160
22
2.593995
32
0.699170
13
-10.600160
23
2.593995
33
0.699170
0
3DFACE
8
0
62
1
10
-10.600160
20
2.593995
30
0.699170
11
-10.600160
21
2.593995
31
-0.750000
12
-10.600160
22
1.600245
32
-0.750000
13
-10.600160
23
1.600245
33
-0.750000
0
3DFACE
8
0
62
1
10
-10.600160
20
2.593995
30
0.699170
11
-10.600160
21
1.600245
31
-0.750000
12
-10.600160
22
1.600245
32
0.790035
13
-10.600160
23
1.600245
33
0.790035
0
3DFACE
8
0
62
1
10
-10.600160
20
1.600245
30
0.790035
11
-10.600160
21
1.600245
31
-0.750000
12
-10.600160
22
0.606495
32
-0.750000
13
-10.600160
23
0.606495
33
-0.750000
0
3DFACE
8
0
62
1
10
-10.600160
20
1.600245
30
0.790035
11
-10.600160
21
0.606495
31
-0.750000
12
-10.600160
22
0.606495
32
0.836756
13
-10.600160
23
0.606495
33
0.836756
0
3DFACE
8
0
62
1
10
-10.600160
20
0.606495
30
0.836756
11
-10.600160
21
0.606495
31
-0.750000
12
-10.600160
22
-0.387255
32
-0.750000
13
-10.600160
23
-0.387255
33
-0.750000
0
3DFACE
8
0
62
1
10
-10.600160
20
0.606495
30
0.836756
11
-10.600160
21
-0.387255
31
-0.750000
12
-10.600160
22
-0.387255
32
0.827124
13
-10.600160
23
-0.387255
33
0.827124
0
3DFACE
8
0
62
1
10
-10.600160
20
-0.387255
30
0.827124
11
-10.600160
21
-0.387255
31
-0.750000
12
-10.600160
22
-1.381005
32
-0.750000
13
-10.600160
23
-1.381005
33
-0.750000
0
3DFACE
8
0
62
1
10
-10.600160
20
-0.387255
30
0.827124
11
-10.600160
21
-1.381005
31
-0.750000
12
-10.600160
22
-1.381005
32
0.763673
13
-10.600160
23
-1.381005
33
0.763673
0
3DFACE
8
0
62
1
10
-10.600160
20
-1.381005
30
0.763673
11
-10.600160
21
-1.381005
31
-0.750000
12
-10.600160
22
-2.374755
32
-0.750000
13
-10.600160
23
-2.374755
33
-0.750000
0
3DFACE
8
0
62
1
10
-10.600160
20
-1.381005
30
0.763673
11
-10.600160
21
-2.374755
31
-0.750000
12
-10.600160
22
-2.374755
32
0.662935
13
-10.600160
23
-2.374755
33
0.662935
0
3DFACE
8
0
62
1
10
-10.600160
20
-2.374755
30
0.662935
11
-10.600160
21
-2.374755
31
-0.750000
12
-10.600160
22
-3.368505
32
-0.750000
13
-10.600160
23
-3.368505
33
-0.750000
0
3DFACE
8
0
62
1
10
-10.600160
20
-2.374755
30
0.662935
11
-10.600160
21
-3.368505
31
-0.750000
12
-10.600160
22
-3.368505
32
0.551485
13
-10.600160
23
-3.368505
33
0.551485
0
3DFACE
8
0
62
1
10
-10.600160
20
-3.368505
30
0.551485
11
-10.600160
21
-3.368505
31
-0.750000
12
-10.600160
22
-4.362255
32
-0.750000
13
-10.600160
23
-4.362255
33
-0.750000
0
3DFACE
8
0
62
1
10
-10.600160
20
-3.368505
30
0.551485
11
-10.600160
21
-4.362255
31
-0.750000
12
-10.600160
22
-4.362255
32
0.460219
13
-10.600160
23
-4.362255
33
0.460219
0
3DFACE
8
0
62
1
10
-10.600160
20
-4.362255
30
0.460219
11
-10.600160
21
-4.362255
31
-0.750000
12
-10.600160
22
-5.356005
32
-0.750000
13
-10.600160
23
-5.356005
33
-0.750000
0
3DFACE
8
0
62
1
10
-10.600160
20
-4.362255
30
0.460219
11
-10.600160
21
-5.356005
31
-0.750000
12
-10.600160
22
-5.356005
32
0.416756
13
-10.600160
23
-5.356005
33
0.416756
0
3DFACE
8
0
62
1
10
-10.600160
20
-5.356005
30
0.416756
11
-10.600160
21
-5.356005
31
-0.750000
12
-10.600160
22
-6.349755
32
-0.750000
13
-10.600160
23
-6.349755
33
-0.750000
0
3DFACE
8
0
62
1
10
-10.600160
20
-5.356005
30
0.416756
11
-10.600160
21
-6.349755
31
-0.750000
12
-10.600160
22
-6.349755
32
0.437005
13
-10.600160
23
-6.349755
33
0.437005
0
3DFACE
8
0
62
1
10
-10.600160
20
-6.349755
30
0.437005
11
-10.600160
21
-6.349755
31
-0.750000
12
-10.600160
22
-7.343505
32
-0.750000
13
-10.600160
23
-7.343505
33
-0.750000
0
3DFACE
8
0
62
1
10
-10.600160
20
-6.349755
30
0.437005
11
-10.600160
21
-7.343505
31
-0.750000
12
-10.600160
22
-7.343505
32
0.518488
13
-10.600160
23
-7.343505
33
0.518488
0
3DFACE
8
0
62
1
10
-10.600160
20
-7.343505
30
0.518488
11
-10.600160
21
-7.343505
31
-0.750000
12
-10.600160
22
-8.337255
32
-0.750000
13
-10.600160
23
-8.337255
33
-0.750000
0
3DFACE
8
0
62
1
10
-10.600160
20
-7.343505
30
0.518488
11
-10.600160
21
-8.337255
31
-0.750000
12
-10.600160
22
-8.337255
32
0.638546
13
-10.600160
23
-8.337255
33
0.638546
0
3DFACE
8
0
62
1
10
-10.600160
20
-8.337255
30
0.638546
11
-10.600160
21
-8.337255
31
-0.750000
12
-10.600160
22
-9.331005
32
-0.750000
13
-10.600160
23
-9.331005
33
-0.750000
0
3DFACE
8
0
62
1
10
-10.600160
20
-8.337255
30
0.638546
11
-10.600160
21
-9.331005
31
-0.750000
12
-10.600160
22
-9.331005
32
0.759457
13
-10.600160
23
-9.331005
33
0.759457
0
3DFACE
8
0
62
1
10
-10.600160
20
-9.331005
30
0.759457
11
-10.600160
21
-9.331005
31
-0.750000
12
-10.600160
22
-10.324755
32
-0.750000
13
-10.600160
23
-10.324755
33
-0.750000
0
3DFACE
8
0
62
1
10
-10.600160
20
-9.331005
30
0.759457
11
-10.600160
21
-10.324755
31
-0.750000
12
-10.600160
22
-10.324755
32
0.840000
13
-10.600160
23
-10.324755
33
0.840000
0
3DFACE
8
0
62
1
10
-9.960259
20
-10.724777
30
0.317190
11
-9.960259
21
-10.724777
31
-0.141023
12
-9.687166
22
-10.718307
32
-0.141023
13
-9.687166
23
-10.718307
33
-0.141023
0
3DFACE
8
0
62
1
10
-9.960259
20
-10.724777
30
0.317190
11
-9.687166
21
-10.718307
31
-0.141023
12
-9.686917
22
-10.718232
32
0.334478
13
-9.686917
23
-10.718232
33
0.334478
0
3DFACE
8
0
62
1
10
-9.275160
20
-9.794755
30
0.326342
11
-9.275160
21
-9.794755
31
-0.220000
12
-9.275160
22
-9.380692
32
-0.220000
13
-9.275160
23
-9.380692
33
-0.220000
0
3DFACE
8
0
62
1
10
-9.275160
20
-9.794755
30
0.326342
11
-9.275160
21
-9.380692
31
-0.220000
12
-9.275160
22
-9.430642
32
0.297498
13
-9.275160
23
-9.430642
33
0.297498
0
3DFACE
8
0
62
1
10
-9.275160
20
-9.430642
30
0.297498
11
-9.275160
21
-9.380692
31
-0.220000
12
-9.275160
22
-8.436630
32
-0.220000
13
-9.275160
23
-8.436630
33
-0.220000
0
3DFACE
8
0
62
1
10
-9.275160
20
-9.430642
30
0.297498
11
-9.275160
21
-8.436630
31
-0.220000
12
-9.275160
22
-8.491118
32
0.194022
13
-9.275160
23
-8.491118
33
0.194022
0
3DFACE
8
0
62
1
10
-9.275160
20
-8.491118
30
0.194022
11
-9.275160
21
-8.436630
31
-0.220000
12
-9.275160
22
-7.492568
32
-0.220000
13
-9.275160
23
-7.492568
33
-0.220000
0
3DFACE
8
0
62
1
10
-9.275160
20
-8.491118
30
0.194022
11
-9.275160
21
-7.492568
31
-0.220000
12
-9.275160
22
-7.530049
32
0.101201
13
-9.275160
23
-7.530049
33
0.101201
0
3DFACE
8
0
62
1
10
-9.275160
20
-7.530049
30
0.101201
11
-9.275160
21
-7.492568
31
-0.220000
12
-9.275160
22
-6.550979
32
0.016722
13
-9.275160
23
-6.550979
33
0.016722
0
3DFACE
8
0
62
1
10
-9.275160
20
-4.627858
30
0.143844
11
-9.275160
21
-3.716318
31
-0.220000
12
-9.275160
22
-3.632390
32
0.322633
13
-9.275160
23
-3.632390
33
0.322633
0
3DFACE
8
0
62
1
10
-9.275160
20
-3.632390
30
0.322633
11
-9.275160
21
-3.716318
31
-0.220000
12
-9.275160
22
-2.772255
32
-0.220000
13
-9.275160
23
-2.772255
33
-0.220000
0
3DFACE
8
0
62
1
10
-9.275160
20
-3.632390
30
0.322633
11
-9.275160
21
-2.772255
31
-0.220000
12
-9.275160
22
-2.685936
32
0.484570
13
-9.275160
23
-2.685936
33
0.484570
0
3DFACE
8
0
62
1
10
-9.275160
20
-2.685936
30
0.484570
11
-9.275160
21
-2.772255
31
-0.220000
12
-9.275160
22
-1.828193
32
-0.220000
13
-9.275160
23
-1.828193
33
-0.220000
0
3DFACE
8
0
62
1
10
-9.275160
20
-2.685936
30
0.484570
11
-9.275160
21
-1.828193
31
-0.220000
12
-9.275160
22
-1.755652
32
0.632531
13
-9.275160
23
-1.755652
33
0.632531
0
3DFACE
8
0
62
1
10
-9.275160
20
-1.755652
30
0.632531
11
-9.275160
21
-1.828193
31
-0.220000
12
-9.275160
22
-0.884130
32
-0.220000
13
-9.275160
23
-0.884130
33
-0.220000
0
3DFACE
8
0
62
1
10
-9.275160
20
-1.755652
30
0.632531
11
-9.275160
21
-0.884130
31
-0.220000
12
-9.275160
22
-0.838930
32
0.740108
13
-9.275160
23
-0.838930
33
0.740108
0
3DFACE
8
0
62
1
10
-9.275160
20
-0.838930
30
0.740108
11
-9.275160
21
-0.884130
31
-0.220000
12
-9.275160
22
0.059932
32
-0.220000
13
-9.275160
23
0.059932
33
-0.220000
0
3DFACE
8
0
62
1
10
-9.275160
20
-0.838930
30
0.740108
11
-9.275160
21
0.059932
31
-0.220000
12
-9.275160
22
0.068780
32
0.789056
13
-9.275160
23
0.068780
33
0.789056
0
3DFACE
8
0
62
1
10
-9.275160
20
0.068780
30
0.789056
11
-9.275160
21
0.059932
31
-0.220000
12
-9.275160
22
1.003995
32
-0.220000
13
-9.275160
23
1.003995
33
-0.220000
0
3DFACE
8
0
62
1
10
-9.275160
20
0.068780
30
0.789056
11
-9.275160
21
1.003995
31
-0.220000
12
-9.275160
22
0.974629
32
0.770478
13
-9.275160
23
0.974629
33
0.770478
0
3DFACE
8
0
62
1
10
-9.275160
20
0.974629
30
0.770478
11
-9.275160
21
1.003995
31
-0.220000
12
-9.275160
22
1.948057
32
-0.220000
13
-9.275160
23
1.948057
33
-0.220000
0
3DFACE
8
0
62
1
10
-9.275160
20
0.974629
30
0.770478
11
-9.275160
21
1.948057
31
-0.220000
12
-9.275081
22
1.886530
32
0.687913
13
-9.275081
23
1.886530
33
0.687913
0
3DFACE
8
0
62
1
10
-9.275081
20
1.886530
30
0.687913
11
-9.275160
21
1.948057
31
-0.220000
12
-9.275225
22
2.892120
32
-0.220000
13
-9.275225
23
2.892120
33
-0.220000
0
3DFACE
8
0
62
1
10
-9.275081
20
1.886530
30
0.687913
11
-9.275225
21
2.892120
31
-0.220000
12
-9.276938
22
2.810206
32
0.555552
13
-9.276938
23
2.810206
33
0.555552
0
3DFACE
8
0
62
1
10
-9.276938
20
2.810206
30
0.555552
11
-9.275225
21
2.892120
31
-0.220000
12
-9.276300
22
3.835887
32
-0.220001
13
-9.276300
23
3.835887
33
-0.220001
0
3DFACE
8
0
62
1
10
-9.276938
20
2.810206
30
0.555552
11
-9.276300
21
3.835887
31
-0.220001
12
-9.268585
22
3.724154
32
0.400486
13
-9.268585
23
3.724154
33
0.400486
0
3DFACE
8
0
62
1
10
-9.268585
20
3.724154
30
0.400486
11
-9.276300
21
3.835887
31
-0.220001
12
-9.433150
22
4.395967
32
-0.220024
13
-9.433150
23
4.395967
33
-0.220024
0
3DFACE
8
0
62
1
10
-9.268585
20
3.724154
30
0.400486
11
-9.433150
21
4.395967
31
-0.220024
12
-9.328362
22
4.306393
32
0.242543
13
-9.328362
23
4.306393
33
0.242543
0
3DFACE
8
0
62
1
10
-9.328362
20
4.306393
30
0.242543
11
-9.433150
21
4.395967
31
-0.220024
12
-8.581215
22
4.240261
32
-0.220035
13
-8.581215
23
4.240261
33
-0.220035
0
3DFACE
8
0
62
1
10
-9.328362
20
4.306393
30
0.242543
11
-8.581215
21
4.240261
31
-0.220035
12
-8.446089
22
4.235693
32
0.619422
13
-8.446089
23
4.235693
33
0.619422
0
3DFACE
8
0
62
1
10
-8.446089
20
4.235693
30
0.619422
11
-8.581215
21
4.240261
31
-0.220035
12
-7.353910
22
4.249505
32
-0.220000
13
-7.353910
23
4.249505
33
-0.220000
0
3DFACE
8
0
62
1
10
-8.446089
20
4.235693
30
0.619422
11
-7.353910
21
4.249505
31
-0.220000
12
-7.354294
22
4.250357
32
0.733561
13
-7.354294
23
4.250357
33
0.733561
0
3DFACE
8
0
62
1
10
-7.354294
20
4.250357
30
0.733561
11
-7.353910
21
4.249505
31
-0.220000
12
-6.128285
22
4.250272
32
-0.220000
13
-6.128285
23
4.250272
33
-0.220000
0
3DFACE
8
0
62
1
10
-7.354294
20
4.250357
30
0.733561
11
-6.128285
21
4.250272
31
-0.220000
12
-6.206259
22
4.250246
32
0.611874
13
-6.206259
23
4.250246
33
0.611874
0
3DFACE
8
0
62
1
10
-6.206259
20
4.250246
30
0.611874
11
-6.128285
21
4.250272
31
-0.220000
12
-4.902660
22
4.250245
32
-0.220000
13
-4.902660
23
4.250245
33
-0.220000
0
3DFACE
8
0
62
1
10
-6.206259
20
4.250246
30
0.611874
11
-4.902660
21
4.250245
31
-0.220000
12
-4.979096
22
4.250245
32
0.376564
13
-4.979096
23
4.250245
33
0.376564
0
3DFACE
8
0
62
1
10
-4.979096
20
4.250245
30
0.376564
11
-4.902660
21
4.250245
31
-0.220000
12
-3.677035
22
4.250245
32
-0.220000
13
-3.677035
23
4.250245
33
-0.220000
0
3DFACE
8
0
62
1
10
-4.979096
20
4.250245
30
0.376564
11
-3.677035
21
4.250245
31
-0.220000
12
-3.678171
22
4.250245
32
0.246429
13
-3.678171
23
4.250245
33
0.246429
0
3DFACE
8
0
62
1
10
-3.678171
20
4.250245
30
0.246429
11
-3.677035
21
4.250245
31
-0.220000
12
-2.451410
22
4.250245
32
-0.220000
13
-2.451410
23
4.250245
33
-0.220000
0
3DFACE
8
0
62
1
10
-3.678171
20
4.250245
30
0.246429
11
-2.451410
21
4.250245
31
-0.220000
12
-2.368395
22
4.250245
32
0.371809
13
-2.368395
23
4.250245
33
0.371809
0
3DFACE
8
0
62
1
10
-2.368395
20
4.250245
30
0.371809
11
-2.451410
21
4.250245
31
-0.220000
12
-1.225785
22
4.250245
32
-0.220000
13
-1.225785
23
4.250245
33
-0.220000
0
3DFACE
8
0
62
1
10
-2.368395
20
4.250245
30
0.371809
11
-1.225785
21
4.250245
31
-0.220000
12
-1.135357
22
4.250245
32
0.645626
13
-1.135357
23
4.250245
33
0.645626
0
3DFACE
8
0
62
1
10
-1.135357
20
4.250245
30
0.645626
11
-1.225785
21
4.250245
31
-0.220000
12
-0.000160
22
4.250245
32
-0.220000
13
-0.000160
23
4.250245
33
-0.220000
0
3DFACE
8
0
62
1
10
-1.135357
20
4.250245
30
0.645626
11
-0.000160
21
4.250245
31
-0.220000
12
-0.000160
22
4.250245
32
0.787128
13
-0.000160
23
4.250245
33
0.787128
0
3DFACE
8
0
62
1
10
-0.000160
20
4.250245
30
0.787128
11
-0.000160
21
4.250245
31
-0.220000
12
1.225465
22
4.250245
32
-0.220000
13
1.225465
23
4.250245
33
-0.220000
0
3DFACE
8
0
62
1
10
-0.000160
20
4.250245
30
0.787128
11
1.225465
21
4.250245
31
-0.220000
12
1.135036
22
4.250245
32
0.645626
13
1.135036
23
4.250245
33
0.645626
0
3DFACE
8
0
62
1
10
1.135036
20
4.250245
30
0.645626
11
1.225465
21
4.250245
31
-0.220000
12
2.451090
22
4.250245
32
-0.220000
13
2.451090
23
4.250245
33
-0.220000
0
3DFACE
8
0
62
1
10
1.135036
20
4.250245
30
0.645626
11
2.451090
21
4.250245
31
-0.220000
12
2.368075
22
4.250245
32
0.371809
13
2.368075
23
4.250245
33
0.371809
0
3DFACE
8
0
62
1
10
2.368075
20
4.250245
30
0.371809
11
2.451090
21
4.250245
31
-0.220000
12
3.676715
22
4.250245
32
-0.220000
13
3.676715
23
4.250245
33
-0.220000
0
3DFACE
8
0
62
1
10
2.368075
20
4.250245
30
0.371809
11
3.676715
21
4.250245
31
-0.220000
12
3.677850
22
4.250245
32
0.246429
13
3.677850
23
4.250245
33
0.246429
0
3DFACE
8
0
62
1
10
3.677850
20
4.250245
30
0.246429
11
3.676715
21
4.250245
31
-0.220000
12
4.902339
22
4.250245
32
-0.220000
13
4.902339
23
4.250245
33
-0.220000
0
3DFACE
8
0
62
1
10
3.677850
20
4.250245
30
0.246429
11
4.902339
21
4.250245
31
-0.220000
12
4.978776
22
4.250245
32
0.376564
13
4.978776
23
4.250245
33
0.376564
0
3DFACE
8
0
62
1
10
4.978776
20
4.250245
30
0.376564
11
4.902339
21
4.250245
31
-0.220000
12
6.127964
22
4.250245
32
-0.220000
13
6.127964
23
4.250245
33
-0.220000
0
3DFACE
8
0
62
1
10
4.978776
20
4.250245
30
0.376564
11
6.127964
21
4.250245
31
-0.220000
12
6.205939
22
4.250221
32
0.611874
13
6.205939
23
4.250221
33
0.611874
0
3DFACE
8
0
62
1
10
6.205939
20
4.250221
30
0.611874
11
6.127964
21
4.250245
31
-0.220000
12
7.353590
22
4.250271
32
-0.220000
13
7.353590
23
4.250271
33
-0.220000
0
3DFACE
8
0
62
1
10
6.205939
20
4.250221
30
0.611874
11
7.353590
21
4.250271
31
-0.220000
12
7.353977
22
4.251061
32
0.733561
13
7.353977
23
4.251061
33
0.733561
0
3DFACE
8
0
62
1
10
7.353977
20
4.251061
30
0.733561
11
7.353590
21
4.250271
31
-0.220000
12
8.579029
22
4.251287
32
-0.220000
13
8.579029
23
4.251287
33
-0.220000
0
3DFACE
8
0
62
1
10
7.353977
20
4.251061
30
0.733561
11
8.579029
21
4.251287
31
-0.220000
12
8.444234
22
4.248206
32
0.619593
13
8.444234
23
4.248206
33
0.619593
0
3DFACE
8
0
62
1
10
8.444234
20
4.248206
30
0.619593
11
8.579029
21
4.251287
31
-0.220000
12
9.424293
22
4.408022
32
-0.220018
13
9.424293
23
4.408022
33
-0.220018
0
3DFACE
8
0
62
1
10
8.444234
20
4.248206
30
0.619593
11
9.424293
21
4.408022
31
-0.220018
12
9.318839
22
4.319809
32
0.242503
13
9.318839
23
4.319809
33
0.242503
0
3DFACE
8
0
62
1
10
9.318839
20
4.319809
30
0.242503
11
9.424293
21
4.408022
31
-0.220018
12
9.267800
22
3.837710
32
-0.220052
13
9.267800
23
3.837710
33
-0.220052
0
3DFACE
8
0
62
1
10
9.318839
20
4.319809
30
0.242503
11
9.267800
21
3.837710
31
-0.220052
12
9.259467
22
3.725445
32
0.400265
13
9.259467
23
3.725445
33
0.400265
0
3DFACE
8
0
62
1
10
9.259467
20
3.725445
30
0.400265
11
9.267800
21
3.837710
31
-0.220052
12
9.273454
22
2.892120
32
-0.220000
13
9.273454
23
2.892120
33
-0.220000
0
3DFACE
8
0
62
1
10
9.259467
20
3.725445
30
0.400265
11
9.273454
21
2.892120
31
-0.220000
12
9.275149
22
2.810195
32
0.555555
13
9.275149
23
2.810195
33
0.555555
0
3DFACE
8
0
62
1
10
9.275149
20
2.810195
30
0.555555
11
9.273454
21
2.892120
31
-0.220000
12
9.274897
22
1.948057
32
-0.220000
13
9.274897
23
1.948057
33
-0.220000
0
3DFACE
8
0
62
1
10
9.275149
20
2.810195
30
0.555555
11
9.274897
21
1.948057
31
-0.220000
12
9.274837
22
1.886530
32
0.687913
13
9.274837
23
1.886530
33
0.687913
0
3DFACE
8
0
62
1
10
9.274837
20
1.886530
30
0.687913
11
9.274897
21
1.948057
31
-0.220000
12
9.274838
22
1.003995
32
-0.220000
13
9.274838
23
1.003995
33
-0.220000
0
3DFACE
8
0
62
1
10
9.274837
20
1.886530
30
0.687913
11
9.274838
21
1.003995
31
-0.220000
12
9.274839
22
0.974629
32
0.770478
13
9.274839
23
0.974629
33
0.770478
0
3DFACE
8
0
62
1
10
9.274839
20
0.974629
30
0.770478
11
9.274838
21
1.003995
31
-0.220000
12
9.274839
22
0.059932
32
-0.220000
13
9.274839
23
0.059932
33
-0.220000
0
3DFACE
8
0
62
1
10
9.274839
20
0.974629
30
0.770478
11
9.274839
21
0.059932
31
-0.220000
12
9.274839
22
0.068780
32
0.789056
13
9.274839
23
0.068780
33
0.789056
0
3DFACE
8
0
62
1
10
9.274839
20
0.068780
30
0.789056
11
9.274839
21
0.059932
31
-0.220000
12
9.274839
22
-0.884130
32
-0.220000
13
9.274839
23
-0.884130
33
-0.220000
0
3DFACE
8
0
62
1
10
9.274839
20
0.068780
30
0.789056
11
9.274839
21
-0.884130
31
-0.220000
12
9.274839
22
-0.838930
32
0.740108
13
9.274839
23
-0.838930
33
0.740108
0
3DFACE
8
0
62
1
10
9.274839
20
-0.838930
30
0.740108
11
9.274839
21
-0.884130
31
-0.220000
12
9.274839
22
-1.828193
32
-0.220000
13
9.274839
23
-1.828193
33
-0.220000
0
3DFACE
8
0
62
1
10
9.274839
20
-0.838930
30
0.740108
11
9.274839
21
-1.828193
31
-0.220000
12
9.274839
22
-1.755652
32
0.632531
13
9.274839
23
-1.755652
33
0.632531
0
3DFACE
8
0
62
1
10
9.274839
20
-1.755652
30
0.632531
11
9.274839
21
-1.828193
31
-0.220000
12
9.274839
22
-2.772255
32
-0.220000
13
9.274839
23
-2.772255
33
-0.220000
0
3DFACE
8
0
62
1
10
9.274839
20
-1.755652
30
0.632531
11
9.274839
21
-2.772255
31
-0.220000
12
9.274839
22
-2.685936
32
0.484570
13
9.274839
23
-2.685936
33
0.484570
0
3DFACE
8
0
62
1
10
9.274839
20
-2.685936
30
0.484570
11
9.274839
21
-2.772255
31
-0.220000
12
9.274839
22
-3.716318
32
-0.220000
13
9.274839
23
-3.716318
33
-0.220000
0
3DFACE
8
0
62
1
10
9.274839
20
-2.685936
30
0.484570
11
9.274839
21
-3.716318
31
-0.220000
12
9.274839
22
-3.632390
32
0.322633
13
9.274839
23
-3.632390
33
0.322633
0
3DFACE
8
0
62
1
10
9.274839
20
-3.632390
30
0.322633
11
9.274839
21
-3.716318
31
-0.220000
12
9.274839
22
-4.660380
32
-0.220000
13
9.274839
23
-4.660380
33
-0.220000
0
3DFACE
8
0
62
1
10
9.274839
20
-3.632390
30
0.322633
11
9.274839
21
-4.660380
31
-0.220000
12
9.274839
22
-4.595335
32
0.178502
13
9.274839
23
-4.595335
33
0.178502
0
3DFACE
8
0
62
1
10
9.274839
20
-4.595335
30
0.178502
11
9.274839
21
-4.660380
31
-0.220000
12
9.274839
22
-5.604443
32
-0.220000
13
9.274839
23
-5.604443
33
-0.220000
0
3DFACE
8
0
62
1
10
9.274839
20
-4.595335
30
0.178502
11
9.274839
21
-5.604443
31
-0.220000
12
9.274839
22
-5.571585
32
0.083095
13
9.274839
23
-5.571585
33
0.083095
0
3DFACE
8
0
62
1
10
9.274839
20
-5.571585
30
0.083095
11
9.274839
21
-5.604443
31
-0.220000
12
9.274839
22
-6.548505
32
-0.220000
13
9.274839
23
-6.548505
33
-0.220000
0
3DFACE
8
0
62
1
10
9.274839
20
-5.571585
30
0.083095
11
9.274839
21
-6.548505
31
-0.220000
12
9.274839
22
-6.553453
32
0.056998
13
9.274839
23
-6.553453
33
0.056998
0
3DFACE
8
0
62
1
10
9.274839
20
-6.553453
30
0.056998
11
9.274839
21
-6.548505
31
-0.220000
12
9.274839
22
-7.492568
32
-0.220000
13
9.274839
23
-7.492568
33
-0.220000
0
3DFACE
8
0
62
1
10
9.274839
20
-6.553453
30
0.056998
11
9.274839
21
-7.492568
31
-0.220000
12
9.274839
22
-7.530049
32
0.101201
13
9.274839
23
-7.530049
33
0.101201
0
3DFACE
8
0
62
1
10
9.274839
20
-7.530049
30
0.101201
11
9.274839
21
-7.492568
31
-0.220000
12
9.274839
22
-8.436630
32
-0.220000
13
9.274839
23
-8.436630
33
-0.220000
0
3DFACE
8
0
62
1
10
9.274839
20
-7.530049
30
0.101201
11
9.274839
21
-8.436630
31
-0.220000
12
9.274839
22
-8.491118
32
0.194022
13
9.274839
23
-8.491118
33
0.194022
0
3DFACE
8
0
62
1
10
9.274839
20
-8.491118
30
0.194022
11
9.274839
21
-8.436630
31
-0.220000
12
9.274839
22
-9.380692
32
-0.220000
13
9.274839
23
-9.380692
33
-0.220000
0
3DFACE
8
0
62
1
10
9.274839
20
-8.491118
30
0.194022
11
9.274839
21
-9.380692
31
-0.220000
12
9.274839
22
-9.430642
32
0.297498
13
9.274839
23
-9.430642
33
0.297498
0
3DFACE
8
0
62
1
10
9.274839
20
-9.430642
30
0.297498
11
9.274839
21
-9.380692
31
-0.220000
12
9.274839
22
-9.794755
32
-0.220000
13
9.274839
23
-9.794755
33
-0.220000
0
3DFACE
8
0
62
1
10
9.274839
20
-9.430642
30
0.297498
11
9.274839
21
-9.794755
31
-0.220000
12
9.274839
22
-9.794755
32
0.326342
13
9.274839
23
-9.794755
33
0.326342
0
3DFACE
8
0
62
1
10
9.686596
20
-10.718232
30
0.272570
11
9.686845
21
-10.718307
31
-0.202931
12
9.959936
22
-10.724777
32
-0.202931
13
9.959936
23
-10.724777
33
-0.202931
0
3DFACE
8
0
62
1
10
9.686596
20
-10.718232
30
0.272570
11
9.959936
21
-10.724777
31
-0.202931
12
9.959936
22
-10.724777
32
0.255282
13
9.959936
23
-10.724777
33
0.255282
0
3DFACE
8
0
62
1
10
10.599839
20
-10.324755
30
-0.750000
11
9.804839
21
-10.324755
31
-0.750000
12
9.804839
22
-9.380692
32
-0.750000
13
9.804839
23
-9.380692
33
-0.750000
0
3DFACE
8
0
62
1
10
10.599839
20
-10.324755
30
-0.750000
11
9.804839
21
-9.380692
31
-0.750000
12
10.599839
22
-9.331005
32
-0.750000
13
10.599839
23
-9.331005
33
-0.750000
0
3DFACE
8
0
62
1
10
10.599839
20
-9.331005
30
-0.750000
11
9.804839
21
-9.380692
31
-0.750000
12
9.804839
22
-8.436630
32
-0.750000
13
9.804839
23
-8.436630
33
-0.750000
0
3DFACE
8
0
62
1
10
10.599839
20
-9.331005
30
-0.750000
11
9.804839
21
-8.436630
31
-0.750000
12
10.599839
22
-8.337255
32
-0.750000
13
10.599839
23
-8.337255
33
-0.750000
0
3DFACE
8
0
62
1
10
10.599839
20
-8.337255
30
-0.750000
11
9.804839
21
-8.436630
31
-0.750000
12
9.804839
22
-7.492568
32
-0.750000
13
9.804839
23
-7.492568
33
-0.750000
0
3DFACE
8
0
62
1
10
10.599839
20
-8.337255
30
-0.750000
11
9.804839
21
-7.492568
31
-0.750000
12
10.599839
22
-7.343505
32
-0.750000
13
10.599839
23
-7.343505
33
-0.750000
0
3DFACE
8
0
62
1
10
10.599839
20
-7.343505
30
-0.750000
11
9.804839
21
-7.492568
31
-0.750000
12
9.804839
22
-6.548505
32
-0.750000
13
9.804839
23
-6.548505
33
-0.750000
0
3DFACE
8
0
62
1
10
10.599839
20
-7.343505
30
-0.750000
11
9.804839
21
-6.548505
31
-0.750000
12
10.599839
22
-6.349755
32
-0.750000
13
10.599839
23
-6.349755
33
-0.750000
0
3DFACE
8
0
62
1
10
10.599839
20
-6.349755
30
-0.750000
11
9.804839
21
-6.548505
31
-0.750000
12
9.804839
22
-5.604443
32
-0.750000
13
9.804839
23
-5.604443
33
-0.750000
0
3DFACE
8
0
62
1
10
10.599839
20
-6.349755
30
-0.750000
11
9.804839
21
-5.604443
31
-0.750000
12
10.599839
22
-5.356005
32
-0.750000
13
10.599839
23
-5.356005
33
-0.750000
0
3DFACE
8
0
62
1
10
10.599839
20
-5.356005
30
-0.750000
11
9.804839
21
-5.604443
31
-0.750000
12
9.804839
22
-4.660380
32
-0.750000
13
9.804839
23
-4.660380
33
-0.750000
0
3DFACE
8
0
62
1
10
10.599839
20
-5.356005
30
-0.750000
11
9.804839
21
-4.660380
31
-0.750000
12
10.599839
22
-4.362255
32
-0.750000
13
10.599839
23
-4.362255
33
-0.750000
0
3DFACE
8
0
62
1
10
10.599839
20
-4.362255
30
-0.750000
11
9.804839
21
-4.660380
31
-0.750000
12
9.804839
22
-3.716318
32
-0.750000
13
9.804839
23
-3.716318
33
-0.750000
0
3DFACE
8
0
62
1
10
10.599839
20
-4.362255
30
-0.750000
11
9.804839
21
-3.716318
31
-0.750000
12
10.599839
22
-3.368505
32
-0.750000
13
10.599839
23
-3.368505
33
-0.750000
0
3DFACE
8
0
62
1
10
10.599839
20
-3.368505
30
-0.750000
11
9.804839
21
-3.716318
31
-0.750000
12
9.804839
22
-2.772255
32
-0.750000
13
9.804839
23
-2.772255
33
-0.750000
0
3DFACE
8
0
62
1
10
10.599839
20
-3.368505
30
-0.750000
11
9.804839
21
-2.772255
31
-0.750000
12
10.599839
22
-2.374755
32
-0.750000
13
10.599839
23
-2.374755
33
-0.750000
0
3DFACE
8
0
62
1
10
10.599839
20
-2.374755
30
-0.750000
11
9.804839
21
-2.772255
31
-0.750000
12
9.804839
22
-1.828193
32
-0.750000
13
9.804839
23
-1.828193
33
-0.750000
0
3DFACE
8
0
62
1
10
10.599839
20
-2.374755
30
-0.750000
11
9.804839
21
-1.828193
31
-0.750000
12
10.599839
22
-1.381005
32
-0.750000
13
10.599839
23
-1.381005
33
-0.750000
0
3DFACE
8
0
62
1
10
10.599839
20
-1.381005
30
-0.750000
11
9.804839
21
-1.828193
31
-0.750000
12
9.804839
22
-0.884130
32
-0.750000
13
9.804839
23
-0.884130
33
-0.750000
0
3DFACE
8
0
62
1
10
10.599839
20
-1.381005
30
-0.750000
11
9.804839
21
-0.884130
31
-0.750000
12
10.599839
22
-0.387255
32
-0.750000
13
10.599839
23
-0.387255
33
-0.750000
0
3DFACE
8
0
62
1
10
10.599839
20
-0.387255
30
-0.750000
11
9.804839
21
-0.884130
31
-0.750000
12
9.804839
22
0.059932
32
-0.750000
13
9.804839
23
0.059932
33
-0.750000
0
3DFACE
8
0
62
1
10
10.599839
20
-0.387255
30
-0.750000
11
9.804839
21
0.059932
31
-0.750000
12
10.599839
22
0.606495
32
-0.750000
13
10.599839
23
0.606495
33
-0.750000
0
3DFACE
8
0
62
1
10
10.599839
20
0.606495
30
-0.750000
11
9.804839
21
0.059932
31
-0.750000
12
9.804839
22
1.003995
32
-0.750000
13
9.804839
23
1.003995
33
-0.750000
0
3DFACE
8
0
62
1
10
10.599839
20
0.606495
30
-0.750000
11
9.804839
21
1.003995
31
-0.750000
12
10.599839
22
1.600245
32
-0.750000
13
10.599839
23
1.600245
33
-0.750000
0
3DFACE
8
0
62
1
10
10.599839
20
1.600245
30
-0.750000
11
9.804839
21
1.003995
31
-0.750000
12
9.804839
22
1.948057
32
-0.750000
13
9.804839
23
1.948057
33
-0.750000
0
3DFACE
8
0
62
1
10
10.599839
20
1.600245
30
-0.750000
11
9.804839
21
1.948057
31
-0.750000
12
10.599839
22
2.593995
32
-0.750000
13
10.599839
23
2.593995
33
-0.750000
0
3DFACE
8
0
62
1
10
10.599839
20
2.593995
30
-0.750000
11
9.804839
21
1.948057
31
-0.750000
12
9.804839
22
2.892120
32
-0.750000
13
9.804839
23
2.892120
33
-0.750000
0
3DFACE
8
0
62
1
10
10.599839
20
2.593995
30
-0.750000
11
9.804839
21
2.892120
31
-0.750000
12
10.599839
22
3.587744
32
-0.750000
13
10.599839
23
3.587744
33
-0.750000
0
3DFACE
8
0
62
1
10
10.599839
20
3.587744
30
-0.750000
11
9.804839
21
2.892120
31
-0.750000
12
9.804839
22
3.836182
32
-0.750000
13
9.804839
23
3.836182
33
-0.750000
0
3DFACE
8
0
62
1
10
10.599839
20
3.587744
30
-0.750000
11
9.804839
21
3.836182
31
-0.750000
12
10.599839
22
4.581494
32
-0.750000
13
10.599839
23
4.581494
33
-0.750000
0
3DFACE
8
0
62
1
10
10.599839
20
4.581494
30
-0.750000
11
9.804839
21
3.836182
31
-0.750000
12
9.804839
22
4.780244
32
-0.750000
13
9.804839
23
4.780244
33
-0.750000
0
3DFACE
8
0
62
1
10
10.599839
20
4.581494
30
-0.750000
11
9.804839
21
4.780244
31
-0.750000
12
10.599839
22
5.575244
32
-0.750000
13
10.599839
23
5.575244
33
-0.750000
0
3DFACE
8
0
62
1
10
10.599839
20
5.575244
30
-0.750000
11
9.804839
21
4.780244
31
-0.750000
12
8.579214
22
4.780244
32
-0.750000
13
8.579214
23
4.780244
33
-0.750000
0
3DFACE
8
0
62
1
10
10.599839
20
5.575244
30
-0.750000
11
8.579214
21
4.780244
31
-0.750000
12
9.274839
22
5.575244
32
-0.750000
13
9.274839
23
5.575244
33
-0.750000
0
3DFACE
8
0
62
1
10
9.274839
20
5.575244
30
-0.750000
11
8.579214
21
4.780244
31
-0.750000
12
7.353590
22
4.780244
32
-0.750000
13
7.353590
23
4.780244
33
-0.750000
0
3DFACE
8
0
62
1
10
9.274839
20
5.575244
30
-0.750000
11
7.353590
21
4.780244
31
-0.750000
12
7.949840
22
5.575244
32
-0.750000
13
7.949840
23
5.575244
33
-0.750000
0
3DFACE
8
0
62
1
10
7.949840
20
5.575244
30
-0.750000
11
7.353590
21
4.780244
31
-0.750000
12
6.127964
22
4.780244
32
-0.750000
13
6.127964
23
4.780244
33
-0.750000
0
3DFACE
8
0
62
1
10
7.949840
20
5.575244
30
-0.750000
11
6.127964
21
4.780244
31
-0.750000
12
6.624839
22
5.575244
32
-0.750000
13
6.624839
23
5.575244
33
-0.750000
0
3DFACE
8
0
62
1
10
6.624839
20
5.575244
30
-0.750000
11
6.127964
21
4.780244
31
-0.750000
12
4.902339
22
4.780244
32
-0.750000
13
4.902339
23
4.780244
33
-0.750000
0
3DFACE
8
0
62
1
10
6.624839
20
5.575244
30
-0.750000
11
4.902339
21
4.780244
31
-0.750000
12
5.299839
22
5.575244
32
-0.750000
13
5.299839
23
5.575244
33
-0.750000
0
3DFACE
8
0
62
1
10
5.299839
20
5.575244
30
-0.750000
11
4.902339
21
4.780244
31
-0.750000
12
3.676715
22
4.780244
32
-0.750000
13
3.676715
23
4.780244
33
-0.750000
0
3DFACE
8
0
62
1
10
5.299839
20
5.575244
30
-0.750000
11
3.676715
21
4.780244
31
-0.750000
12
3.974840
22
5.575244
32
-0.750000
13
3.974840
23
5.575244
33
-0.750000
0
3DFACE
8
0
62
1
10
3.974840
20
5.575244
30
-0.750000
11
3.676715
21
4.780244
31
-0.750000
12
2.451090
22
4.780244
32
-0.750000
13
2.451090
23
4.780244
33
-0.750000
0
3DFACE
8
0
62
1
10
3.974840
20
5.575244
30
-0.750000
11
2.451090
21
4.780244
31
-0.750000
12
2.649840
22
5.575244
32
-0.750000
13
2.649840
23
5.575244
33
-0.750000
0
3DFACE
8
0
62
1
10
2.649840
20
5.575244
30
-0.750000
11
2.451090
21
4.780244
31
-0.750000
12
1.225465
22
4.780244
32
-0.750000
13
1.225465
23
4.780244
33
-0.750000
0
3DFACE
8
0
62
1
10
2.649840
20
5.575244
30
-0.750000
11
1.225465
21
4.780244
31
-0.750000
12
1.324840
22
5.575244
32
-0.750000
13
1.324840
23
5.575244
33
-0.750000
0
3DFACE
8
0
62
1
10
1.324840
20
5.575244
30
-0.750000
11
1.225465
21
4.780244
31
-0.750000
12
-0.000160
22
4.780244
32
-0.750000
13
-0.000160
23
4.780244
33
-0.750000
0
3DFACE
8
0
62
1
10
1.324840
20
5.575244
30
-0.750000
11
-0.000160
21
4.780244
31
-0.750000
12
-0.000160
22
5.575244
32
-0.750000
13
-0.000160
23
5.575244
33
-0.750000
0
3DFACE
8
0
62
1
10
-0.000160
20
5.575244
30
-0.750000
11
-0.000160
21
4.780244
31
-0.750000
12
-1.225785
22
4.780244
32
-0.750000
13
-1.225785
23
4.780244
33
-0.750000
0
3DFACE
8
0
62
1
10
-0.000160
20
5.575244
30
-0.750000
11
-1.225785
21
4.780244
31
-0.750000
12
-1.325160
22
5.575244
32
-0.750000
13
-1.325160
23
5.575244
33
-0.750000
0
3DFACE
8
0
62
1
10
-1.325160
20
5.575244
30
-0.750000
11
-1.225785
21
4.780244
31
-0.750000
12
-2.451410
22
4.780244
32
-0.750000
13
-2.451410
23
4.780244
33
-0.750000
0
3DFACE
8
0
62
1
10
-1.325160
20
5.575244
30
-0.750000
11
-2.451410
21
4.780244
31
-0.750000
12
-2.650160
22
5.575244
32
-0.750000
13
-2.650160
23
5.575244
33
-0.750000
0
3DFACE
8
0
62
1
10
-2.650160
20
5.575244
30
-0.750000
11
-2.451410
21
4.780244
31
-0.750000
12
-3.677035
22
4.780244
32
-0.750000
13
-3.677035
23
4.780244
33
-0.750000
0
3DFACE
8
0
62
1
10
-2.650160
20
5.575244
30
-0.750000
11
-3.677035
21
4.780244
31
-0.750000
12
-3.975160
22
5.575244
32
-0.750000
13
-3.975160
23
5.575244
33
-0.750000
0
3DFACE
8
0
62
1
10
-3.975160
20
5.575244
30
-0.750000
11
-3.677035
21
4.780244
31
-0.750000
12
-4.902660
22
4.780244
32
-0.750000
13
-4.902660
23
4.780244
33
-0.750000
0
3DFACE
8
0
62
1
10
-3.975160
20
5.575244
30
-0.750000
11
-4.902660
21
4.780244
31
-0.750000
12
-5.300160
22
5.575244
32
-0.750000
13
-5.300160
23
5.575244
33
-0.750000
0
3DFACE
8
0
62
1
10
-5.300160
20
5.575244
30
-0.750000
11
-4.902660
21
4.780244
31
-0.750000
12
-6.128285
22
4.780244
32
-0.750000
13
-6.128285
23
4.780244
33
-0.750000
0
3DFACE
8
0
62
1
10
-5.300160
20
5.575244
30
-0.750000
11
-6.128285
21
4.780244
31
-0.750000
12
-6.625160
22
5.575244
32
-0.750000
13
-6.625160
23
5.575244
33
-0.750000
0
3DFACE
8
0
62
1
10
-6.625160
20
5.575244
30
-0.750000
11
-6.128285
21
4.780244
31
-0.750000
12
-7.353910
22
4.780244
32
-0.750000
13
-7.353910
23
4.780244
33
-0.750000
0
3DFACE
8
0
62
1
10
-6.625160
20
5.575244
30
-0.750000
11
-7.353910
21
4.780244
31
-0.750000
12
-7.950160
22
5.575244
32
-0.750000
13
-7.950160
23
5.575244
33
-0.750000
0
3DFACE
8
0
62
1
10
-7.950160
20
5.575244
30
-0.750000
11
-7.353910
21
4.780244
31
-0.750000
12
-8.579535
22
4.780244
32
-0.750000
13
-8.579535
23
4.780244
33
-0.750000
0
3DFACE
8
0
62
1
10
-7.950160
20
5.575244
30
-0.750000
11
-8.579535
21
4.780244
31
-0.750000
12
-9.275160
22
5.575244
32
-0.750000
13
-9.275160
23
5.575244
33
-0.750000
0
3DFACE
8
0
62
1
10
-9.275160
20
5.575244
30
-0.750000
11
-8.579535
21
4.780244
31
-0.750000
12
-9.805160
22
4.780244
32
-0.750000
13
-9.805160
23
4.780244
33
-0.750000
0
3DFACE
8
0
62
1
10
-9.275160
20
5.575244
30
-0.750000
11
-9.805160
21
4.780244
31
-0.750000
12
-10.600160
22
5.575244
32
-0.750000
13
-10.600160
23
5.575244
33
-0.750000
0
3DFACE
8
0
62
1
10
-10.600160
20
5.575244
30
-0.750000
11
-9.805160
21
4.780244
31
-0.750000
12
-9.805160
22
3.836182
32
-0.750000
13
-9.805160
23
3.836182
33
-0.750000
0
3DFACE
8
0
62
1
10
-10.600160
20
5.575244
30
-0.750000
11
-9.805160
21
3.836182
31
-0.750000
12
-10.600160
22
4.581494
32
-0.750000
13
-10.600160
23
4.581494
33
-0.750000
0
3DFACE
8
0
62
1
10
-10.600160
20
4.581494
30
-0.750000
11
-9.805160
21
3.836182
31
-0.750000
12
-9.805160
22
2.892120
32
-0.750000
13
-9.805160
23
2.892120
33
-0.750000
0
3DFACE
8
0
62
1
10
-10.600160
20
4.581494
30
-0.750000
11
-9.805160
21
2.892120
31
-0.750000
12
-10.600160
22
3.587744
32
-0.750000
13
-10.600160
23
3.587744
33
-0.750000
0
3DFACE
8
0
62
1
10
-10.600160
20
3.587744
30
-0.750000
11
-9.805160
21
2.892120
31
-0.750000
12
-9.805160
22
1.948057
32
-0.750000
13
-9.805160
23
1.948057
33
-0.750000
0
3DFACE
8
0
62
1
10
-10.600160
20
3.587744
30
-0.750000
11
-9.805160
21
1.948057
31
-0.750000
12
-10.600160
22
2.593995
32
-0.750000
13
-10.600160
23
2.593995
33
-0.750000
0
3DFACE
8
0
62
1
10
-10.600160
20
2.593995
30
-0.750000
11
-9.805160
21
1.948057
31
-0.750000
12
-9.805160
22
1.003995
32
-0.750000
13
-9.805160
23
1.003995
33
-0.750000
0
3DFACE
8
0
62
1
10
-10.600160
20
2.593995
30
-0.750000
11
-9.805160
21
1.003995
31
-0.750000
12
-10.600160
22
1.600245
32
-0.750000
13
-10.600160
23
1.600245
33
-0.750000
0
3DFACE
8
0
62
1
10
-10.600160
20
1.600245
30
-0.750000
11
-9.805160
21
1.003995
31
-0.750000
12
-9.805160
22
0.059932
32
-0.750000
13
-9.805160
23
0.059932
33
-0.750000
0
3DFACE
8
0
62
1
10
-10.600160
20
1.600245
30
-0.750000
11
-9.805160
21
0.059932
31
-0.750000
12
-10.600160
22
0.606495
32
-0.750000
13
-10.600160
23
0.606495
33
-0.750000
0
3DFACE
8
0
62
1
10
-10.600160
20
0.606495
30
-0.750000
11
-9.805160
21
0.059932
31
-0.750000
12
-9.805160
22
-0.884130
32
-0.750000
13
-9.805160
23
-0.884130
33
-0.750000
0
3DFACE
8
0
62
1
10
-10.600160
20
0.606495
30
-0.750000
11
-9.805160
21
-0.884130
31
-0.750000
12
-10.600160
22
-0.387255
32
-0.750000
13
-10.600160
23
-0.387255
33
-0.750000
0
3DFACE
8
0
62
1
10
-10.600160
20
-0.387255
30
-0.750000
11
-9.805160
21
-0.884130
31
-0.750000
12
-9.805160
22
-1.828193
32
-0.750000
13
-9.805160
23
-1.828193
33
-0.750000
0
3DFACE
8
0
62
1
10
-10.600160
20
-0.387255
30
-0.750000
11
-9.805160
21
-1.828193
31
-0.750000
12
-10.600160
22
-1.381005
32
-0.750000
13
-10.600160
23
-1.381005
33
-0.750000
0
3DFACE
8
0
62
1
10
-10.600160
20
-1.381005
30
-0.750000
11
-9.805160
21
-1.828193
31
-0.750000
12
-9.805160
22
-2.772255
32
-0.750000
13
-9.805160
23
-2.772255
33
-0.750000
0
3DFACE
8
0
62
1
10
-10.600160
20
-1.381005
30
-0.750000
11
-9.805160
21
-2.772255
31
-0.750000
12
-10.600160
22
-2.374755
32
-0.750000
13
-10.600160
23
-2.374755
33
-0.750000
0
3DFACE
8
0
62
1
10
-10.600160
20
-2.374755
30
-0.750000
11
-9.805160
21
-2.772255
31
-0.750000
12
-9.805160
22
-3.716318
32
-0.750000
13
-9.805160
23
-3.716318
33
-0.750000
0
3DFACE
8
0
62
1
10
-10.600160
20
-2.374755
30
-0.750000
11
-9.805160
21
-3.716318
31
-0.750000
12
-10.600160
22
-3.368505
32
-0.750000
13
-10.600160
23
-3.368505
33
-0.750000
0
3DFACE
8
0
62
1
10
-10.600160
20
-3.368505
30
-0.750000
11
-9.805160
21
-3.716318
31
-0.750000
12
-9.805160
22
-4.660380
32
-0.750000
13
-9.805160
23
-4.660380
33
-0.750000
0
3DFACE
8
0
62
1
10
-10.600160
20
-3.368505
30
-0.750000
11
-9.805160
21
-4.660380
31
-0.750000
12
-10.600160
22
-4.362255
32
-0.750000
13
-10.600160
23
-4.362255
33
-0.750000
0
3DFACE
8
0
62
1
10
-10.600160
20
-4.362255
30
-0.750000
11
-9.805160
21
-4.660380
31
-0.750000
12
-9.805160
22
-5.604443
32
-0.750000
13
-9.805160
23
-5.604443
33
-0.750000
0
3DFACE
8
0
62
1
10
-10.600160
20
-4.362255
30
-0.750000
11
-9.805160
21
-5.604443
31
-0.750000
12
-10.600160
22
-5.356005
32
-0.750000
13
-10.600160
23
-5.356005
33
-0.750000
0
3DFACE
8
0
62
1
10
-10.600160
20
-5.356005
30
-0.750000
11
-9.805160
21
-5.604443
31
-0.750000
12
-9.805160
22
-6.548505
32
-0.750000
13
-9.805160
23
-6.548505
33
-0.750000
0
3DFACE
8
0
62
1
10
-10.600160
20
-5.356005
30
-0.750000
11
-9.805160
21
-6.548505
31
-0.750000
12
-10.600160
22
-6.349755
32
-0.750000
13
-10.600160
23
-6.349755
33
-0.750000
0
3DFACE
8
0
62
1
10
-10.600160
20
-6.349755
30
-0.750000
11
-9.805160
21
-6.548505
31
-0.750000
12
-9.805160
22
-7.492568
32
-0.750000
13
-9.805160
23
-7.492568
33
-0.750000
0
3DFACE
8
0
62
1
10
-10.600160
20
-6.349755
30
-0.750000
11
-9.805160
21
-7.492568
31
-0.750000
12
-10.600160
22
-7.343505
32
-0.750000
13
-10.600160
23
-7.343505
33
-0.750000
0
3DFACE
8
0
62
1
10
-10.600160
20
-7.343505
30
-0.750000
11
-9.805160
21
-7.492568
31
-0.750000
12
-9.805160
22
-8.436630
32
-0.750000
13
-9.805160
23
-8.436630
33
-0.750000
0
3DFACE
8
0
62
1
10
-10.600160
20
-7.343505
30
-0.750000
11
-9.805160
21
-8.436630
31
-0.750000
12
-10.600160
22
-8.337255
32
-0.750000
13
-10.600160
23
-8.337255
33
-0.750000
0
3DFACE
8
0
62
1
10
-10.600160
20
-8.337255
30
-0.750000
11
-9.805160
21
-8.436630
31
-0.750000
12
-9.805160
22
-9.380692
32
-0.750000
13
-9.805160
23
-9.380692
33
-0.750000
0
3DFACE
8
0
62
1
10
-10.600160
20
-8.337255
30
-0.750000
11
-9.805160
21
-9.380692
31
-0.750000
12
-10.600160
22
-9.331005
32
-0.750000
13
-10.600160
23
-9.331005
33
-0.750000
0
3DFACE
8
0
62
1
10
-10.600160
20
-9.331005
30
-0.750000
11
-9.805160
21
-9.380692
31
-0.750000
12
-9.805160
22
-10.324755
32
-0.750000
13
-9.805160
23
-10.324755
33
-0.750000
0
3DFACE
8
0
62
1
10
-10.600160
20
-9.331005
30
-0.750000
11
-9.805160
21
-10.324755
31
-0.750000
12
-10.600160
22
-10.324755
32
-0.750000
13
-10.600160
23
-10.324755
33
-0.750000
0
3DFACE
8
0
62
1
10
-9.686917
20
-10.718232
30
0.334478
11
-9.687166
21
-10.718307
31
-0.141023
12
-9.470412
22
-10.527304
32
0.125610
13
-9.470412
23
-10.527304
33
0.125610
0
3DFACE
8
0
62
1
10
-9.805160
20
-10.324755
30
-0.750000
11
-9.805160
21
-9.380692
31
-0.750000
12
-9.275160
22
-9.380692
32
-0.220000
13
-9.275160
23
-9.380692
33
-0.220000
0
3DFACE
8
0
62
1
10
-9.275160
20
-9.380692
30
-0.220000
11
-9.275160
21
-9.794755
31
-0.220000
12
-9.805160
22
-10.324755
32
-0.750000
13
-9.805160
23
-10.324755
33
-0.750000
0
3DFACE
8
0
62
1
10
-9.805160
20
-9.380692
30
0.825201
11
-9.805160
21
-10.324755
31
0.899989
12
-9.275160
22
-9.794755
32
0.326342
13
-9.275160
23
-9.794755
33
0.326342
0
3DFACE
8
0
62
1
10
-9.275160
20
-9.794755
30
0.326342
11
-9.275160
21
-9.430642
31
0.297498
12
-9.805160
22
-9.380692
32
0.825201
13
-9.805160
23
-9.380692
33
0.825201
0
3DFACE
8
0
62
1
10
-9.805160
20
-9.380692
30
-0.750000
11
-9.805160
21
-8.436630
31
-0.750000
12
-9.275160
22
-8.436630
32
-0.220000
13
-9.275160
23
-8.436630
33
-0.220000
0
3DFACE
8
0
62
1
10
-9.275160
20
-8.436630
30
-0.220000
11
-9.275160
21
-9.380692
31
-0.220000
12
-9.805160
22
-9.380692
32
-0.750000
13
-9.805160
23
-9.380692
33
-0.750000
0
3DFACE
8
0
62
1
10
-9.805160
20
-8.436630
30
0.721226
11
-9.805160
21
-9.380692
31
0.825201
12
-9.275160
22
-9.430642
32
0.297498
13
-9.275160
23
-9.430642
33
0.297498
0
3DFACE
8
0
62
1
10
-9.275160
20
-9.430642
30
0.297498
11
-9.275160
21
-8.491118
31
0.194022
12
-9.805160
22
-8.436630
32
0.721226
13
-9.805160
23
-8.436630
33
0.721226
0
3DFACE
8
0
62
1
10
-9.805160
20
-8.436630
30
-0.750000
11
-9.805160
21
-7.492568
31
-0.750000
12
-9.275160
22
-7.492568
32
-0.220000
13
-9.275160
23
-7.492568
33
-0.220000
0
3DFACE
8
0
62
1
10
-9.275160
20
-7.492568
30
-0.220000
11
-9.275160
21
-8.436630
31
-0.220000
12
-9.805160
22
-8.436630
32
-0.750000
13
-9.805160
23
-8.436630
33
-0.750000
0
3DFACE
8
0
62
1
10
-9.805160
20
-7.492568
30
0.630047
11
-9.805160
21
-8.436630
31
0.721226
12
-9.275160
22
-8.491118
32
0.194022
13
-9.275160
23
-8.491118
33
0.194022
0
3DFACE
8
0
62
1
10
-9.275160
20
-8.491118
30
0.194022
11
-9.275160
21
-7.530049
31
0.101201
12
-9.805160
22
-7.492568
32
0.630047
13
-9.805160
23
-7.492568
33
0.630047
0
3DFACE
8
0
62
1
10
-9.805160
20
-7.492568
30
-0.750000
11
-9.805160
21
-6.548505
31
-0.750000
12
-9.275160
22
-6.550979
32
0.016722
13
-9.275160
23
-6.550979
33
0.016722
0
3DFACE
8
0
62
1
10
-9.275160
20
-6.550979
30
0.016722
11
-9.275160
21
-7.492568
31
-0.220000
12
-9.805160
22
-7.492568
32
-0.750000
13
-9.805160
23
-7.492568
33
-0.750000
0
3DFACE
8
0
62
1
10
-9.805160
20
-6.548505
30
0.587317
11
-9.805160
21
-7.492568
31
0.630047
12
-9.275160
22
-7.530049
32
0.101201
13
-9.275160
23
-7.530049
33
0.101201
0
3DFACE
8
0
62
1
10
-9.275160
20
-7.530049
30
0.101201
11
-9.275160
21
-6.550979
31
0.016722
12
-9.805160
22
-6.548505
32
0.587317
13
-9.805160
23
-6.548505
33
0.587317
0
3DFACE
8
0
62
1
10
-9.805160
20
-6.548505
30
-0.750000
11
-9.805160
21
-5.604443
31
-0.750000
12
-9.275160
22
-5.588014
32
0.061687
13
-9.275160
23
-5.588014
33
0.061687
0
3DFACE
8
0
62
1
10
-9.275160
20
-5.588014
30
0.061687
11
-9.275160
21
-6.550979
31
0.016722
12
-9.805160
22
-6.548505
32
-0.750000
13
-9.805160
23
-6.548505
33
-0.750000
0
3DFACE
8
0
62
1
10
-9.805160
20
-5.604443
30
0.612409
11
-9.805160
21
-6.548505
31
0.587317
12
-9.275160
22
-6.550979
32
0.016722
13
-9.275160
23
-6.550979
33
0.016722
0
3DFACE
8
0
62
1
10
-9.275160
20
-6.550979
30
0.016722
11
-9.275160
21
-5.588014
31
0.061687
12
-9.805160
22
-5.604443
32
0.612409
13
-9.805160
23
-5.604443
33
0.612409
0
3DFACE
8
0
62
1
10
-9.805160
20
-5.604443
30
-0.750000
11
-9.805160
21
-4.660380
31
-0.750000
12
-9.275160
22
-4.627858
32
0.143844
13
-9.275160
23
-4.627858
33
0.143844
0
3DFACE
8
0
62
1
10
-9.275160
20
-4.627858
30
0.143844
11
-9.275160
21
-5.588014
31
0.061687
12
-9.805160
22
-5.604443
32
-0.750000
13
-9.805160
23
-5.604443
33
-0.750000
0
3DFACE
8
0
62
1
10
-9.805160
20
-4.660380
30
0.704671
11
-9.805160
21
-5.604443
31
0.612409
12
-9.275160
22
-5.588014
32
0.061687
13
-9.275160
23
-5.588014
33
0.061687
0
3DFACE
8
0
62
1
10
-9.275160
20
-5.588014
30
0.061687
11
-9.275160
21
-4.627858
31
0.143844
12
-9.805160
22
-4.660380
32
0.704671
13
-9.805160
23
-4.660380
33
0.704671
0
3DFACE
8
0
62
1
10
-9.805160
20
-4.660380
30
-0.750000
11
-9.805160
21
-3.716318
31
-0.750000
12
-9.275160
22
-3.716318
32
-0.220000
13
-9.275160
23
-3.716318
33
-0.220000
0
3DFACE
8
0
62
1
10
-9.275160
20
-3.716318
30
-0.220000
11
-9.275160
21
-4.627858
31
0.143844
12
-9.805160
22
-4.660380
32
-0.750000
13
-9.805160
23
-4.660380
33
-0.750000
0
3DFACE
8
0
62
1
10
-9.805160
20
-3.716318
30
0.845975
11
-9.805160
21
-4.660380
31
0.704671
12
-9.275160
22
-4.627858
32
0.143844
13
-9.275160
23
-4.627858
33
0.143844
0
3DFACE
8
0
62
1
10
-9.275160
20
-4.627858
30
0.143844
11
-9.275160
21
-3.632390
31
0.322633
12
-9.805160
22
-3.716318
32
0.845975
13
-9.805160
23
-3.716318
33
0.845975
0
3DFACE
8
0
62
1
10
-9.805160
20
-3.716318
30
-0.750000
11
-9.805160
21
-2.772255
31
-0.750000
12
-9.275160
22
-2.772255
32
-0.220000
13
-9.275160
23
-2.772255
33
-0.220000
0
3DFACE
8
0
62
1
10
-9.275160
20
-2.772255
30
-0.220000
11
-9.275160
21
-3.716318
31
-0.220000
12
-9.805160
22
-3.716318
32
-0.750000
13
-9.805160
23
-3.716318
33
-0.750000
0
3DFACE
8
0
62
1
10
-9.805160
20
-2.772255
30
1.007503
11
-9.805160
21
-3.716318
31
0.845975
12
-9.275160
22
-3.632390
32
0.322633
13
-9.275160
23
-3.632390
33
0.322633
0
3DFACE
8
0
62
1
10
-9.275160
20
-3.632390
30
0.322633
11
-9.275160
21
-2.685936
31
0.484570
12
-9.805160
22
-2.772255
32
1.007503
13
-9.805160
23
-2.772255
33
1.007503
0
3DFACE
8
0
62
1
10
-9.805160
20
-2.772255
30
-0.750000
11
-9.805160
21
-1.828193
31
-0.750000
12
-9.275160
22
-1.828193
32
-0.220000
13
-9.275160
23
-1.828193
33
-0.220000
0
3DFACE
8
0
62
1
10
-9.275160
20
-1.828193
30
-0.220000
11
-9.275160
21
-2.772255
31
-0.220000
12
-9.805160
22
-2.772255
32
-0.750000
13
-9.805160
23
-2.772255
33
-0.750000
0
3DFACE
8
0
62
1
10
-9.805160
20
-1.828193
30
1.157655
11
-9.805160
21
-2.772255
31
1.007503
12
-9.275160
22
-2.685936
32
0.484570
13
-9.275160
23
-2.685936
33
0.484570
0
3DFACE
8
0
62
1
10
-9.275160
20
-2.685936
30
0.484570
11
-9.275160
21
-1.755652
31
0.632531
12
-9.805160
22
-1.828193
32
1.157655
13
-9.805160
23
-1.828193
33
1.157655
0
3DFACE
8
0
62
1
10
-9.805160
20
-1.828193
30
-0.750000
11
-9.805160
21
-0.884130
31
-0.750000
12
-9.275160
22
-0.884130
32
-0.220000
13
-9.275160
23
-0.884130
33
-0.220000
0
3DFACE
8
0
62
1
10
-9.275160
20
-0.884130
30
-0.220000
11
-9.275160
21
-1.828193
31
-0.220000
12
-9.805160
22
-1.828193
32
-0.750000
13
-9.805160
23
-1.828193
33
-0.750000
0
3DFACE
8
0
62
1
10
-9.805160
20
-0.884130
30
1.268441
11
-9.805160
21
-1.828193
31
1.157655
12
-9.275160
22
-1.755652
32
0.632531
13
-9.275160
23
-1.755652
33
0.632531
0
3DFACE
8
0
62
1
10
-9.275160
20
-1.755652
30
0.632531
11
-9.275160
21
-0.838930
31
0.740108
12
-9.805160
22
-0.884130
32
1.268441
13
-9.805160
23
-0.884130
33
1.268441
0
3DFACE
8
0
62
1
10
-9.805160
20
-0.884130
30
-0.750000
11
-9.805160
21
0.059932
31
-0.750000
12
-9.275160
22
0.059932
32
-0.220000
13
-9.275160
23
0.059932
33
-0.220000
0
3DFACE
8
0
62
1
10
-9.275160
20
0.059932
30
-0.220000
11
-9.275160
21
-0.884130
31
-0.220000
12
-9.805160
22
-0.884130
32
-0.750000
13
-9.805160
23
-0.884130
33
-0.750000
0
3DFACE
8
0
62
1
10
-9.805160
20
0.059932
30
1.319349
11
-9.805160
21
-0.884130
31
1.268441
12
-9.275160
22
-0.838930
32
0.740108
13
-9.275160
23
-0.838930
33
0.740108
0
3DFACE
8
0
62
1
10
-9.275160
20
-0.838930
30
0.740108
11
-9.275160
21
0.068780
31
0.789056
12
-9.805160
22
0.059932
32
1.319349
13
-9.805160
23
0.059932
33
1.319349
0
3DFACE
8
0
62
1
10
-9.805160
20
0.059932
30
-0.750000
11
-9.805160
21
1.003995
31
-0.750000
12
-9.275160
22
1.003995
32
-0.220000
13
-9.275160
23
1.003995
33
-0.220000
0
3DFACE
8
0
62
1
10
-9.275160
20
1.003995
30
-0.220000
11
-9.275160
21
0.059932
31
-0.220000
12
-9.805160
22
0.059932
32
-0.750000
13
-9.805160
23
0.059932
33
-0.750000
0
3DFACE
8
0
62
1
10
-9.805160
20
1.003995
30
1.299987
11
-9.805160
21
0.059932
31
1.319349
12
-9.275160
22
0.068780
32
0.789056
13
-9.275160
23
0.068780
33
0.789056
0
3DFACE
8
0
62
1
10
-9.275160
20
0.068780
30
0.789056
11
-9.275160
21
0.974629
31
0.770478
12
-9.805160
22
1.003995
32
1.299987
13
-9.805160
23
1.003995
33
1.299987
0
3DFACE
8
0
62
1
10
-9.805160
20
1.003995
30
-0.750000
11
-9.805160
21
1.948057
31
-0.750000
12
-9.275160
22
1.948057
32
-0.220000
13
-9.275160
23
1.948057
33
-0.220000
0
3DFACE
8
0
62
1
10
-9.275160
20
1.948057
30
-0.220000
11
-9.275160
21
1.003995
31
-0.220000
12
-9.805160
22
1.003995
32
-0.750000
13
-9.805160
23
1.003995
33
-0.750000
0
3DFACE
8
0
62
1
10
-9.805160
20
1.948057
30
1.214510
11
-9.805160
21
1.003995
31
1.299987
12
-9.275160
22
0.974629
32
0.770478
13
-9.275160
23
0.974629
33
0.770478
0
3DFACE
8
0
62
1
10
-9.275160
20
0.974629
30
0.770478
11
-9.275081
21
1.886530
31
0.687913
12
-9.805160
22
1.948057
32
1.214510
13
-9.805160
23
1.948057
33
1.214510
0
3DFACE
8
0
62
1
10
-9.805160
20
1.948057
30
-0.750000
11
-9.805160
21
2.892120
31
-0.750000
12
-9.275225
22
2.892120
32
-0.220000
13
-9.275225
23
2.892120
33
-0.220000
0
3DFACE
8
0
62
1
10
-9.275225
20
2.892120
30
-0.220000
11
-9.275160
21
1.948057
31
-0.220000
12
-9.805160
22
1.948057
32
-0.750000
13
-9.805160
23
1.948057
33
-0.750000
0
3DFACE
8
0
62
1
10
-9.805160
20
2.892120
30
1.079229
11
-9.805160
21
1.948057
31
1.214510
12
-9.275081
22
1.886530
32
0.687913
13
-9.275081
23
1.886530
33
0.687913
0
3DFACE
8
0
62
1
10
-9.275081
20
1.886530
30
0.687913
11
-9.276938
21
2.810206
31
0.555552
12
-9.805160
22
2.892120
32
1.079229
13
-9.805160
23
2.892120
33
1.079229
0
3DFACE
8
0
62
1
10
-9.805160
20
2.892120
30
-0.750000
11
-9.805160
21
3.836182
31
-0.750000
12
-9.276300
22
3.835887
32
-0.220001
13
-9.276300
23
3.835887
33
-0.220001
0
3DFACE
8
0
62
1
10
-9.276300
20
3.835887
30
-0.220001
11
-9.275225
21
2.892120
31
-0.220000
12
-9.805160
22
2.892120
32
-0.750000
13
-9.805160
23
2.892120
33
-0.750000
0
3DFACE
8
0
62
1
10
-9.805160
20
3.836182
30
0.919068
11
-9.805160
21
2.892120
31
1.079229
12
-9.276938
22
2.810206
32
0.555552
13
-9.276938
23
2.810206
33
0.555552
0
3DFACE
8
0
62
1
10
-9.276938
20
2.810206
30
0.555552
11
-9.268585
21
3.724154
31
0.400486
12
-9.805160
22
3.836182
32
0.919068
13
-9.805160
23
3.836182
33
0.919068
0
3DFACE
8
0
62
1
10
-9.805160
20
3.836182
30
-0.750000
11
-9.805160
21
4.780244
31
-0.750000
12
-9.433150
22
4.395967
32
-0.220024
13
-9.433150
23
4.395967
33
-0.220024
0
3DFACE
8
0
62
1
10
-9.433150
20
4.395967
30
-0.220024
11
-9.276300
21
3.835887
31
-0.220001
12
-9.805160
22
3.836182
32
-0.750000
13
-9.805160
23
3.836182
33
-0.750000
0
3DFACE
8
0
62
1
10
-9.805160
20
4.780244
30
0.764621
11
-9.805160
21
3.836182
31
0.919068
12
-9.268585
22
3.724154
32
0.400486
13
-9.268585
23
3.724154
33
0.400486
0
3DFACE
8
0
62
1
10
-9.268585
20
3.724154
30
0.400486
11
-9.328362
21
4.306393
31
0.242543
12
-9.805160
22
4.780244
32
0.764621
13
-9.805160
23
4.780244
33
0.764621
0
3DFACE
8
0
62
1
10
-9.805160
20
4.780244
30
-0.750000
11
-8.579535
21
4.780244
31
-0.750000
12
-8.581215
22
4.240261
32
-0.220035
13
-8.581215
23
4.240261
33
-0.220035
0
3DFACE
8
0
62
1
10
-8.581215
20
4.240261
30
-0.220035
11
-9.433150
21
4.395967
31
-0.220024
12
-9.805160
22
4.780244
32
-0.750000
13
-9.805160
23
4.780244
33
-0.750000
0
3DFACE
8
0
62
1
10
-8.579535
20
4.780244
30
1.138366
11
-9.805160
21
4.780244
31
0.764621
12
-9.328362
22
4.306393
32
0.242543
13
-9.328362
23
4.306393
33
0.242543
0
3DFACE
8
0
62
1
10
-9.328362
20
4.306393
30
0.242543
11
-8.446089
21
4.235693
31
0.619422
12
-8.579535
22
4.780244
32
1.138366
13
-8.579535
23
4.780244
33
1.138366
0
3DFACE
8
0
62
1
10
-8.579535
20
4.780244
30
-0.750000
11
-7.353910
21
4.780244
31
-0.750000
12
-7.353910
22
4.249505
32
-0.220000
13
-7.353910
23
4.249505
33
-0.220000
0
3DFACE
8
0
62
1
10
-7.353910
20
4.249505
30
-0.220000
11
-8.581215
21
4.240261
31
-0.220035
12
-8.579535
22
4.780244
32
-0.750000
13
-8.579535
23
4.780244
33
-0.750000
0
3DFACE
8
0
62
1
10
-7.353910
20
4.780244
30
1.266489
11
-8.579535
21
4.780244
31
1.138366
12
-8.446089
22
4.235693
32
0.619422
13
-8.446089
23
4.235693
33
0.619422
0
3DFACE
8
0
62
1
10
-8.446089
20
4.235693
30
0.619422
11
-7.354294
21
4.250357
31
0.733561
12
-7.353910
22
4.780244
32
1.266489
13
-7.353910
23
4.780244
33
1.266489
0
3DFACE
8
0
62
1
10
-7.353910
20
4.780244
30
-0.750000
11
-6.128285
21
4.780244
31
-0.750000
12
-6.128285
22
4.250272
32
-0.220000
13
-6.128285
23
4.250272
33
-0.220000
0
3DFACE
8
0
62
1
10
-6.128285
20
4.250272
30
-0.220000
11
-7.353910
21
4.249505
31
-0.220000
12
-7.353910
22
4.780244
32
-0.750000
13
-7.353910
23
4.780244
33
-0.750000
0
3DFACE
8
0
62
1
10
-6.128285
20
4.780244
30
1.136578
11
-7.353910
21
4.780244
31
1.266489
12
-7.354294
22
4.250357
32
0.733561
13
-7.354294
23
4.250357
33
0.733561
0
3DFACE
8
0
62
1
10
-7.354294
20
4.250357
30
0.733561
11
-6.206259
21
4.250246
31
0.611874
12
-6.128285
22
4.780244
32
1.136578
13
-6.128285
23
4.780244
33
1.136578
0
3DFACE
8
0
62
1
10
-6.128285
20
4.780244
30
-0.750000
11
-4.902660
21
4.780244
31
-0.750000
12
-4.902660
22
4.250245
32
-0.220000
13
-4.902660
23
4.250245
33
-0.220000
0
3DFACE
8
0
62
1
10
-4.902660
20
4.250245
30
-0.220000
11
-6.128285
21
4.250272
31
-0.220000
12
-6.128285
22
4.780244
32
-0.750000
13
-6.128285
23
4.780244
33
-0.750000
0
3DFACE
8
0
62
1
10
-4.902660
20
4.780244
30
0.901563
11
-6.128285
21
4.780244
31
1.136578
12
-6.206259
22
4.250246
32
0.611874
13
-6.206259
23
4.250246
33
0.611874
0
3DFACE
8
0
62
1
10
-6.206259
20
4.250246
30
0.611874
11
-4.979096
21
4.250245
31
0.376564
12
-4.902660
22
4.780244
32
0.901563
13
-4.902660
23
4.780244
33
0.901563
0
3DFACE
8
0
62
1
10
-4.902660
20
4.780244
30
-0.750000
11
-3.677035
21
4.780244
31
-0.750000
12
-3.677035
22
4.250245
32
-0.220000
13
-3.677035
23
4.250245
33
-0.220000
0
3DFACE
8
0
62
1
10
-3.677035
20
4.250245
30
-0.220000
11
-4.902660
21
4.250245
31
-0.220000
12
-4.902660
22
4.780244
32
-0.750000
13
-4.902660
23
4.780244
33
-0.750000
0
3DFACE
8
0
62
1
10
-3.677035
20
4.780244
30
0.778961
11
-4.902660
21
4.780244
31
0.901563
12
-4.979096
22
4.250245
32
0.376564
13
-4.979096
23
4.250245
33
0.376564
0
3DFACE
8
0
62
1
10
-4.979096
20
4.250245
30
0.376564
11
-3.678171
21
4.250245
31
0.246429
12
-3.677035
22
4.780244
32
0.778961
13
-3.677035
23
4.780244
33
0.778961
0
3DFACE
8
0
62
1
10
-3.677035
20
4.780244
30
-0.750000
11
-2.451410
21
4.780244
31
-0.750000
12
-2.451410
22
4.250245
32
-0.220000
13
-2.451410
23
4.250245
33
-0.220000
0
3DFACE
8
0
62
1
10
-2.451410
20
4.250245
30
-0.220000
11
-3.677035
21
4.250245
31
-0.220000
12
-3.677035
22
4.780244
32
-0.750000
13
-3.677035
23
4.780244
33
-0.750000
0
3DFACE
8
0
62
1
10
-2.451410
20
4.780244
30
0.896285
11
-3.677035
21
4.780244
31
0.778961
12
-3.678171
22
4.250245
32
0.246429
13
-3.678171
23
4.250245
33
0.246429
0
3DFACE
8
0
62
1
10
-3.678171
20
4.250245
30
0.246429
11
-2.368395
21
4.250245
31
0.371809
12
-2.451410
22
4.780244
32
0.896285
13
-2.451410
23
4.780244
33
0.896285
0
3DFACE
8
0
62
1
10
-2.451410
20
4.780244
30
-0.750000
11
-1.225785
21
4.780244
31
-0.750000
12
-1.225785
22
4.250245
32
-0.220000
13
-1.225785
23
4.250245
33
-0.220000
0
3DFACE
8
0
62
1
10
-1.225785
20
4.250245
30
-0.220000
11
-2.451410
21
4.250245
31
-0.220000
12
-2.451410
22
4.780244
32
-0.750000
13
-2.451410
23
4.780244
33
-0.750000
0
3DFACE
8
0
62
1
10
-1.225785
20
4.780244
30
1.168456
11
-2.451410
21
4.780244
31
0.896285
12
-2.368395
22
4.250245
32
0.371809
13
-2.368395
23
4.250245
33
0.371809
0
3DFACE
8
0
62
1
10
-2.368395
20
4.250245
30
0.371809
11
-1.135357
21
4.250245
31
0.645626
12
-1.225785
22
4.780244
32
1.168456
13
-1.225785
23
4.780244
33
1.168456
0
3DFACE
8
0
62
1
10
-1.225785
20
4.780244
30
-0.750000
11
-0.000160
21
4.780244
31
-0.750000
12
-0.000160
22
4.250245
32
-0.220000
13
-0.000160
23
4.250245
33
-0.220000
0
3DFACE
8
0
62
1
10
-0.000160
20
4.250245
30
-0.220000
11
-1.225785
21
4.250245
31
-0.220000
12
-1.225785
22
4.780244
32
-0.750000
13
-1.225785
23
4.780244
33
-0.750000
0
3DFACE
8
0
62
1
10
-0.000160
20
4.780244
30
1.321230
11
-1.225785
21
4.780244
31
1.168456
12
-1.135357
22
4.250245
32
0.645626
13
-1.135357
23
4.250245
33
0.645626
0
3DFACE
8
0
62
1
10
-1.135357
20
4.250245
30
0.645626
11
-0.000160
21
4.250245
31
0.787128
12
-0.000160
22
4.780244
32
1.321230
13
-0.000160
23
4.780244
33
1.321230
0
3DFACE
8
0
62
1
10
-0.000160
20
4.780244
30
-0.750000
11
1.225465
21
4.780244
31
-0.750000
12
1.225465
22
4.250245
32
-0.220000
13
1.225465
23
4.250245
33
-0.220000
0
3DFACE
8
0
62
1
10
1.225465
20
4.250245
30
-0.220000
11
-0.000160
21
4.250245
31
-0.220000
12
-0.000160
22
4.780244
32
-0.750000
13
-0.000160
23
4.780244
33
-0.750000
0
3DFACE
8
0
62
1
10
1.225465
20
4.780244
30
1.168456
11
-0.000160
21
4.780244
31
1.321230
12
-0.000160
22
4.250245
32
0.787128
13
-0.000160
23
4.250245
33
0.787128
0
3DFACE
8
0
62
1
10
-0.000160
20
4.250245
30
0.787128
11
1.135036
21
4.250245
31
0.645626
12
1.225465
22
4.780244
32
1.168456
13
1.225465
23
4.780244
33
1.168456
0
3DFACE
8
0
62
1
10
1.225465
20
4.780244
30
-0.750000
11
2.451090
21
4.780244
31
-0.750000
12
2.451090
22
4.250245
32
-0.220000
13
2.451090
23
4.250245
33
-0.220000
0
3DFACE
8
0
62
1
10
2.451090
20
4.250245
30
-0.220000
11
1.225465
21
4.250245
31
-0.220000
12
1.225465
22
4.780244
32
-0.750000
13
1.225465
23
4.780244
33
-0.750000
0
3DFACE
8
0
62
1
10
2.451090
20
4.780244
30
0.896285
11
1.225465
21
4.780244
31
1.168456
12
1.135036
22
4.250245
32
0.645626
13
1.135036
23
4.250245
33
0.645626
0
3DFACE
8
0
62
1
10
1.135036
20
4.250245
30
0.645626
11
2.368075
21
4.250245
31
0.371809
12
2.451090
22
4.780244
32
0.896285
13
2.451090
23
4.780244
33
0.896285
0
3DFACE
8
0
62
1
10
2.451090
20
4.780244
30
-0.750000
11
3.676715
21
4.780244
31
-0.750000
12
3.676715
22
4.250245
32
-0.220000
13
3.676715
23
4.250245
33
-0.220000
0
3DFACE
8
0
62
1
10
3.676715
20
4.250245
30
-0.220000
11
2.451090
21
4.250245
31
-0.220000
12
2.451090
22
4.780244
32
-0.750000
13
2.451090
23
4.780244
33
-0.750000
0
3DFACE
8
0
62
1
10
3.676715
20
4.780244
30
0.778961
11
2.451090
21
4.780244
31
0.896285
12
2.368075
22
4.250245
32
0.371809
13
2.368075
23
4.250245
33
0.371809
0
3DFACE
8
0
62
1
10
2.368075
20
4.250245
30
0.371809
11
3.677850
21
4.250245
31
0.246429
12
3.676715
22
4.780244
32
0.778961
13
3.676715
23
4.780244
33
0.778961
0
3DFACE
8
0
62
1
10
3.676715
20
4.780244
30
-0.750000
11
4.902339
21
4.780244
31
-0.750000
12
4.902339
22
4.250245
32
-0.220000
13
4.902339
23
4.250245
33
-0.220000
0
3DFACE
8
0
62
1
10
4.902339
20
4.250245
30
-0.220000
11
3.676715
21
4.250245
31
-0.220000
12
3.676715
22
4.780244
32
-0.750000
13
3.676715
23
4.780244
33
-0.750000
0
3DFACE
8
0
62
1
10
4.902339
20
4.780244
30
0.901563
11
3.676715
21
4.780244
31
0.778961
12
3.677850
22
4.250245
32
0.246429
13
3.677850
23
4.250245
33
0.246429
0
3DFACE
8
0
62
1
10
3.677850
20
4.250245
30
0.246429
11
4.978776
21
4.250245
31
0.376564
12
4.902339
22
4.780244
32
0.901563
13
4.902339
23
4.780244
33
0.901563
0
3DFACE
8
0
62
1
10
4.902339
20
4.780244
30
-0.750000
11
6.127964
21
4.780244
31
-0.750000
12
6.127964
22
4.250245
32
-0.220000
13
6.127964
23
4.250245
33
-0.220000
0
3DFACE
8
0
62
1
10
6.127964
20
4.250245
30
-0.220000
11
4.902339
21
4.250245
31
-0.220000
12
4.902339
22
4.780244
32
-0.750000
13
4.902339
23
4.780244
33
-0.750000
0
3DFACE
8
0
62
1
10
6.127964
20
4.780244
30
1.136578
11
4.902339
21
4.780244
31
0.901563
12
4.978776
22
4.250245
32
0.376564
13
4.978776
23
4.250245
33
0.376564
0
3DFACE
8
0
62
1
10
4.978776
20
4.250245
30
0.376564
11
6.205939
21
4.250221
31
0.611874
12
6.127964
22
4.780244
32
1.136578
13
6.127964
23
4.780244
33
1.136578
0
3DFACE
8
0
62
1
10
6.127964
20
4.780244
30
-0.750000
11
7.353590
21
4.780244
31
-0.750000
12
7.353590
22
4.250271
32
-0.220000
13
7.353590
23
4.250271
33
-0.220000
0
3DFACE
8
0
62
1
10
7.353590
20
4.250271
30
-0.220000
11
6.127964
21
4.250245
31
-0.220000
12
6.127964
22
4.780244
32
-0.750000
13
6.127964
23
4.780244
33
-0.750000
0
3DFACE
8
0
62
1
10
7.353590
20
4.780244
30
1.266489
11
6.127964
21
4.780244
31
1.136578
12
6.205939
22
4.250221
32
0.611874
13
6.205939
23
4.250221
33
0.611874
0
3DFACE
8
0
62
1
10
6.205939
20
4.250221
30
0.611874
11
7.353977
21
4.251061
31
0.733561
12
7.353590
22
4.780244
32
1.266489
13
7.353590
23
4.780244
33
1.266489
0
3DFACE
8
0
62
1
10
7.353590
20
4.780244
30
-0.750000
11
8.579214
21
4.780244
31
-0.750000
12
8.579029
22
4.251287
32
-0.220000
13
8.579029
23
4.251287
33
-0.220000
0
3DFACE
8
0
62
1
10
8.579029
20
4.251287
30
-0.220000
11
7.353590
21
4.250271
31
-0.220000
12
7.353590
22
4.780244
32
-0.750000
13
7.353590
23
4.780244
33
-0.750000
0
3DFACE
8
0
62
1
10
8.579214
20
4.780244
30
1.138366
11
7.353590
21
4.780244
31
1.266489
12
7.353977
22
4.251061
32
0.733561
13
7.353977
23
4.251061
33
0.733561
0
3DFACE
8
0
62
1
10
7.353977
20
4.251061
30
0.733561
11
8.444234
21
4.248206
31
0.619593
12
8.579214
22
4.780244
32
1.138366
13
8.579214
23
4.780244
33
1.138366
0
3DFACE
8
0
62
1
10
8.579214
20
4.780244
30
-0.750000
11
9.804839
21
4.780244
31
-0.750000
12
9.424293
22
4.408022
32
-0.220018
13
9.424293
23
4.408022
33
-0.220018
0
3DFACE
8
0
62
1
10
9.424293
20
4.408022
30
-0.220018
11
8.579029
21
4.251287
31
-0.220000
12
8.579214
22
4.780244
32
-0.750000
13
8.579214
23
4.780244
33
-0.750000
0
3DFACE
8
0
62
1
10
9.804839
20
4.780244
30
0.764621
11
8.579214
21
4.780244
31
1.138366
12
8.444234
22
4.248206
32
0.619593
13
8.444234
23
4.248206
33
0.619593
0
3DFACE
8
0
62
1
10
8.444234
20
4.248206
30
0.619593
11
9.318839
21
4.319809
31
0.242503
12
9.804839
22
4.780244
32
0.764621
13
9.804839
23
4.780244
33
0.764621
0
3DFACE
8
0
62
1
10
9.804839
20
4.780244
30
-0.750000
11
9.804839
21
3.836182
31
-0.750000
12
9.267800
22
3.837710
32
-0.220052
13
9.267800
23
3.837710
33
-0.220052
0
3DFACE
8
0
62
1
10
9.267800
20
3.837710
30
-0.220052
11
9.424293
21
4.408022
31
-0.220018
12
9.804839
22
4.780244
32
-0.750000
13
9.804839
23
4.780244
33
-0.750000
0
3DFACE
8
0
62
1
10
9.804839
20
3.836182
30
0.919068
11
9.804839
21
4.780244
31
0.764621
12
9.318839
22
4.319809
32
0.242503
13
9.318839
23
4.319809
33
0.242503
0
3DFACE
8
0
62
1
10
9.318839
20
4.319809
30
0.242503
11
9.259467
21
3.725445
31
0.400265
12
9.804839
22
3.836182
32
0.919068
13
9.804839
23
3.836182
33
0.919068
0
3DFACE
8
0
62
1
10
9.804839
20
3.836182
30
-0.750000
11
9.804839
21
2.892120
31
-0.750000
12
9.273454
22
2.892120
32
-0.220000
13
9.273454
23
2.892120
33
-0.220000
0
3DFACE
8
0
62
1
10
9.273454
20
2.892120
30
-0.220000
11
9.267800
21
3.837710
31
-0.220052
12
9.804839
22
3.836182
32
-0.750000
13
9.804839
23
3.836182
33
-0.750000
0
3DFACE
8
0
62
1
10
9.804839
20
2.892120
30
1.079229
11
9.804839
21
3.836182
31
0.919068
12
9.259467
22
3.725445
32
0.400265
13
9.259467
23
3.725445
33
0.400265
0
3DFACE
8
0
62
1
10
9.259467
20
3.725445
30
0.400265
11
9.275149
21
2.810195
31
0.555555
12
9.804839
22
2.892120
32
1.079229
13
9.804839
23
2.892120
33
1.079229
0
3DFACE
8
0
62
1
10
9.804839
20
2.892120
30
-0.750000
11
9.804839
21
1.948057
31
-0.750000
12
9.274897
22
1.948057
32
-0.220000
13
9.274897
23
1.948057
33
-0.220000
0
3DFACE
8
0
62
1
10
9.274897
20
1.948057
30
-0.220000
11
9.273454
21
2.892120
31
-0.220000
12
9.804839
22
2.892120
32
-0.750000
13
9.804839
23
2.892120
33
-0.750000
0
3DFACE
8
0
62
1
10
9.804839
20
1.948057
30
1.214510
11
9.804839
21
2.892120
31
1.079229
12
9.275149
22
2.810195
32
0.555555
13
9.275149
23
2.810195
33
0.555555
0
3DFACE
8
0
62
1
10
9.275149
20
2.810195
30
0.555555
11
9.274837
21
1.886530
31
0.687913
12
9.804839
22
1.948057
32
1.214510
13
9.804839
23
1.948057
33
1.214510
0
3DFACE
8
0
62
1
10
9.804839
20
1.948057
30
-0.750000
11
9.804839
21
1.003995
31
-0.750000
12
9.274838
22
1.003995
32
-0.220000
13
9.274838
23
1.003995
33
-0.220000
0
3DFACE
8
0
62
1
10
9.274838
20
1.003995
30
-0.220000
11
9.274897
21
1.948057
31
-0.220000
12
9.804839
22
1.948057
32
-0.750000
13
9.804839
23
1.948057
33
-0.750000
0
3DFACE
8
0
62
1
10
9.804839
20
1.003995
30
1.299987
11
9.804839
21
1.948057
31
1.214510
12
9.274837
22
1.886530
32
0.687913
13
9.274837
23
1.886530
33
0.687913
0
3DFACE
8
0
62
1
10
9.274837
20
1.886530
30
0.687913
11
9.274839
21
0.974629
31
0.770478
12
9.804839
22
1.003995
32
1.299987
13
9.804839
23
1.003995
33
1.299987
0
3DFACE
8
0
62
1
10
9.804839
20
1.003995
30
-0.750000
11
9.804839
21
0.059932
31
-0.750000
12
9.274839
22
0.059932
32
-0.220000
13
9.274839
23
0.059932
33
-0.220000
0
3DFACE
8
0
62
1
10
9.274839
20
0.059932
30
-0.220000
11
9.274838
21
1.003995
31
-0.220000
12
9.804839
22
1.003995
32
-0.750000
13
9.804839
23
1.003995
33
-0.750000
0
3DFACE
8
0
62
1
10
9.804839
20
0.059932
30
1.319349
11
9.804839
21
1.003995
31
1.299987
12
9.274839
22
0.974629
32
0.770478
13
9.274839
23
0.974629
33
0.770478
0
3DFACE
8
0
62
1
10
9.274839
20
0.974629
30
0.770478
11
9.274839
21
0.068780
31
0.789056
12
9.804839
22
0.059932
32
1.319349
13
9.804839
23
0.059932
33
1.319349
0
3DFACE
8
0
62
1
10
9.804839
20
0.059932
30
-0.750000
11
9.804839
21
-0.884130
31
-0.750000
12
9.274839
22
-0.884130
32
-0.220000
13
9.274839
23
-0.884130
33
-0.220000
0
3DFACE
8
0
62
1
10
9.274839
20
-0.884130
30
-0.220000
11
9.274839
21
0.059932
31
-0.220000
12
9.804839
22
0.059932
32
-0.750000
13
9.804839
23
0.059932
33
-0.750000
0
3DFACE
8
0
62
1
10
9.804839
20
-0.884130
30
1.268441
11
9.804839
21
0.059932
31
1.319349
12
9.274839
22
0.068780
32
0.789056
13
9.274839
23
0.068780
33
0.789056
0
3DFACE
8
0
62
1
10
9.274839
20
0.068780
30
0.789056
11
9.274839
21
-0.838930
31
0.740108
12
9.804839
22
-0.884130
32
1.268441
13
9.804839
23
-0.884130
33
1.268441
0
3DFACE
8
0
62
1
10
9.804839
20
-0.884130
30
-0.750000
11
9.804839
21
-1.828193
31
-0.750000
12
9.274839
22
-1.828193
32
-0.220000
13
9.274839
23
-1.828193
33
-0.220000
0
3DFACE
8
0
62
1
10
9.274839
20
-1.828193
30
-0.220000
11
9.274839
21
-0.884130
31
-0.220000
12
9.804839
22
-0.884130
32
-0.750000
13
9.804839
23
-0.884130
33
-0.750000
0
3DFACE
8
0
62
1
10
9.804839
20
-1.828193
30
1.157655
11
9.804839
21
-0.884130
31
1.268441
12
9.274839
22
-0.838930
32
0.740108
13
9.274839
23
-0.838930
33
0.740108
0
3DFACE
8
0
62
1
10
9.274839
20
-0.838930
30
0.740108
11
9.274839
21
-1.755652
31
0.632531
12
9.804839
22
-1.828193
32
1.157655
13
9.804839
23
-1.828193
33
1.157655
0
3DFACE
8
0
62
1
10
9.804839
20
-1.828193
30
-0.750000
11
9.804839
21
-2.772255
31
-0.750000
12
9.274839
22
-2.772255
32
-0.220000
13
9.274839
23
-2.772255
33
-0.220000
0
3DFACE
8
0
62
1
10
9.274839
20
-2.772255
30
-0.220000
11
9.274839
21
-1.828193
31
-0.220000
12
9.804839
22
-1.828193
32
-0.750000
13
9.804839
23
-1.828193
33
-0.750000
0
3DFACE
8
0
62
1
10
9.804839
20
-2.772255
30
1.007503
11
9.804839
21
-1.828193
31
1.157655
12
9.274839
22
-1.755652
32
0.632531
13
9.274839
23
-1.755652
33
0.632531
0
3DFACE
8
0
62
1
10
9.274839
20
-1.755652
30
0.632531
11
9.274839
21
-2.685936
31
0.484570
12
9.804839
22
-2.772255
32
1.007503
13
9.804839
23
-2.772255
33
1.007503
0
3DFACE
8
0
62
1
10
9.804839
20
-2.772255
30
-0.750000
11
9.804839
21
-3.716318
31
-0.750000
12
9.274839
22
-3.716318
32
-0.220000
13
9.274839
23
-3.716318
33
-0.220000
0
3DFACE
8
0
62
1
10
9.274839
20
-3.716318
30
-0.220000
11
9.274839
21
-2.772255
31
-0.220000
12
9.804839
22
-2.772255
32
-0.750000
13
9.804839
23
-2.772255
33
-0.750000
0
3DFACE
8
0
62
1
10
9.804839
20
-3.716318
30
0.845975
11
9.804839
21
-2.772255
31
1.007503
12
9.274839
22
-2.685936
32
0.484570
13
9.274839
23
-2.685936
33
0.484570
0
3DFACE
8
0
62
1
10
9.274839
20
-2.685936
30
0.484570
11
9.274839
21
-3.632390
31
0.322633
12
9.804839
22
-3.716318
32
0.845975
13
9.804839
23
-3.716318
33
0.845975
0
3DFACE
8
0
62
1
10
9.804839
20
-3.716318
30
-0.750000
11
9.804839
21
-4.660380
31
-0.750000
12
9.274839
22
-4.660380
32
-0.220000
13
9.274839
23
-4.660380
33
-0.220000
0
3DFACE
8
0
62
1
10
9.274839
20
-4.660380
30
-0.220000
11
9.274839
21
-3.716318
31
-0.220000
12
9.804839
22
-3.716318
32
-0.750000
13
9.804839
23
-3.716318
33
-0.750000
0
3DFACE
8
0
62
1
10
9.804839
20
-4.660380
30
0.704671
11
9.804839
21
-3.716318
31
0.845975
12
9.274839
22
-3.632390
32
0.322633
13
9.274839
23
-3.632390
33
0.322633
0
3DFACE
8
0
62
1
10
9.274839
20
-3.632390
30
0.322633
11
9.274839
21
-4.595335
31
0.178502
12
9.804839
22
-4.660380
32
0.704671
13
9.804839
23
-4.660380
33
0.704671
0
3DFACE
8
0
62
1
10
9.804839
20
-4.660380
30
-0.750000
11
9.804839
21
-5.604443
31
-0.750000
12
9.274839
22
-5.604443
32
-0.220000
13
9.274839
23
-5.604443
33
-0.220000
0
3DFACE
8
0
62
1
10
9.274839
20
-5.604443
30
-0.220000
11
9.274839
21
-4.660380
31
-0.220000
12
9.804839
22
-4.660380
32
-0.750000
13
9.804839
23
-4.660380
33
-0.750000
0
3DFACE
8
0
62
1
10
9.804839
20
-5.604443
30
0.612409
11
9.804839
21
-4.660380
31
0.704671
12
9.274839
22
-4.595335
32
0.178502
13
9.274839
23
-4.595335
33
0.178502
0
3DFACE
8
0
62
1
10
9.274839
20
-4.595335
30
0.178502
11
9.274839
21
-5.571585
31
0.083095
12
9.804839
22
-5.604443
32
0.612409
13
9.804839
23
-5.604443
33
0.612409
0
3DFACE
8
0
62
1
10
9.804839
20
-5.604443
30
-0.750000
11
9.804839
21
-6.548505
31
-0.750000
12
9.274839
22
-6.548505
32
-0.220000
13
9.274839
23
-6.548505
33
-0.220000
0
3DFACE
8
0
62
1
10
9.274839
20
-6.548505
30
-0.220000
11
9.274839
21
-5.604443
31
-0.220000
12
9.804839
22
-5.604443
32
-0.750000
13
9.804839
23
-5.604443
33
-0.750000
0
3DFACE
8
0
62
1
10
9.804839
20
-6.548505
30
0.587317
11
9.804839
21
-5.604443
31
0.612409
12
9.274839
22
-5.571585
32
0.083095
13
9.274839
23
-5.571585
33
0.083095
0
3DFACE
8
0
62
1
10
9.274839
20
-5.571585
30
0.083095
11
9.274839
21
-6.553453
31
0.056998
12
9.804839
22
-6.548505
32
0.587317
13
9.804839
23
-6.548505
33
0.587317
0
3DFACE
8
0
62
1
10
9.804839
20
-6.548505
30
-0.750000
11
9.804839
21
-7.492568
31
-0.750000
12
9.274839
22
-7.492568
32
-0.220000
13
9.274839
23
-7.492568
33
-0.220000
0
3DFACE
8
0
62
1
10
9.274839
20
-7.492568
30
-0.220000
11
9.274839
21
-6.548505
31
-0.220000
12
9.804839
22
-6.548505
32
-0.750000
13
9.804839
23
-6.548505
33
-0.750000
0
3DFACE
8
0
62
1
10
9.804839
20
-7.492568
30
0.630047
11
9.804839
21
-6.548505
31
0.587317
12
9.274839
22
-6.553453
32
0.056998
13
9.274839
23
-6.553453
33
0.056998
0
3DFACE
8
0
62
1
10
9.274839
20
-6.553453
30
0.056998
11
9.274839
21
-7.530049
31
0.101201
12
9.804839
22
-7.492568
32
0.630047
13
9.804839
23
-7.492568
33
0.630047
0
3DFACE
8
0
62
1
10
9.804839
20
-7.492568
30
-0.750000
11
9.804839
21
-8.436630
31
-0.750000
12
9.274839
22
-8.436630
32
-0.220000
13
9.274839
23
-8.436630
33
-0.220000
0
3DFACE
8
0
62
1
10
9.274839
20
-8.436630
30
-0.220000
11
9.274839
21
-7.492568
31
-0.220000
12
9.804839
22
-7.492568
32
-0.750000
13
9.804839
23
-7.492568
33
-0.750000
0
3DFACE
8
0
62
1
10
9.804839
20
-8.436630
30
0.721226
11
9.804839
21
-7.492568
31
0.630047
12
9.274839
22
-7.530049
32
0.101201
13
9.274839
23
-7.530049
33
0.101201
0
3DFACE
8
0
62
1
10
9.274839
20
-7.530049
30
0.101201
11
9.274839
21
-8.491118
31
0.194022
12
9.804839
22
-8.436630
32
0.721226
13
9.804839
23
-8.436630
33
0.721226
0
3DFACE
8
0
62
1
10
9.804839
20
-8.436630
30
-0.750000
11
9.804839
21
-9.380692
31
-0.750000
12
9.274839
22
-9.380692
32
-0.220000
13
9.274839
23
-9.380692
33
-0.220000
0
3DFACE
8
0
62
1
10
9.274839
20
-9.380692
30
-0.220000
11
9.274839
21
-8.436630
31
-0.220000
12
9.804839
22
-8.436630
32
-0.750000
13
9.804839
23
-8.436630
33
-0.750000
0
3DFACE
8
0
62
1
10
9.804839
20
-9.380692
30
0.825201
11
9.804839
21
-8.436630
31
0.721226
12
9.274839
22
-8.491118
32
0.194022
13
9.274839
23
-8.491118
33
0.194022
0
3DFACE
8
0
62
1
10
9.274839
20
-8.491118
30
0.194022
11
9.274839
21
-9.430642
31
0.297498
12
9.804839
22
-9.380692
32
0.825201
13
9.804839
23
-9.380692
33
0.825201
0
3DFACE
8
0
62
1
10
9.804839
20
-9.380692
30
-0.750000
11
9.804839
21
-10.324755
31
-0.750000
12
9.274839
22
-9.794755
32
-0.220000
13
9.274839
23
-9.794755
33
-0.220000
0
3DFACE
8
0
62
1
10
9.274839
20
-9.794755
30
-0.220000
11
9.274839
21
-9.380692
31
-0.220000
12
9.804839
22
-9.380692
32
-0.750000
13
9.804839
23
-9.380692
33
-0.750000
0
3DFACE
8
0
62
1
10
9.686845
20
-10.718307
30
-0.202931
11
9.686596
21
-10.718232
31
0.272570
12
9.470090
22
-10.527304
32
0.107254
13
9.470090
23
-10.527304
33
0.107254
0
3DFACE
8
0
62
1
10
9.470090
20
-10.527304
30
0.107254
11
9.470090
21
-10.527304
31
-0.050193
12
9.686845
22
-10.718307
32
-0.202931
13
9.686845
23
-10.718307
33
-0.202931
0
3DFACE
8
0
62
1
10
9.804839
20
-10.324755
30
0.899989
11
9.804839
21
-9.380692
31
0.825201
12
9.274839
22
-9.430642
32
0.297498
13
9.274839
23
-9.430642
33
0.297498
0
3DFACE
8
0
62
1
10
9.274839
20
-9.430642
30
0.297498
11
9.274839
21
-9.794755
31
0.326342
12
9.804839
22
-10.324755
32
0.899989
13
9.804839
23
-10.324755
33
0.899989
0
3DFACE
8
0
62
1
10
10.599839
20
-10.324755
30
0.840000
11
9.804839
21
-10.324755
31
0.899989
12
9.686596
22
-10.718232
32
0.272570
13
9.686596
23
-10.718232
33
0.272570
0
3DFACE
8
0
62
1
10
9.686596
20
-10.718232
30
0.272570
11
9.959936
21
-10.724777
31
0.255282
12
10.599839
22
-10.324755
32
0.840000
13
10.599839
23
-10.324755
33
0.840000
0
3DFACE
8
0
62
1
10
-9.805160
20
-10.324755
30
0.899989
11
-10.600160
21
-10.324755
31
0.840000
12
-9.960259
22
-10.724777
32
0.317190
13
-9.960259
23
-10.724777
33
0.317190
0
3DFACE
8
0
62
1
10
-9.960259
20
-10.724777
30
0.317190
11
-9.686917
21
-10.718232
31
0.334478
12
-9.805160
22
-10.324755
32
0.899989
13
-9.805160
23
-10.324755
33
0.899989
0
3DFACE
8
0
62
1
10
10.599839
20
-10.324755
30
-0.750000
11
10.599839
21
-10.324755
31
0.840000
12
9.959936
22
-10.724777
32
0.255282
13
9.959936
23
-10.724777
33
0.255282
0
3DFACE
8
0
62
1
10
9.959936
20
-10.724777
30
0.255282
11
9.959936
21
-10.724777
31
-0.202931
12
10.599839
22
-10.324755
32
-0.750000
13
10.599839
23
-10.324755
33
-0.750000
0
3DFACE
8
0
62
1
10
-10.600160
20
-10.324755
30
0.840000
11
-10.600160
21
-10.324755
31
-0.750000
12
-9.960259
22
-10.724777
32
-0.141023
13
-9.960259
23
-10.724777
33
-0.141023
0
3DFACE
8
0
62
1
10
-9.960259
20
-10.724777
30
-0.141023
11
-9.960259
21
-10.724777
31
0.317190
12
-10.600160
22
-10.324755
32
0.840000
13
-10.600160
23
-10.324755
33
0.840000
0
3DFACE
8
0
62
1
10
-10.600160
20
-10.324755
30
-0.750000
11
-9.805160
21
-10.324755
31
-0.750000
12
-9.687166
22
-10.718307
32
-0.141023
13
-9.687166
23
-10.718307
33
-0.141023
0
3DFACE
8
0
62
1
10
-9.687166
20
-10.718307
30
-0.141023
11
-9.960259
21
-10.724777
31
-0.141023
12
-10.600160
22
-10.324755
32
-0.750000
13
-10.600160
23
-10.324755
33
-0.750000
0
3DFACE
8
0
62
1
10
-9.275160
20
-9.794755
30
-0.220000
11
-9.275160
21
-9.794755
31
0.326342
12
-9.470412
22
-10.527304
32
0.125610
13
-9.470412
23
-10.527304
33
0.125610
0
3DFACE
8
0
62
1
10
9.274839
20
-9.794755
30
0.326342
11
9.274839
21
-9.794755
31
-0.220000
12
9.470090
22
-10.527304
32
-0.050193
13
9.470090
23
-10.527304
33
-0.050193
0
3DFACE
8
0
62
1
10
9.470090
20
-10.527304
30
-0.050193
11
9.470090
21
-10.527304
31
0.107254
12
9.274839
22
-9.794755
32
0.326342
13
9.274839
23
-9.794755
33
0.326342
0
3DFACE
8
0
62
1
10
9.804839
20
-10.324755
30
-0.750000
11
10.599839
21
-10.324755
31
-0.750000
12
9.959936
22
-10.724777
32
-0.202931
13
9.959936
23
-10.724777
33
-0.202931
0
3DFACE
8
0
62
1
10
9.959936
20
-10.724777
30
-0.202931
11
9.686845
21
-10.718307
31
-0.202931
12
9.804839
22
-10.324755
32
-0.750000
13
9.804839
23
-10.324755
33
-0.750000
0
3DFACE
8
0
62
1
10
-9.805160
20
-10.324755
30
-0.750000
11
-9.275160
21
-9.794755
31
-0.220000
12
-9.470412
22
-10.527304
32
0.125610
13
-9.470412
23
-10.527304
33
0.125610
0
3DFACE
8
0
62
1
10
-9.470412
20
-10.527304
30
0.125610
11
-9.687166
21
-10.718307
31
-0.141023
12
-9.805160
22
-10.324755
32
-0.750000
13
-9.805160
23
-10.324755
33
-0.750000
0
3DFACE
8
0
62
1
10
-9.275160
20
-9.794755
30
0.326342
11
-9.805160
21
-10.324755
31
0.899989
12
-9.686917
22
-10.718232
32
0.334478
13
-9.686917
23
-10.718232
33
0.334478
0
3DFACE
8
0
62
1
10
-9.686917
20
-10.718232
30
0.334478
11
-9.470412
21
-10.527304
31
0.125610
12
-9.275160
22
-9.794755
32
0.326342
13
-9.275160
23
-9.794755
33
0.326342
0
3DFACE
8
0
62
1
10
9.274839
20
-9.794755
30
-0.220000
11
9.804839
21
-10.324755
31
-0.750000
12
9.686845
22
-10.718307
32
-0.202931
13
9.686845
23
-10.718307
33
-0.202931
0
3DFACE
8
0
62
1
10
9.686845
20
-10.718307
30
-0.202931
11
9.470090
21
-10.527304
31
-0.050193
12
9.274839
22
-9.794755
32
-0.220000
13
9.274839
23
-9.794755
33
-0.220000
0
3DFACE
8
0
62
1
10
9.804839
20
-10.324755
30
0.899989
11
9.274839
21
-9.794755
31
0.326342
12
9.470090
22
-10.527304
32
0.107254
13
9.470090
23
-10.527304
33
0.107254
0
3DFACE
8
0
62
1
10
9.470090
20
-10.527304
30
0.107254
11
9.686596
21
-10.718232
31
0.272570
12
9.804839
22
-10.324755
32
0.899989
13
9.804839
23
-10.324755
33
0.899989
0
3DFACE
8
0
62
1
10
-10.000000
20
5.199999
30
-0.450000
11
-10.000000
21
-9.800001
31
-0.450000
12
10.000000
22
5.199999
32
-0.450000
13
10.000000
23
5.199999
33
-0.450000
0
3DFACE
8
0
62
1
10
10.000000
20
-9.800001
30
-0.450000
11
10.000000
21
5.199999
31
-0.450000
12
-10.000000
22
-9.800001
32
-0.450000
13
-10.000000
23
-9.800001
33
-0.450000
0
ENDSEC
0
EOF
