0
SECTION
2
HEADER
0
ENDSEC
0
SECTION
2
ENTITIES
0
3DFACE
8
0
62
1
10
-0.766589
20
-1.062928
30
-0.300000
11
-0.720764
21
-1.094327
31
-0.300000
12
-0.709140
22
-1.101388
32
0.184809
13
-0.709140
23
-1.101388
33
0.184809
0
3DFACE
8
0
62
1
10
-0.766589
20
-1.062928
30
-0.300000
11
-0.709140
21
-1.101388
31
0.184809
12
-0.766589
22
-1.062928
32
0.184809
13
-0.766589
23
-1.062928
33
0.184809
0
3DFACE
8
0
62
1
10
-0.720764
20
-1.094327
30
-0.300000
11
-0.709140
21
-1.101388
31
-0.300000
12
-0.709140
22
-1.101388
32
0.184809
13
-0.709140
23
-1.101388
33
0.184809
0
3DFACE
8
0
62
1
10
-0.709140
20
-1.101388
30
-0.300000
11
-0.697404
21
-1.107923
31
-0.300000
12
-0.697404
22
-1.107923
32
0.184809
13
-0.697404
23
-1.107923
33
0.184809
0
3DFACE
8
0
62
1
10
-0.709140
20
-1.101388
30
-0.300000
11
-0.697404
21
-1.107923
31
0.184809
12
-0.709140
22
-1.101388
32
0.184809
13
-0.709140
23
-1.101388
33
0.184809
0
3DFACE
8
0
62
1
10
-0.697404
20
-1.107923
30
-0.300000
11
-0.685534
21
-1.113826
31
-0.300000
12
-0.685534
22
-1.113826
32
0.184809
13
-0.685534
23
-1.113826
33
0.184809
0
3DFACE
8
0
62
1
10
-0.697404
20
-1.107923
30
-0.300000
11
-0.685534
21
-1.113826
31
0.184809
12
-0.697404
22
-1.107923
32
0.184809
13
-0.697404
23
-1.107923
33
0.184809
0
3DFACE
8
0
62
1
10
-0.685534
20
-1.113826
30
-0.300000
11
-0.673507
21
-1.118994
31
-0.300000
12
-0.673507
22
-1.118994
32
0.184809
13
-0.673507
23
-1.118994
33
0.184809
0
3DFACE
8
0
62
1
10
-0.685534
20
-1.113826
30
-0.300000
11
-0.673507
21
-1.118994
31
0.184809
12
-0.685534
22
-1.113826
32
0.184809
13
-0.685534
23
-1.113826
33
0.184809
0
3DFACE
8
0
62
1
10
-0.673507
20
-1.118994
30
-0.300000
11
-0.667428
21
-1.121268
31
-0.300000
12
-0.667428
22
-1.121268
32
0.184809
13
-0.667428
23
-1.121268
33
0.184809
0
3DFACE
8
0
62
1
10
-0.673507
20
-1.118994
30
-0.300000
11
-0.667428
21
-1.121268
31
0.184809
12
-0.673507
22
-1.118994
32
0.184809
13
-0.673507
23
-1.118994
33
0.184809
0
3DFACE
8
0
62
1
10
-0.667428
20
-1.121268
30
-0.300000
11
-0.661301
21
-1.123319
31
-0.300000
12
-0.661301
22
-1.123319
32
0.184809
13
-0.661301
23
-1.123319
33
0.184809
0
3DFACE
8
0
62
1
10
-0.667428
20
-1.121268
30
-0.300000
11
-0.661301
21
-1.123319
31
0.184809
12
-0.667428
22
-1.121268
32
0.184809
13
-0.667428
23
-1.121268
33
0.184809
0
3DFACE
8
0
62
1
10
-0.661301
20
-1.123319
30
-0.300000
11
-0.655124
21
-1.125134
31
-0.300000
12
-0.655124
22
-1.125134
32
0.184809
13
-0.655124
23
-1.125134
33
0.184809
0
3DFACE
8
0
62
1
10
-0.661301
20
-1.123319
30
-0.300000
11
-0.655124
21
-1.125134
31
0.184809
12
-0.661301
22
-1.123319
32
0.184809
13
-0.661301
23
-1.123319
33
0.184809
0
3DFACE
8
0
62
1
10
-0.655124
20
-1.125134
30
-0.300000
11
-0.648894
21
-1.126698
31
-0.300000
12
-0.648894
22
-1.126698
32
0.184809
13
-0.648894
23
-1.126698
33
0.184809
0
3DFACE
8
0
62
1
10
-0.655124
20
-1.125134
30
-0.300000
11
-0.648894
21
-1.126698
31
0.184809
12
-0.655124
22
-1.125134
32
0.184809
13
-0.655124
23
-1.125134
33
0.184809
0
3DFACE
8
0
62
1
10
-0.648894
20
-1.126698
30
-0.300000
11
-0.642608
21
-1.128000
31
-0.300000
12
-0.642608
22
-1.128000
32
0.184809
13
-0.642608
23
-1.128000
33
0.184809
0
3DFACE
8
0
62
1
10
-0.648894
20
-1.126698
30
-0.300000
11
-0.642608
21
-1.128000
31
0.184809
12
-0.648894
22
-1.126698
32
0.184809
13
-0.648894
23
-1.126698
33
0.184809
0
3DFACE
8
0
62
1
10
-0.642608
20
-1.128000
30
-0.300000
11
-0.636263
21
-1.129025
31
-0.300000
12
-0.636263
22
-1.129025
32
0.184809
13
-0.636263
23
-1.129025
33
0.184809
0
3DFACE
8
0
62
1
10
-0.642608
20
-1.128000
30
-0.300000
11
-0.636263
21
-1.129025
31
0.184809
12
-0.642608
22
-1.128000
32
0.184809
13
-0.642608
23
-1.128000
33
0.184809
0
3DFACE
8
0
62
1
10
-0.636263
20
-1.129025
30
-0.300000
11
-0.629857
21
-1.129761
31
-0.300000
12
-0.629857
22
-1.129761
32
0.184809
13
-0.629857
23
-1.129761
33
0.184809
0
3DFACE
8
0
62
1
10
-0.636263
20
-1.129025
30
-0.300000
11
-0.629857
21
-1.129761
31
0.184809
12
-0.636263
22
-1.129025
32
0.184809
13
-0.636263
23
-1.129025
33
0.184809
0
3DFACE
8
0
62
1
10
-0.629857
20
-1.129761
30
-0.300000
11
-0.623386
21
-1.130195
31
-0.300000
12
-0.623386
22
-1.130195
32
0.184809
13
-0.623386
23
-1.130195
33
0.184809
0
3DFACE
8
0
62
1
10
-0.629857
20
-1.129761
30
-0.300000
11
-0.623386
21
-1.130195
31
0.184809
12
-0.629857
22
-1.129761
32
0.184809
13
-0.629857
23
-1.129761
33
0.184809
0
3DFACE
8
0
62
1
10
-0.623386
20
-1.130195
30
-0.300000
11
-0.616848
21
-1.130313
31
-0.300000
12
-0.616848
22
-1.130313
32
0.184809
13
-0.616848
23
-1.130313
33
0.184809
0
3DFACE
8
0
62
1
10
-0.623386
20
-1.130195
30
-0.300000
11
-0.616848
21
-1.130313
31
0.184809
12
-0.623386
22
-1.130195
32
0.184809
13
-0.623386
23
-1.130195
33
0.184809
0
3DFACE
8
0
62
1
10
-0.616848
20
-1.130313
30
-0.300000
11
-0.610241
21
-1.130102
31
-0.300000
12
-0.610241
22
-1.130102
32
0.184809
13
-0.610241
23
-1.130102
33
0.184809
0
3DFACE
8
0
62
1
10
-0.616848
20
-1.130313
30
-0.300000
11
-0.610241
21
-1.130102
31
0.184809
12
-0.616848
22
-1.130313
32
0.184809
13
-0.616848
23
-1.130313
33
0.184809
0
3DFACE
8
0
62
1
10
-0.610241
20
-1.130102
30
-0.300000
11
-0.603560
21
-1.129550
31
-0.300000
12
-0.603560
22
-1.129550
32
0.184809
13
-0.603560
23
-1.129550
33
0.184809
0
3DFACE
8
0
62
1
10
-0.610241
20
-1.130102
30
-0.300000
11
-0.603560
21
-1.129550
31
0.184809
12
-0.610241
22
-1.130102
32
0.184809
13
-0.610241
23
-1.130102
33
0.184809
0
3DFACE
8
0
62
1
10
-0.603560
20
-1.129550
30
-0.300000
11
-0.596804
21
-1.128642
31
-0.300000
12
-0.596804
22
-1.128642
32
0.184809
13
-0.596804
23
-1.128642
33
0.184809
0
3DFACE
8
0
62
1
10
-0.603560
20
-1.129550
30
-0.300000
11
-0.596804
21
-1.128642
31
0.184809
12
-0.603560
22
-1.129550
32
0.184809
13
-0.603560
23
-1.129550
33
0.184809
0
3DFACE
8
0
62
1
10
-0.596804
20
-1.128642
30
-0.300000
11
-0.589970
21
-1.127366
31
-0.300000
12
-0.589970
22
-1.127366
32
0.184809
13
-0.589970
23
-1.127366
33
0.184809
0
3DFACE
8
0
62
1
10
-0.596804
20
-1.128642
30
-0.300000
11
-0.589970
21
-1.127366
31
0.184809
12
-0.596804
22
-1.128642
32
0.184809
13
-0.596804
23
-1.128642
33
0.184809
0
3DFACE
8
0
62
1
10
-0.589970
20
-1.127366
30
-0.300000
11
-0.583054
21
-1.125709
31
-0.300000
12
-0.583054
22
-1.125709
32
0.184809
13
-0.583054
23
-1.125709
33
0.184809
0
3DFACE
8
0
62
1
10
-0.589970
20
-1.127366
30
-0.300000
11
-0.583054
21
-1.125709
31
0.184809
12
-0.589970
22
-1.127366
32
0.184809
13
-0.589970
23
-1.127366
33
0.184809
0
3DFACE
8
0
62
1
10
-0.583054
20
-1.125709
30
-0.300000
11
-0.576055
21
-1.123657
31
-0.300000
12
-0.576055
22
-1.123657
32
0.184809
13
-0.576055
23
-1.123657
33
0.184809
0
3DFACE
8
0
62
1
10
-0.583054
20
-1.125709
30
-0.300000
11
-0.576055
21
-1.123657
31
0.184809
12
-0.583054
22
-1.125709
32
0.184809
13
-0.583054
23
-1.125709
33
0.184809
0
3DFACE
8
0
62
1
10
-0.576055
20
-1.123657
30
-0.300000
11
-0.568969
21
-1.121198
31
-0.300000
12
-0.568969
22
-1.121198
32
0.184809
13
-0.568969
23
-1.121198
33
0.184809
0
3DFACE
8
0
62
1
10
-0.576055
20
-1.123657
30
-0.300000
11
-0.568969
21
-1.121198
31
0.184809
12
-0.576055
22
-1.123657
32
0.184809
13
-0.576055
23
-1.123657
33
0.184809
0
3DFACE
8
0
62
1
10
-0.568969
20
-1.121198
30
-0.300000
11
-0.561794
21
-1.118318
31
-0.300000
12
-0.561794
22
-1.118318
32
0.184809
13
-0.561794
23
-1.118318
33
0.184809
0
3DFACE
8
0
62
1
10
-0.568969
20
-1.121198
30
-0.300000
11
-0.561794
21
-1.118318
31
0.184809
12
-0.568969
22
-1.121198
32
0.184809
13
-0.568969
23
-1.121198
33
0.184809
0
3DFACE
8
0
62
1
10
-0.561794
20
-1.118318
30
-0.300000
11
-0.554526
21
-1.115004
31
-0.300000
12
-0.554526
22
-1.115004
32
0.184809
13
-0.554526
23
-1.115004
33
0.184809
0
3DFACE
8
0
62
1
10
-0.561794
20
-1.118318
30
-0.300000
11
-0.554526
21
-1.115004
31
0.184809
12
-0.561794
22
-1.118318
32
0.184809
13
-0.561794
23
-1.118318
33
0.184809
0
3DFACE
8
0
62
1
10
-0.554526
20
-1.115004
30
-0.300000
11
-0.547163
21
-1.111243
31
-0.300000
12
-0.547163
22
-1.111243
32
0.184809
13
-0.547163
23
-1.111243
33
0.184809
0
3DFACE
8
0
62
1
10
-0.554526
20
-1.115004
30
-0.300000
11
-0.547163
21
-1.111243
31
0.184809
12
-0.554526
22
-1.115004
32
0.184809
13
-0.554526
23
-1.115004
33
0.184809
0
3DFACE
8
0
62
1
10
-0.547163
20
-1.111243
30
-0.300000
11
-0.539702
21
-1.107021
31
-0.300000
12
-0.539702
22
-1.107021
32
0.184809
13
-0.539702
23
-1.107021
33
0.184809
0
3DFACE
8
0
62
1
10
-0.547163
20
-1.111243
30
-0.300000
11
-0.539702
21
-1.107021
31
0.184809
12
-0.547163
22
-1.111243
32
0.184809
13
-0.547163
23
-1.111243
33
0.184809
0
3DFACE
8
0
62
1
10
-0.539702
20
-1.107021
30
-0.300000
11
-0.532140
21
-1.102327
31
-0.300000
12
-0.532140
22
-1.102327
32
0.184809
13
-0.532140
23
-1.102327
33
0.184809
0
3DFACE
8
0
62
1
10
-0.539702
20
-1.107021
30
-0.300000
11
-0.532140
21
-1.102327
31
0.184809
12
-0.539702
22
-1.107021
32
0.184809
13
-0.539702
23
-1.107021
33
0.184809
0
3DFACE
8
0
62
1
10
-0.532140
20
-1.102327
30
-0.300000
11
-0.524475
21
-1.097145
31
-0.300000
12
-0.524475
22
-1.097145
32
0.184809
13
-0.524475
23
-1.097145
33
0.184809
0
3DFACE
8
0
62
1
10
-0.532140
20
-1.102327
30
-0.300000
11
-0.524475
21
-1.097145
31
0.184809
12
-0.532140
22
-1.102327
32
0.184809
13
-0.532140
23
-1.102327
33
0.184809
0
3DFACE
8
0
62
1
10
-0.524475
20
-1.097145
30
-0.300000
11
-0.516704
21
-1.091464
31
-0.300000
12
-0.516704
22
-1.091464
32
0.184809
13
-0.516704
23
-1.091464
33
0.184809
0
3DFACE
8
0
62
1
10
-0.524475
20
-1.097145
30
-0.300000
11
-0.516704
21
-1.091464
31
0.184809
12
-0.524475
22
-1.097145
32
0.184809
13
-0.524475
23
-1.097145
33
0.184809
0
3DFACE
8
0
62
1
10
-0.516704
20
-1.091464
30
-0.300000
11
-0.508824
21
-1.085270
31
-0.300000
12
-0.508824
22
-1.085270
32
0.184809
13
-0.508824
23
-1.085270
33
0.184809
0
3DFACE
8
0
62
1
10
-0.516704
20
-1.091464
30
-0.300000
11
-0.508824
21
-1.085270
31
0.184809
12
-0.516704
22
-1.091464
32
0.184809
13
-0.516704
23
-1.091464
33
0.184809
0
3DFACE
8
0
62
1
10
-0.508824
20
-1.085270
30
-0.300000
11
-0.492724
21
-1.071291
31
-0.300000
12
-0.492724
22
-1.071291
32
0.184809
13
-0.492724
23
-1.071291
33
0.184809
0
3DFACE
8
0
62
1
10
-0.508824
20
-1.085270
30
-0.300000
11
-0.492724
21
-1.071291
31
0.184809
12
-0.508824
22
-1.085270
32
0.184809
13
-0.508824
23
-1.085270
33
0.184809
0
3DFACE
8
0
62
1
10
-0.492724
20
-1.071291
30
-0.300000
11
-0.476155
21
-1.055104
31
0.184809
12
-0.492724
22
-1.071291
32
0.184809
13
-0.492724
23
-1.071291
33
0.184809
0
3DFACE
8
0
62
1
10
-0.492724
20
-1.071291
30
-0.300000
11
-0.182493
21
-0.604715
31
-0.300000
12
-0.182493
22
-0.604715
32
0.184809
13
-0.182493
23
-0.604715
33
0.184809
0
3DFACE
8
0
62
1
10
-0.492724
20
-1.071291
30
-0.300000
11
-0.182493
21
-0.604715
31
0.184809
12
-0.476155
22
-1.055104
32
0.184809
13
-0.476155
23
-1.055104
33
0.184809
0
3DFACE
8
0
62
1
10
-0.182493
20
-0.604715
30
-0.300000
11
-0.169610
21
-0.592039
31
-0.300000
12
-0.169610
22
-0.592039
32
0.184809
13
-0.169610
23
-0.592039
33
0.184809
0
3DFACE
8
0
62
1
10
-0.182493
20
-0.604715
30
-0.300000
11
-0.169610
21
-0.592039
31
0.184809
12
-0.182493
22
-0.604715
32
0.184809
13
-0.182493
23
-0.604715
33
0.184809
0
3DFACE
8
0
62
1
10
-0.169610
20
-0.592039
30
-0.300000
11
-0.156583
21
-0.580497
31
-0.300000
12
-0.156583
22
-0.580497
32
0.184809
13
-0.156583
23
-0.580497
33
0.184809
0
3DFACE
8
0
62
1
10
-0.169610
20
-0.592039
30
-0.300000
11
-0.156583
21
-0.580497
31
0.184809
12
-0.169610
22
-0.592039
32
0.184809
13
-0.169610
23
-0.592039
33
0.184809
0
3DFACE
8
0
62
1
10
-0.156583
20
-0.580497
30
-0.300000
11
-0.143419
21
-0.570074
31
-0.300000
12
-0.143419
22
-0.570074
32
0.184809
13
-0.143419
23
-0.570074
33
0.184809
0
3DFACE
8
0
62
1
10
-0.156583
20
-0.580497
30
-0.300000
11
-0.143419
21
-0.570074
31
0.184809
12
-0.156583
22
-0.580497
32
0.184809
13
-0.156583
23
-0.580497
33
0.184809
0
3DFACE
8
0
62
1
10
-0.143419
20
-0.570074
30
-0.300000
11
-0.130124
21
-0.560756
31
-0.300000
12
-0.130124
22
-0.560756
32
0.184809
13
-0.130124
23
-0.560756
33
0.184809
0
3DFACE
8
0
62
1
10
-0.143419
20
-0.570074
30
-0.300000
11
-0.130124
21
-0.560756
31
0.184809
12
-0.143419
22
-0.570074
32
0.184809
13
-0.143419
23
-0.570074
33
0.184809
0
3DFACE
8
0
62
1
10
-0.130124
20
-0.560756
30
-0.300000
11
-0.116704
21
-0.552530
31
-0.300000
12
-0.116704
22
-0.552530
32
0.184809
13
-0.116704
23
-0.552530
33
0.184809
0
3DFACE
8
0
62
1
10
-0.130124
20
-0.560756
30
-0.300000
11
-0.116704
21
-0.552530
31
0.184809
12
-0.130124
22
-0.560756
32
0.184809
13
-0.130124
23
-0.560756
33
0.184809
0
3DFACE
8
0
62
1
10
-0.116704
20
-0.552530
30
-0.300000
11
-0.103165
21
-0.545383
31
-0.300000
12
-0.103165
22
-0.545383
32
0.184809
13
-0.103165
23
-0.545383
33
0.184809
0
3DFACE
8
0
62
1
10
-0.116704
20
-0.552530
30
-0.300000
11
-0.103165
21
-0.545383
31
0.184809
12
-0.116704
22
-0.552530
32
0.184809
13
-0.116704
23
-0.552530
33
0.184809
0
3DFACE
8
0
62
1
10
-0.103165
20
-0.545383
30
-0.300000
11
-0.089513
21
-0.539299
31
-0.300000
12
-0.089513
22
-0.539299
32
0.184809
13
-0.089513
23
-0.539299
33
0.184809
0
3DFACE
8
0
62
1
10
-0.103165
20
-0.545383
30
-0.300000
11
-0.089513
21
-0.539299
31
0.184809
12
-0.103165
22
-0.545383
32
0.184809
13
-0.103165
23
-0.545383
33
0.184809
0
3DFACE
8
0
62
1
10
-0.089513
20
-0.539299
30
-0.300000
11
-0.075754
21
-0.534266
31
-0.300000
12
-0.075754
22
-0.534266
32
0.184809
13
-0.075754
23
-0.534266
33
0.184809
0
3DFACE
8
0
62
1
10
-0.089513
20
-0.539299
30
-0.300000
11
-0.075754
21
-0.534266
31
0.184809
12
-0.089513
22
-0.539299
32
0.184809
13
-0.089513
23
-0.539299
33
0.184809
0
3DFACE
8
0
62
1
10
-0.075754
20
-0.534266
30
-0.300000
11
-0.068836
21
-0.532139
31
-0.300000
12
-0.068836
22
-0.532139
32
0.184809
13
-0.068836
23
-0.532139
33
0.184809
0
3DFACE
8
0
62
1
10
-0.075754
20
-0.534266
30
-0.300000
11
-0.068836
21
-0.532139
31
0.184809
12
-0.075754
22
-0.534266
32
0.184809
13
-0.075754
23
-0.534266
33
0.184809
0
3DFACE
8
0
62
1
10
-0.068836
20
-0.532139
30
-0.300000
11
-0.061893
21
-0.530269
31
-0.300000
12
-0.061893
22
-0.530269
32
0.184809
13
-0.061893
23
-0.530269
33
0.184809
0
3DFACE
8
0
62
1
10
-0.068836
20
-0.532139
30
-0.300000
11
-0.061893
21
-0.530269
31
0.184809
12
-0.068836
22
-0.532139
32
0.184809
13
-0.068836
23
-0.532139
33
0.184809
0
3DFACE
8
0
62
1
10
-0.061893
20
-0.530269
30
-0.300000
11
-0.054927
21
-0.528655
31
-0.300000
12
-0.054927
22
-0.528655
32
0.184809
13
-0.054927
23
-0.528655
33
0.184809
0
3DFACE
8
0
62
1
10
-0.061893
20
-0.530269
30
-0.300000
11
-0.054927
21
-0.528655
31
0.184809
12
-0.061893
22
-0.530269
32
0.184809
13
-0.061893
23
-0.530269
33
0.184809
0
3DFACE
8
0
62
1
10
-0.054927
20
-0.528655
30
-0.300000
11
-0.047938
21
-0.527295
31
-0.300000
12
-0.047938
22
-0.527295
32
0.184809
13
-0.047938
23
-0.527295
33
0.184809
0
3DFACE
8
0
62
1
10
-0.054927
20
-0.528655
30
-0.300000
11
-0.047938
21
-0.527295
31
0.184809
12
-0.054927
22
-0.528655
32
0.184809
13
-0.054927
23
-0.528655
33
0.184809
0
3DFACE
8
0
62
1
10
-0.047938
20
-0.527295
30
-0.300000
11
-0.040926
21
-0.526187
31
-0.300000
12
-0.040926
22
-0.526187
32
0.184809
13
-0.040926
23
-0.526187
33
0.184809
0
3DFACE
8
0
62
1
10
-0.047938
20
-0.527295
30
-0.300000
11
-0.040926
21
-0.526187
31
0.184809
12
-0.047938
22
-0.527295
32
0.184809
13
-0.047938
23
-0.527295
33
0.184809
0
3DFACE
8
0
62
1
10
-0.040926
20
-0.526187
30
-0.300000
11
-0.033893
21
-0.525329
31
-0.300000
12
-0.033893
22
-0.525329
32
0.184809
13
-0.033893
23
-0.525329
33
0.184809
0
3DFACE
8
0
62
1
10
-0.040926
20
-0.526187
30
-0.300000
11
-0.033893
21
-0.525329
31
0.184809
12
-0.040926
22
-0.526187
32
0.184809
13
-0.040926
23
-0.526187
33
0.184809
0
3DFACE
8
0
62
1
10
-0.033893
20
-0.525329
30
-0.300000
11
-0.026839
21
-0.524721
31
-0.300000
12
-0.026839
22
-0.524721
32
0.184809
13
-0.026839
23
-0.524721
33
0.184809
0
3DFACE
8
0
62
1
10
-0.033893
20
-0.525329
30
-0.300000
11
-0.026839
21
-0.524721
31
0.184809
12
-0.033893
22
-0.525329
32
0.184809
13
-0.033893
23
-0.525329
33
0.184809
0
3DFACE
8
0
62
1
10
-0.026839
20
-0.524721
30
-0.300000
11
-0.019765
21
-0.524359
31
-0.300000
12
-0.019765
22
-0.524359
32
0.184809
13
-0.019765
23
-0.524359
33
0.184809
0
3DFACE
8
0
62
1
10
-0.026839
20
-0.524721
30
-0.300000
11
-0.019765
21
-0.524359
31
0.184809
12
-0.026839
22
-0.524721
32
0.184809
13
-0.026839
23
-0.524721
33
0.184809
0
3DFACE
8
0
62
1
10
-0.019765
20
-0.524359
30
-0.300000
11
-0.005560
21
-0.524370
31
-0.300000
12
-0.005560
22
-0.524370
32
0.184809
13
-0.005560
23
-0.524370
33
0.184809
0
3DFACE
8
0
62
1
10
-0.019765
20
-0.524359
30
-0.300000
11
-0.005560
21
-0.524370
31
0.184809
12
-0.019765
22
-0.524359
32
0.184809
13
-0.019765
23
-0.524359
33
0.184809
0
3DFACE
8
0
62
1
10
-0.005560
20
-0.524370
30
-0.300000
11
0.008717
21
-0.525349
31
-0.300000
12
0.008717
22
-0.525349
32
0.184809
13
0.008717
23
-0.525349
33
0.184809
0
3DFACE
8
0
62
1
10
-0.005560
20
-0.524370
30
-0.300000
11
0.008717
21
-0.525349
31
0.184809
12
-0.005560
22
-0.524370
32
0.184809
13
-0.005560
23
-0.524370
33
0.184809
0
3DFACE
8
0
62
1
10
0.008717
20
-0.525349
30
-0.300000
11
0.023058
21
-0.527281
31
-0.300000
12
0.023058
22
-0.527281
32
0.184809
13
0.023058
23
-0.527281
33
0.184809
0
3DFACE
8
0
62
1
10
0.008717
20
-0.525349
30
-0.300000
11
0.023058
21
-0.527281
31
0.184809
12
0.008717
22
-0.525349
32
0.184809
13
0.008717
23
-0.525349
33
0.184809
0
3DFACE
8
0
62
1
10
0.023058
20
-0.527281
30
-0.300000
11
0.037459
21
-0.530152
31
-0.300000
12
0.037459
22
-0.530152
32
0.184809
13
0.037459
23
-0.530152
33
0.184809
0
3DFACE
8
0
62
1
10
0.023058
20
-0.527281
30
-0.300000
11
0.037459
21
-0.530152
31
0.184809
12
0.023058
22
-0.527281
32
0.184809
13
0.023058
23
-0.527281
33
0.184809
0
3DFACE
8
0
62
1
10
0.037459
20
-0.530152
30
-0.300000
11
0.051913
21
-0.533950
31
-0.300000
12
0.051913
22
-0.533950
32
0.184809
13
0.051913
23
-0.533950
33
0.184809
0
3DFACE
8
0
62
1
10
0.037459
20
-0.530152
30
-0.300000
11
0.051913
21
-0.533950
31
0.184809
12
0.037459
22
-0.530152
32
0.184809
13
0.037459
23
-0.530152
33
0.184809
0
3DFACE
8
0
62
1
10
0.051913
20
-0.533950
30
-0.300000
11
0.066415
21
-0.538660
31
-0.300000
12
0.066415
22
-0.538660
32
0.184809
13
0.066415
23
-0.538660
33
0.184809
0
3DFACE
8
0
62
1
10
0.051913
20
-0.533950
30
-0.300000
11
0.066415
21
-0.538660
31
0.184809
12
0.051913
22
-0.533950
32
0.184809
13
0.051913
23
-0.533950
33
0.184809
0
3DFACE
8
0
62
1
10
0.066415
20
-0.538660
30
-0.300000
11
0.080957
21
-0.544268
31
-0.300000
12
0.080957
22
-0.544268
32
0.184809
13
0.080957
23
-0.544268
33
0.184809
0
3DFACE
8
0
62
1
10
0.066415
20
-0.538660
30
-0.300000
11
0.080957
21
-0.544268
31
0.184809
12
0.066415
22
-0.538660
32
0.184809
13
0.066415
23
-0.538660
33
0.184809
0
3DFACE
8
0
62
1
10
0.080957
20
-0.544268
30
-0.300000
11
0.095535
21
-0.550761
31
-0.300000
12
0.095535
22
-0.550761
32
0.184809
13
0.095535
23
-0.550761
33
0.184809
0
3DFACE
8
0
62
1
10
0.080957
20
-0.544268
30
-0.300000
11
0.095535
21
-0.550761
31
0.184809
12
0.080957
22
-0.544268
32
0.184809
13
0.080957
23
-0.544268
33
0.184809
0
3DFACE
8
0
62
1
10
0.095535
20
-0.550761
30
-0.300000
11
0.110142
21
-0.558125
31
-0.300000
12
0.110142
22
-0.558125
32
0.184809
13
0.110142
23
-0.558125
33
0.184809
0
3DFACE
8
0
62
1
10
0.095535
20
-0.550761
30
-0.300000
11
0.110142
21
-0.558125
31
0.184809
12
0.095535
22
-0.550761
32
0.184809
13
0.095535
23
-0.550761
33
0.184809
0
3DFACE
8
0
62
1
10
0.110142
20
-0.558125
30
-0.300000
11
0.124773
21
-0.566345
31
-0.300000
12
0.124773
22
-0.566345
32
0.184809
13
0.124773
23
-0.566345
33
0.184809
0
3DFACE
8
0
62
1
10
0.110142
20
-0.558125
30
-0.300000
11
0.124773
21
-0.566345
31
0.184809
12
0.110142
22
-0.558125
32
0.184809
13
0.110142
23
-0.558125
33
0.184809
0
3DFACE
8
0
62
1
10
0.124773
20
-0.566345
30
-0.300000
11
0.299983
21
-0.726795
31
-0.300000
12
0.299983
22
-0.726795
32
0.184809
13
0.299983
23
-0.726795
33
0.184809
0
3DFACE
8
0
62
1
10
0.124773
20
-0.566345
30
-0.300000
11
0.299983
21
-0.726795
31
0.184809
12
0.124773
22
-0.566345
32
0.184809
13
0.124773
23
-0.566345
33
0.184809
0
3DFACE
8
0
62
1
10
0.299983
20
-0.726795
30
-0.300000
11
0.440440
21
-0.936014
31
-0.300000
12
0.440440
22
-0.936014
32
0.184809
13
0.440440
23
-0.936014
33
0.184809
0
3DFACE
8
0
62
1
10
0.299983
20
-0.726795
30
-0.300000
11
0.440440
21
-0.936014
31
0.184809
12
0.299983
22
-0.726795
32
0.184809
13
0.299983
23
-0.726795
33
0.184809
0
3DFACE
8
0
62
1
10
0.440440
20
-0.936014
30
-0.300000
11
0.699052
21
-1.441450
31
-0.300000
12
0.699052
22
-1.441450
32
0.184809
13
0.699052
23
-1.441450
33
0.184809
0
3DFACE
8
0
62
1
10
0.440440
20
-0.936014
30
-0.300000
11
0.699052
21
-1.441450
31
0.184809
12
0.440440
22
-0.936014
32
0.184809
13
0.440440
23
-0.936014
33
0.184809
0
3DFACE
8
0
62
1
10
0.699052
20
-1.441450
30
-0.300000
11
0.703741
21
-1.445291
31
-0.300000
12
0.703741
22
-1.445291
32
0.184809
13
0.703741
23
-1.445291
33
0.184809
0
3DFACE
8
0
62
1
10
0.699052
20
-1.441450
30
-0.300000
11
0.703741
21
-1.445291
31
0.184809
12
0.699052
22
-1.441450
32
0.184809
13
0.699052
23
-1.441450
33
0.184809
0
3DFACE
8
0
62
1
10
0.703741
20
-1.445291
30
-0.300000
11
0.708376
21
-1.448651
31
-0.300000
12
0.708376
22
-1.448651
32
0.184809
13
0.708376
23
-1.448651
33
0.184809
0
3DFACE
8
0
62
1
10
0.703741
20
-1.445291
30
-0.300000
11
0.708376
21
-1.448651
31
0.184809
12
0.703741
22
-1.445291
32
0.184809
13
0.703741
23
-1.445291
33
0.184809
0
3DFACE
8
0
62
1
10
0.708376
20
-1.448651
30
-0.300000
11
0.712959
21
-1.451537
31
-0.300000
12
0.712959
22
-1.451537
32
0.184809
13
0.712959
23
-1.451537
33
0.184809
0
3DFACE
8
0
62
1
10
0.708376
20
-1.448651
30
-0.300000
11
0.712959
21
-1.451537
31
0.184809
12
0.708376
22
-1.448651
32
0.184809
13
0.708376
23
-1.448651
33
0.184809
0
3DFACE
8
0
62
1
10
0.712959
20
-1.451537
30
-0.300000
11
0.715230
21
-1.452803
31
-0.300000
12
0.715230
22
-1.452803
32
0.184809
13
0.715230
23
-1.452803
33
0.184809
0
3DFACE
8
0
62
1
10
0.712959
20
-1.451537
30
-0.300000
11
0.715230
21
-1.452803
31
0.184809
12
0.712959
22
-1.451537
32
0.184809
13
0.712959
23
-1.451537
33
0.184809
0
3DFACE
8
0
62
1
10
0.715230
20
-1.452803
30
-0.300000
11
0.717489
21
-1.453952
31
-0.300000
12
0.717489
22
-1.453952
32
0.184809
13
0.717489
23
-1.453952
33
0.184809
0
3DFACE
8
0
62
1
10
0.715230
20
-1.452803
30
-0.300000
11
0.717489
21
-1.453952
31
0.184809
12
0.715230
22
-1.452803
32
0.184809
13
0.715230
23
-1.452803
33
0.184809
0
3DFACE
8
0
62
1
10
0.717489
20
-1.453952
30
-0.300000
11
0.719735
21
-1.454984
31
-0.300000
12
0.719735
22
-1.454984
32
0.184809
13
0.719735
23
-1.454984
33
0.184809
0
3DFACE
8
0
62
1
10
0.717489
20
-1.453952
30
-0.300000
11
0.719735
21
-1.454984
31
0.184809
12
0.717489
22
-1.453952
32
0.184809
13
0.717489
23
-1.453952
33
0.184809
0
3DFACE
8
0
62
1
10
0.719735
20
-1.454984
30
-0.300000
11
0.721968
21
-1.455900
31
-0.300000
12
0.721968
22
-1.455900
32
0.184809
13
0.721968
23
-1.455900
33
0.184809
0
3DFACE
8
0
62
1
10
0.719735
20
-1.454984
30
-0.300000
11
0.721968
21
-1.455900
31
0.184809
12
0.719735
22
-1.454984
32
0.184809
13
0.719735
23
-1.454984
33
0.184809
0
3DFACE
8
0
62
1
10
0.721968
20
-1.455900
30
-0.300000
11
0.724189
21
-1.456701
31
-0.300000
12
0.724189
22
-1.456701
32
0.184809
13
0.724189
23
-1.456701
33
0.184809
0
3DFACE
8
0
62
1
10
0.721968
20
-1.455900
30
-0.300000
11
0.724189
21
-1.456701
31
0.184809
12
0.721968
22
-1.455900
32
0.184809
13
0.721968
23
-1.455900
33
0.184809
0
3DFACE
8
0
62
1
10
0.724189
20
-1.456701
30
-0.300000
11
0.726396
21
-1.457387
31
-0.300000
12
0.726396
22
-1.457387
32
0.184809
13
0.726396
23
-1.457387
33
0.184809
0
3DFACE
8
0
62
1
10
0.724189
20
-1.456701
30
-0.300000
11
0.726396
21
-1.457387
31
0.184809
12
0.724189
22
-1.456701
32
0.184809
13
0.724189
23
-1.456701
33
0.184809
0
3DFACE
8
0
62
1
10
0.726396
20
-1.457387
30
-0.300000
11
0.728591
21
-1.457959
31
-0.300000
12
0.728591
22
-1.457959
32
0.184809
13
0.728591
23
-1.457959
33
0.184809
0
3DFACE
8
0
62
1
10
0.726396
20
-1.457387
30
-0.300000
11
0.728591
21
-1.457959
31
0.184809
12
0.726396
22
-1.457387
32
0.184809
13
0.726396
23
-1.457387
33
0.184809
0
3DFACE
8
0
62
1
10
0.728591
20
-1.457959
30
-0.300000
11
0.730774
21
-1.458417
31
-0.300000
12
0.730774
22
-1.458417
32
0.184809
13
0.730774
23
-1.458417
33
0.184809
0
3DFACE
8
0
62
1
10
0.728591
20
-1.457959
30
-0.300000
11
0.730774
21
-1.458417
31
0.184809
12
0.728591
22
-1.457959
32
0.184809
13
0.728591
23
-1.457959
33
0.184809
0
3DFACE
8
0
62
1
10
0.730774
20
-1.458417
30
-0.300000
11
0.732944
21
-1.458762
31
-0.300000
12
0.732944
22
-1.458762
32
0.184809
13
0.732944
23
-1.458762
33
0.184809
0
3DFACE
8
0
62
1
10
0.730774
20
-1.458417
30
-0.300000
11
0.732944
21
-1.458762
31
0.184809
12
0.730774
22
-1.458417
32
0.184809
13
0.730774
23
-1.458417
33
0.184809
0
3DFACE
8
0
62
1
10
0.732944
20
-1.458762
30
-0.300000
11
0.735101
21
-1.458994
31
-0.300000
12
0.735101
22
-1.458994
32
0.184809
13
0.735101
23
-1.458994
33
0.184809
0
3DFACE
8
0
62
1
10
0.732944
20
-1.458762
30
-0.300000
11
0.735101
21
-1.458994
31
0.184809
12
0.732944
22
-1.458762
32
0.184809
13
0.732944
23
-1.458762
33
0.184809
0
3DFACE
8
0
62
1
10
0.735101
20
-1.458994
30
-0.300000
11
0.737246
21
-1.459114
31
-0.300000
12
0.737246
22
-1.459114
32
0.184809
13
0.737246
23
-1.459114
33
0.184809
0
3DFACE
8
0
62
1
10
0.735101
20
-1.458994
30
-0.300000
11
0.737246
21
-1.459114
31
0.184809
12
0.735101
22
-1.458994
32
0.184809
13
0.735101
23
-1.458994
33
0.184809
0
3DFACE
8
0
62
1
10
0.737246
20
-1.459114
30
-0.300000
11
0.739379
21
-1.459123
31
-0.300000
12
0.739379
22
-1.459123
32
0.184809
13
0.739379
23
-1.459123
33
0.184809
0
3DFACE
8
0
62
1
10
0.737246
20
-1.459114
30
-0.300000
11
0.739379
21
-1.459123
31
0.184809
12
0.737246
22
-1.459114
32
0.184809
13
0.737246
23
-1.459114
33
0.184809
0
3DFACE
8
0
62
1
10
0.739379
20
-1.459123
30
-0.300000
11
0.741499
21
-1.459020
31
-0.300000
12
0.741499
22
-1.459020
32
0.184809
13
0.741499
23
-1.459020
33
0.184809
0
3DFACE
8
0
62
1
10
0.739379
20
-1.459123
30
-0.300000
11
0.741499
21
-1.459020
31
0.184809
12
0.739379
22
-1.459123
32
0.184809
13
0.739379
23
-1.459123
33
0.184809
0
3DFACE
8
0
62
1
10
0.741499
20
-1.459020
30
-0.300000
11
0.743607
21
-1.458808
31
-0.300000
12
0.743607
22
-1.458808
32
0.184809
13
0.743607
23
-1.458808
33
0.184809
0
3DFACE
8
0
62
1
10
0.741499
20
-1.459020
30
-0.300000
11
0.743607
21
-1.458808
31
0.184809
12
0.741499
22
-1.459020
32
0.184809
13
0.741499
23
-1.459020
33
0.184809
0
3DFACE
8
0
62
1
10
0.743607
20
-1.458808
30
-0.300000
11
0.745703
21
-1.458485
31
-0.300000
12
0.745703
22
-1.458485
32
0.184809
13
0.745703
23
-1.458485
33
0.184809
0
3DFACE
8
0
62
1
10
0.743607
20
-1.458808
30
-0.300000
11
0.745703
21
-1.458485
31
0.184809
12
0.743607
22
-1.458808
32
0.184809
13
0.743607
23
-1.458808
33
0.184809
0
3DFACE
8
0
62
1
10
0.745703
20
-1.458485
30
-0.300000
11
0.747787
21
-1.458053
31
-0.300000
12
0.747787
22
-1.458053
32
0.184809
13
0.747787
23
-1.458053
33
0.184809
0
3DFACE
8
0
62
1
10
0.745703
20
-1.458485
30
-0.300000
11
0.747787
21
-1.458053
31
0.184809
12
0.745703
22
-1.458485
32
0.184809
13
0.745703
23
-1.458485
33
0.184809
0
3DFACE
8
0
62
1
10
0.747787
20
-1.458053
30
-0.300000
11
0.749859
21
-1.457513
31
-0.300000
12
0.749859
22
-1.457513
32
0.184809
13
0.749859
23
-1.457513
33
0.184809
0
3DFACE
8
0
62
1
10
0.747787
20
-1.458053
30
-0.300000
11
0.749859
21
-1.457513
31
0.184809
12
0.747787
22
-1.458053
32
0.184809
13
0.747787
23
-1.458053
33
0.184809
0
3DFACE
8
0
62
1
10
0.749859
20
-1.457513
30
-0.300000
11
0.751919
21
-1.456864
31
-0.300000
12
0.751919
22
-1.456864
32
0.184809
13
0.751919
23
-1.456864
33
0.184809
0
3DFACE
8
0
62
1
10
0.749859
20
-1.457513
30
-0.300000
11
0.751919
21
-1.456864
31
0.184809
12
0.749859
22
-1.457513
32
0.184809
13
0.749859
23
-1.457513
33
0.184809
0
3DFACE
8
0
62
1
10
0.751919
20
-1.456864
30
-0.300000
11
0.753967
21
-1.456108
31
-0.300000
12
0.753967
22
-1.456108
32
0.184809
13
0.753967
23
-1.456108
33
0.184809
0
3DFACE
8
0
62
1
10
0.751919
20
-1.456864
30
-0.300000
11
0.753967
21
-1.456108
31
0.184809
12
0.751919
22
-1.456864
32
0.184809
13
0.751919
23
-1.456864
33
0.184809
0
3DFACE
8
0
62
1
10
0.753967
20
-1.456108
30
-0.300000
11
0.756003
21
-1.455245
31
-0.300000
12
0.756003
22
-1.455245
32
0.184809
13
0.756003
23
-1.455245
33
0.184809
0
3DFACE
8
0
62
1
10
0.753967
20
-1.456108
30
-0.300000
11
0.756003
21
-1.455245
31
0.184809
12
0.753967
22
-1.456108
32
0.184809
13
0.753967
23
-1.456108
33
0.184809
0
3DFACE
8
0
62
1
10
0.756003
20
-1.455245
30
-0.300000
11
0.758028
21
-1.454275
31
-0.300000
12
0.758028
22
-1.454275
32
0.184809
13
0.758028
23
-1.454275
33
0.184809
0
3DFACE
8
0
62
1
10
0.756003
20
-1.455245
30
-0.300000
11
0.758028
21
-1.454275
31
0.184809
12
0.756003
22
-1.455245
32
0.184809
13
0.756003
23
-1.455245
33
0.184809
0
3DFACE
8
0
62
1
10
0.758028
20
-1.454275
30
-0.300000
11
0.760041
21
-1.453199
31
-0.300000
12
0.760041
22
-1.453199
32
0.184809
13
0.760041
23
-1.453199
33
0.184809
0
3DFACE
8
0
62
1
10
0.758028
20
-1.454275
30
-0.300000
11
0.760041
21
-1.453199
31
0.184809
12
0.758028
22
-1.454275
32
0.184809
13
0.758028
23
-1.454275
33
0.184809
0
3DFACE
8
0
62
1
10
0.760041
20
-1.453199
30
-0.300000
11
0.762042
21
-1.452018
31
-0.300000
12
0.762042
22
-1.452018
32
0.184809
13
0.762042
23
-1.452018
33
0.184809
0
3DFACE
8
0
62
1
10
0.760041
20
-1.453199
30
-0.300000
11
0.762042
21
-1.452018
31
0.184809
12
0.760041
22
-1.453199
32
0.184809
13
0.760041
23
-1.453199
33
0.184809
0
3DFACE
8
0
62
1
10
0.762042
20
-1.452018
30
-0.300000
11
0.764031
21
-1.450733
31
-0.300000
12
0.764031
22
-1.450733
32
0.184809
13
0.764031
23
-1.450733
33
0.184809
0
3DFACE
8
0
62
1
10
0.762042
20
-1.452018
30
-0.300000
11
0.764031
21
-1.450733
31
0.184809
12
0.762042
22
-1.452018
32
0.184809
13
0.762042
23
-1.452018
33
0.184809
0
3DFACE
8
0
62
1
10
0.764031
20
-1.450733
30
-0.300000
11
0.766009
21
-1.449343
31
-0.300000
12
0.766009
22
-1.449343
32
0.184809
13
0.766009
23
-1.449343
33
0.184809
0
3DFACE
8
0
62
1
10
0.764031
20
-1.450733
30
-0.300000
11
0.766009
21
-1.449343
31
0.184809
12
0.764031
22
-1.450733
32
0.184809
13
0.764031
23
-1.450733
33
0.184809
0
3DFACE
8
0
62
1
10
0.766009
20
-1.449343
30
-0.300000
11
0.767975
21
-1.447849
31
-0.300000
12
0.767975
22
-1.447849
32
0.184809
13
0.767975
23
-1.447849
33
0.184809
0
3DFACE
8
0
62
1
10
0.766009
20
-1.449343
30
-0.300000
11
0.767975
21
-1.447849
31
0.184809
12
0.766009
22
-1.449343
32
0.184809
13
0.766009
23
-1.449343
33
0.184809
0
3DFACE
8
0
62
1
10
0.767975
20
-1.447849
30
-0.300000
11
0.771874
21
-1.444553
31
-0.300000
12
0.771874
22
-1.444553
32
0.184809
13
0.771874
23
-1.444553
33
0.184809
0
3DFACE
8
0
62
1
10
0.767975
20
-1.447849
30
-0.300000
11
0.771874
21
-1.444553
31
0.184809
12
0.767975
22
-1.447849
32
0.184809
13
0.767975
23
-1.447849
33
0.184809
0
3DFACE
8
0
62
1
10
0.771874
20
-1.444553
30
-0.300000
11
0.775728
21
-1.440849
31
-0.300000
12
0.775728
22
-1.440849
32
0.184809
13
0.775728
23
-1.440849
33
0.184809
0
3DFACE
8
0
62
1
10
0.771874
20
-1.444553
30
-0.300000
11
0.775728
21
-1.440849
31
0.184809
12
0.771874
22
-1.444553
32
0.184809
13
0.771874
23
-1.444553
33
0.184809
0
3DFACE
8
0
62
1
10
0.775728
20
-1.440849
30
-0.300000
11
0.779537
21
-1.436742
31
-0.300000
12
0.779537
22
-1.436742
32
0.184809
13
0.779537
23
-1.436742
33
0.184809
0
3DFACE
8
0
62
1
10
0.775728
20
-1.440849
30
-0.300000
11
0.779537
21
-1.436742
31
0.184809
12
0.775728
22
-1.440849
32
0.184809
13
0.775728
23
-1.440849
33
0.184809
0
3DFACE
8
0
62
1
10
0.779537
20
-1.436742
30
-0.300000
11
0.783301
21
-1.432236
31
-0.300000
12
0.783301
22
-1.432236
32
0.184809
13
0.783301
23
-1.432236
33
0.184809
0
3DFACE
8
0
62
1
10
0.779537
20
-1.436742
30
-0.300000
11
0.783301
21
-1.432236
31
0.184809
12
0.779537
22
-1.436742
32
0.184809
13
0.779537
23
-1.436742
33
0.184809
0
3DFACE
8
0
62
1
10
0.783301
20
-1.432236
30
-0.300000
11
0.883434
21
-1.104211
31
-0.300000
12
0.883434
22
-1.104211
32
0.184809
13
0.883434
23
-1.104211
33
0.184809
0
3DFACE
8
0
62
1
10
0.783301
20
-1.432236
30
-0.300000
11
0.883434
21
-1.104211
31
0.184809
12
0.783301
22
-1.432236
32
0.184809
13
0.783301
23
-1.432236
33
0.184809
0
3DFACE
8
0
62
1
10
0.883434
20
-1.104211
30
-0.300000
11
0.938978
21
-0.681470
31
-0.300000
12
0.883434
22
-1.104211
32
0.184809
13
0.883434
23
-1.104211
33
0.184809
0
3DFACE
8
0
62
1
10
0.938978
20
-0.681470
30
-0.300000
11
1.000000
21
0.000000
31
-0.300000
12
1.000000
22
0.000000
32
0.184809
13
1.000000
23
0.000000
33
0.184809
0
3DFACE
8
0
62
1
10
0.938978
20
-0.681470
30
-0.300000
11
1.000000
21
0.000000
31
0.184809
12
0.883434
22
-1.104211
32
0.184809
13
0.883434
23
-1.104211
33
0.184809
0
3DFACE
8
0
62
1
10
1.000000
20
0.000000
30
-0.300000
11
-1.000000
21
0.000000
31
-0.300000
12
-1.000000
22
0.000000
32
0.184809
13
-1.000000
23
0.000000
33
0.184809
0
3DFACE
8
0
62
1
10
1.000000
20
0.000000
30
-0.300000
11
-1.000000
21
0.000000
31
0.184809
12
1.000000
22
0.000000
32
0.184809
13
1.000000
23
0.000000
33
0.184809
0
3DFACE
8
0
62
1
10
-1.000000
20
0.000000
30
-0.300000
11
-0.766589
21
-1.062928
31
-0.300000
12
-0.766589
22
-1.062928
32
0.184809
13
-0.766589
23
-1.062928
33
0.184809
0
3DFACE
8
0
62
1
10
-1.000000
20
0.000000
30
-0.300000
11
-0.766589
21
-1.062928
31
0.184809
12
-1.000000
22
0.000000
32
0.184809
13
-1.000000
23
0.000000
33
0.184809
0
3DFACE
8
0
62
1
10
0.938978
20
-0.681470
30
-0.300000
11
-1.000000
21
0.000000
31
-0.300000
12
1.000000
22
0.000000
32
-0.300000
13
1.000000
23
0.000000
33
-0.300000
0
3DFACE
8
0
62
1
10
-1.000000
20
0.000000
30
-0.300000
11
-0.720764
21
-1.094327
31
-0.300000
12
-0.766589
22
-1.062928
32
-0.300000
13
-0.766589
23
-1.062928
33
-0.300000
0
3DFACE
8
0
62
1
10
-1.000000
20
0.000000
30
-0.300000
11
-0.709140
21
-1.101388
31
-0.300000
12
-0.720764
22
-1.094327
32
-0.300000
13
-0.720764
23
-1.094327
33
-0.300000
0
3DFACE
8
0
62
1
10
-1.000000
20
0.000000
30
-0.300000
11
-0.697404
21
-1.107923
31
-0.300000
12
-0.709140
22
-1.101388
32
-0.300000
13
-0.709140
23
-1.101388
33
-0.300000
0
3DFACE
8
0
62
1
10
-1.000000
20
0.000000
30
-0.300000
11
-0.685534
21
-1.113826
31
-0.300000
12
-0.697404
22
-1.107923
32
-0.300000
13
-0.697404
23
-1.107923
33
-0.300000
0
3DFACE
8
0
62
1
10
-1.000000
20
0.000000
30
-0.300000
11
-0.673507
21
-1.118994
31
-0.300000
12
-0.685534
22
-1.113826
32
-0.300000
13
-0.685534
23
-1.113826
33
-0.300000
0
3DFACE
8
0
62
1
10
-1.000000
20
0.000000
30
-0.300000
11
-0.667428
21
-1.121268
31
-0.300000
12
-0.673507
22
-1.118994
32
-0.300000
13
-0.673507
23
-1.118994
33
-0.300000
0
3DFACE
8
0
62
1
10
-1.000000
20
0.000000
30
-0.300000
11
-0.661301
21
-1.123319
31
-0.300000
12
-0.667428
22
-1.121268
32
-0.300000
13
-0.667428
23
-1.121268
33
-0.300000
0
3DFACE
8
0
62
1
10
-1.000000
20
0.000000
30
-0.300000
11
-0.655124
21
-1.125134
31
-0.300000
12
-0.661301
22
-1.123319
32
-0.300000
13
-0.661301
23
-1.123319
33
-0.300000
0
3DFACE
8
0
62
1
10
-1.000000
20
0.000000
30
-0.300000
11
-0.648894
21
-1.126698
31
-0.300000
12
-0.655124
22
-1.125134
32
-0.300000
13
-0.655124
23
-1.125134
33
-0.300000
0
3DFACE
8
0
62
1
10
-1.000000
20
0.000000
30
-0.300000
11
-0.642608
21
-1.128000
31
-0.300000
12
-0.648894
22
-1.126698
32
-0.300000
13
-0.648894
23
-1.126698
33
-0.300000
0
3DFACE
8
0
62
1
10
-1.000000
20
0.000000
30
-0.300000
11
-0.636263
21
-1.129025
31
-0.300000
12
-0.642608
22
-1.128000
32
-0.300000
13
-0.642608
23
-1.128000
33
-0.300000
0
3DFACE
8
0
62
1
10
-1.000000
20
0.000000
30
-0.300000
11
-0.629857
21
-1.129761
31
-0.300000
12
-0.636263
22
-1.129025
32
-0.300000
13
-0.636263
23
-1.129025
33
-0.300000
0
3DFACE
8
0
62
1
10
-1.000000
20
0.000000
30
-0.300000
11
-0.623386
21
-1.130195
31
-0.300000
12
-0.629857
22
-1.129761
32
-0.300000
13
-0.629857
23
-1.129761
33
-0.300000
0
3DFACE
8
0
62
1
10
-1.000000
20
0.000000
30
-0.300000
11
-0.616848
21
-1.130313
31
-0.300000
12
-0.623386
22
-1.130195
32
-0.300000
13
-0.623386
23
-1.130195
33
-0.300000
0
3DFACE
8
0
62
1
10
-1.000000
20
0.000000
30
-0.300000
11
-0.610241
21
-1.130102
31
-0.300000
12
-0.616848
22
-1.130313
32
-0.300000
13
-0.616848
23
-1.130313
33
-0.300000
0
3DFACE
8
0
62
1
10
-1.000000
20
0.000000
30
-0.300000
11
-0.603560
21
-1.129550
31
-0.300000
12
-0.610241
22
-1.130102
32
-0.300000
13
-0.610241
23
-1.130102
33
-0.300000
0
3DFACE
8
0
62
1
10
-1.000000
20
0.000000
30
-0.300000
11
-0.596804
21
-1.128642
31
-0.300000
12
-0.603560
22
-1.129550
32
-0.300000
13
-0.603560
23
-1.129550
33
-0.300000
0
3DFACE
8
0
62
1
10
-1.000000
20
0.000000
30
-0.300000
11
-0.589970
21
-1.127366
31
-0.300000
12
-0.596804
22
-1.128642
32
-0.300000
13
-0.596804
23
-1.128642
33
-0.300000
0
3DFACE
8
0
62
1
10
-1.000000
20
0.000000
30
-0.300000
11
-0.583054
21
-1.125709
31
-0.300000
12
-0.589970
22
-1.127366
32
-0.300000
13
-0.589970
23
-1.127366
33
-0.300000
0
3DFACE
8
0
62
1
10
-1.000000
20
0.000000
30
-0.300000
11
-0.576055
21
-1.123657
31
-0.300000
12
-0.583054
22
-1.125709
32
-0.300000
13
-0.583054
23
-1.125709
33
-0.300000
0
3DFACE
8
0
62
1
10
-1.000000
20
0.000000
30
-0.300000
11
-0.568969
21
-1.121198
31
-0.300000
12
-0.576055
22
-1.123657
32
-0.300000
13
-0.576055
23
-1.123657
33
-0.300000
0
3DFACE
8
0
62
1
10
-1.000000
20
0.000000
30
-0.300000
11
-0.561794
21
-1.118318
31
-0.300000
12
-0.568969
22
-1.121198
32
-0.300000
13
-0.568969
23
-1.121198
33
-0.300000
0
3DFACE
8
0
62
1
10
-1.000000
20
0.000000
30
-0.300000
11
-0.554526
21
-1.115004
31
-0.300000
12
-0.561794
22
-1.118318
32
-0.300000
13
-0.561794
23
-1.118318
33
-0.300000
0
3DFACE
8
0
62
1
10
-1.000000
20
0.000000
30
-0.300000
11
-0.547163
21
-1.111243
31
-0.300000
12
-0.554526
22
-1.115004
32
-0.300000
13
-0.554526
23
-1.115004
33
-0.300000
0
3DFACE
8
0
62
1
10
-1.000000
20
0.000000
30
-0.300000
11
-0.539702
21
-1.107021
31
-0.300000
12
-0.547163
22
-1.111243
32
-0.300000
13
-0.547163
23
-1.111243
33
-0.300000
0
3DFACE
8
0
62
1
10
-1.000000
20
0.000000
30
-0.300000
11
-0.532140
21
-1.102327
31
-0.300000
12
-0.539702
22
-1.107021
32
-0.300000
13
-0.539702
23
-1.107021
33
-0.300000
0
3DFACE
8
0
62
1
10
-1.000000
20
0.000000
30
-0.300000
11
-0.524475
21
-1.097145
31
-0.300000
12
-0.532140
22
-1.102327
32
-0.300000
13
-0.532140
23
-1.102327
33
-0.300000
0
3DFACE
8
0
62
1
10
-1.000000
20
0.000000
30
-0.300000
11
-0.516704
21
-1.091464
31
-0.300000
12
-0.524475
22
-1.097145
32
-0.300000
13
-0.524475
23
-1.097145
33
-0.300000
0
3DFACE
8
0
62
1
10
-1.000000
20
0.000000
30
-0.300000
11
-0.508824
21
-1.085270
31
-0.300000
12
-0.516704
22
-1.091464
32
-0.300000
13
-0.516704
23
-1.091464
33
-0.300000
0
3DFACE
8
0
62
1
10
-1.000000
20
0.000000
30
-0.300000
11
-0.492724
21
-1.071291
31
-0.300000
12
-0.508824
22
-1.085270
32
-0.300000
13
-0.508824
23
-1.085270
33
-0.300000
0
3DFACE
8
0
62
1
10
-1.000000
20
0.000000
30
-0.300000
11
-0.182493
21
-0.604715
31
-0.300000
12
-0.492724
22
-1.071291
32
-0.300000
13
-0.492724
23
-1.071291
33
-0.300000
0
3DFACE
8
0
62
1
10
-1.000000
20
0.000000
30
-0.300000
11
-0.169610
21
-0.592039
31
-0.300000
12
-0.182493
22
-0.604715
32
-0.300000
13
-0.182493
23
-0.604715
33
-0.300000
0
3DFACE
8
0
62
1
10
-1.000000
20
0.000000
30
-0.300000
11
-0.156583
21
-0.580497
31
-0.300000
12
-0.169610
22
-0.592039
32
-0.300000
13
-0.169610
23
-0.592039
33
-0.300000
0
3DFACE
8
0
62
1
10
-1.000000
20
0.000000
30
-0.300000
11
-0.143419
21
-0.570074
31
-0.300000
12
-0.156583
22
-0.580497
32
-0.300000
13
-0.156583
23
-0.580497
33
-0.300000
0
3DFACE
8
0
62
1
10
-1.000000
20
0.000000
30
-0.300000
11
-0.130124
21
-0.560756
31
-0.300000
12
-0.143419
22
-0.570074
32
-0.300000
13
-0.143419
23
-0.570074
33
-0.300000
0
3DFACE
8
0
62
1
10
-1.000000
20
0.000000
30
-0.300000
11
-0.116704
21
-0.552530
31
-0.300000
12
-0.130124
22
-0.560756
32
-0.300000
13
-0.130124
23
-0.560756
33
-0.300000
0
3DFACE
8
0
62
1
10
-1.000000
20
0.000000
30
-0.300000
11
-0.103165
21
-0.545383
31
-0.300000
12
-0.116704
22
-0.552530
32
-0.300000
13
-0.116704
23
-0.552530
33
-0.300000
0
3DFACE
8
0
62
1
10
-1.000000
20
0.000000
30
-0.300000
11
-0.089513
21
-0.539299
31
-0.300000
12
-0.103165
22
-0.545383
32
-0.300000
13
-0.103165
23
-0.545383
33
-0.300000
0
3DFACE
8
0
62
1
10
-1.000000
20
0.000000
30
-0.300000
11
-0.075754
21
-0.534266
31
-0.300000
12
-0.089513
22
-0.539299
32
-0.300000
13
-0.089513
23
-0.539299
33
-0.300000
0
3DFACE
8
0
62
1
10
-1.000000
20
0.000000
30
-0.300000
11
-0.068836
21
-0.532139
31
-0.300000
12
-0.075754
22
-0.534266
32
-0.300000
13
-0.075754
23
-0.534266
33
-0.300000
0
3DFACE
8
0
62
1
10
-1.000000
20
0.000000
30
-0.300000
11
-0.061893
21
-0.530269
31
-0.300000
12
-0.068836
22
-0.532139
32
-0.300000
13
-0.068836
23
-0.532139
33
-0.300000
0
3DFACE
8
0
62
1
10
-1.000000
20
0.000000
30
-0.300000
11
-0.054927
21
-0.528655
31
-0.300000
12
-0.061893
22
-0.530269
32
-0.300000
13
-0.061893
23
-0.530269
33
-0.300000
0
3DFACE
8
0
62
1
10
-1.000000
20
0.000000
30
-0.300000
11
-0.047938
21
-0.527295
31
-0.300000
12
-0.054927
22
-0.528655
32
-0.300000
13
-0.054927
23
-0.528655
33
-0.300000
0
3DFACE
8
0
62
1
10
-1.000000
20
0.000000
30
-0.300000
11
-0.040926
21
-0.526187
31
-0.300000
12
-0.047938
22
-0.527295
32
-0.300000
13
-0.047938
23
-0.527295
33
-0.300000
0
3DFACE
8
0
62
1
10
-1.000000
20
0.000000
30
-0.300000
11
-0.033893
21
-0.525329
31
-0.300000
12
-0.040926
22
-0.526187
32
-0.300000
13
-0.040926
23
-0.526187
33
-0.300000
0
3DFACE
8
0
62
1
10
-1.000000
20
0.000000
30
-0.300000
11
-0.026839
21
-0.524721
31
-0.300000
12
-0.033893
22
-0.525329
32
-0.300000
13
-0.033893
23
-0.525329
33
-0.300000
0
3DFACE
8
0
62
1
10
-1.000000
20
0.000000
30
-0.300000
11
-0.019765
21
-0.524359
31
-0.300000
12
-0.026839
22
-0.524721
32
-0.300000
13
-0.026839
23
-0.524721
33
-0.300000
0
3DFACE
8
0
62
1
10
-1.000000
20
0.000000
30
-0.300000
11
-0.005560
21
-0.524370
31
-0.300000
12
-0.019765
22
-0.524359
32
-0.300000
13
-0.019765
23
-0.524359
33
-0.300000
0
3DFACE
8
0
62
1
10
-1.000000
20
0.000000
30
-0.300000
11
0.008717
21
-0.525349
31
-0.300000
12
-0.005560
22
-0.524370
32
-0.300000
13
-0.005560
23
-0.524370
33
-0.300000
0
3DFACE
8
0
62
1
10
-1.000000
20
0.000000
30
-0.300000
11
0.023058
21
-0.527281
31
-0.300000
12
0.008717
22
-0.525349
32
-0.300000
13
0.008717
23
-0.525349
33
-0.300000
0
3DFACE
8
0
62
1
10
0.938978
20
-0.681470
30
-0.300000
11
0.023058
21
-0.527281
31
-0.300000
12
-1.000000
22
0.000000
32
-0.300000
13
-1.000000
23
0.000000
33
-0.300000
0
3DFACE
8
0
62
1
10
0.938978
20
-0.681470
30
-0.300000
11
0.037459
21
-0.530152
31
-0.300000
12
0.023058
22
-0.527281
32
-0.300000
13
0.023058
23
-0.527281
33
-0.300000
0
3DFACE
8
0
62
1
10
0.938978
20
-0.681470
30
-0.300000
11
0.051913
21
-0.533950
31
-0.300000
12
0.037459
22
-0.530152
32
-0.300000
13
0.037459
23
-0.530152
33
-0.300000
0
3DFACE
8
0
62
1
10
0.938978
20
-0.681470
30
-0.300000
11
0.066415
21
-0.538660
31
-0.300000
12
0.051913
22
-0.533950
32
-0.300000
13
0.051913
23
-0.533950
33
-0.300000
0
3DFACE
8
0
62
1
10
0.938978
20
-0.681470
30
-0.300000
11
0.080957
21
-0.544268
31
-0.300000
12
0.066415
22
-0.538660
32
-0.300000
13
0.066415
23
-0.538660
33
-0.300000
0
3DFACE
8
0
62
1
10
0.938978
20
-0.681470
30
-0.300000
11
0.095535
21
-0.550761
31
-0.300000
12
0.080957
22
-0.544268
32
-0.300000
13
0.080957
23
-0.544268
33
-0.300000
0
3DFACE
8
0
62
1
10
0.938978
20
-0.681470
30
-0.300000
11
0.110142
21
-0.558125
31
-0.300000
12
0.095535
22
-0.550761
32
-0.300000
13
0.095535
23
-0.550761
33
-0.300000
0
3DFACE
8
0
62
1
10
0.938978
20
-0.681470
30
-0.300000
11
0.124773
21
-0.566345
31
-0.300000
12
0.110142
22
-0.558125
32
-0.300000
13
0.110142
23
-0.558125
33
-0.300000
0
3DFACE
8
0
62
1
10
0.938978
20
-0.681470
30
-0.300000
11
0.299983
21
-0.726795
31
-0.300000
12
0.124773
22
-0.566345
32
-0.300000
13
0.124773
23
-0.566345
33
-0.300000
0
3DFACE
8
0
62
1
10
0.938978
20
-0.681470
30
-0.300000
11
0.440440
21
-0.936014
31
-0.300000
12
0.299983
22
-0.726795
32
-0.300000
13
0.299983
23
-0.726795
33
-0.300000
0
3DFACE
8
0
62
1
10
0.883434
20
-1.104211
30
-0.300000
11
0.440440
21
-0.936014
31
-0.300000
12
0.938978
22
-0.681470
32
-0.300000
13
0.938978
23
-0.681470
33
-0.300000
0
3DFACE
8
0
62
1
10
0.883434
20
-1.104211
30
-0.300000
11
0.699052
21
-1.441450
31
-0.300000
12
0.440440
22
-0.936014
32
-0.300000
13
0.440440
23
-0.936014
33
-0.300000
0
3DFACE
8
0
62
1
10
0.783301
20
-1.432236
30
-0.300000
11
0.699052
21
-1.441450
31
-0.300000
12
0.883434
22
-1.104211
32
-0.300000
13
0.883434
23
-1.104211
33
-0.300000
0
3DFACE
8
0
62
1
10
0.779537
20
-1.436742
30
-0.300000
11
0.699052
21
-1.441450
31
-0.300000
12
0.783301
22
-1.432236
32
-0.300000
13
0.783301
23
-1.432236
33
-0.300000
0
3DFACE
8
0
62
1
10
0.779537
20
-1.436742
30
-0.300000
11
0.703741
21
-1.445291
31
-0.300000
12
0.699052
22
-1.441450
32
-0.300000
13
0.699052
23
-1.441450
33
-0.300000
0
3DFACE
8
0
62
1
10
0.775728
20
-1.440849
30
-0.300000
11
0.703741
21
-1.445291
31
-0.300000
12
0.779537
22
-1.436742
32
-0.300000
13
0.779537
23
-1.436742
33
-0.300000
0
3DFACE
8
0
62
1
10
0.775728
20
-1.440849
30
-0.300000
11
0.708376
21
-1.448651
31
-0.300000
12
0.703741
22
-1.445291
32
-0.300000
13
0.703741
23
-1.445291
33
-0.300000
0
3DFACE
8
0
62
1
10
0.771874
20
-1.444553
30
-0.300000
11
0.708376
21
-1.448651
31
-0.300000
12
0.775728
22
-1.440849
32
-0.300000
13
0.775728
23
-1.440849
33
-0.300000
0
3DFACE
8
0
62
1
10
0.771874
20
-1.444553
30
-0.300000
11
0.712959
21
-1.451537
31
-0.300000
12
0.708376
22
-1.448651
32
-0.300000
13
0.708376
23
-1.448651
33
-0.300000
0
3DFACE
8
0
62
1
10
0.767975
20
-1.447849
30
-0.300000
11
0.712959
21
-1.451537
31
-0.300000
12
0.771874
22
-1.444553
32
-0.300000
13
0.771874
23
-1.444553
33
-0.300000
0
3DFACE
8
0
62
1
10
0.767975
20
-1.447849
30
-0.300000
11
0.715230
21
-1.452803
31
-0.300000
12
0.712959
22
-1.451537
32
-0.300000
13
0.712959
23
-1.451537
33
-0.300000
0
3DFACE
8
0
62
1
10
0.766009
20
-1.449343
30
-0.300000
11
0.715230
21
-1.452803
31
-0.300000
12
0.767975
22
-1.447849
32
-0.300000
13
0.767975
23
-1.447849
33
-0.300000
0
3DFACE
8
0
62
1
10
0.766009
20
-1.449343
30
-0.300000
11
0.717489
21
-1.453952
31
-0.300000
12
0.715230
22
-1.452803
32
-0.300000
13
0.715230
23
-1.452803
33
-0.300000
0
3DFACE
8
0
62
1
10
0.764031
20
-1.450733
30
-0.300000
11
0.717489
21
-1.453952
31
-0.300000
12
0.766009
22
-1.449343
32
-0.300000
13
0.766009
23
-1.449343
33
-0.300000
0
3DFACE
8
0
62
1
10
0.764031
20
-1.450733
30
-0.300000
11
0.719735
21
-1.454984
31
-0.300000
12
0.717489
22
-1.453952
32
-0.300000
13
0.717489
23
-1.453952
33
-0.300000
0
3DFACE
8
0
62
1
10
0.762042
20
-1.452018
30
-0.300000
11
0.719735
21
-1.454984
31
-0.300000
12
0.764031
22
-1.450733
32
-0.300000
13
0.764031
23
-1.450733
33
-0.300000
0
3DFACE
8
0
62
1
10
0.762042
20
-1.452018
30
-0.300000
11
0.721968
21
-1.455900
31
-0.300000
12
0.719735
22
-1.454984
32
-0.300000
13
0.719735
23
-1.454984
33
-0.300000
0
3DFACE
8
0
62
1
10
0.760041
20
-1.453199
30
-0.300000
11
0.721968
21
-1.455900
31
-0.300000
12
0.762042
22
-1.452018
32
-0.300000
13
0.762042
23
-1.452018
33
-0.300000
0
3DFACE
8
0
62
1
10
0.760041
20
-1.453199
30
-0.300000
11
0.724189
21
-1.456701
31
-0.300000
12
0.721968
22
-1.455900
32
-0.300000
13
0.721968
23
-1.455900
33
-0.300000
0
3DFACE
8
0
62
1
10
0.758028
20
-1.454275
30
-0.300000
11
0.724189
21
-1.456701
31
-0.300000
12
0.760041
22
-1.453199
32
-0.300000
13
0.760041
23
-1.453199
33
-0.300000
0
3DFACE
8
0
62
1
10
0.758028
20
-1.454275
30
-0.300000
11
0.726396
21
-1.457387
31
-0.300000
12
0.724189
22
-1.456701
32
-0.300000
13
0.724189
23
-1.456701
33
-0.300000
0
3DFACE
8
0
62
1
10
0.756003
20
-1.455245
30
-0.300000
11
0.726396
21
-1.457387
31
-0.300000
12
0.758028
22
-1.454275
32
-0.300000
13
0.758028
23
-1.454275
33
-0.300000
0
3DFACE
8
0
62
1
10
0.756003
20
-1.455245
30
-0.300000
11
0.728591
21
-1.457959
31
-0.300000
12
0.726396
22
-1.457387
32
-0.300000
13
0.726396
23
-1.457387
33
-0.300000
0
3DFACE
8
0
62
1
10
0.753967
20
-1.456108
30
-0.300000
11
0.728591
21
-1.457959
31
-0.300000
12
0.756003
22
-1.455245
32
-0.300000
13
0.756003
23
-1.455245
33
-0.300000
0
3DFACE
8
0
62
1
10
0.753967
20
-1.456108
30
-0.300000
11
0.730774
21
-1.458417
31
-0.300000
12
0.728591
22
-1.457959
32
-0.300000
13
0.728591
23
-1.457959
33
-0.300000
0
3DFACE
8
0
62
1
10
0.751919
20
-1.456864
30
-0.300000
11
0.730774
21
-1.458417
31
-0.300000
12
0.753967
22
-1.456108
32
-0.300000
13
0.753967
23
-1.456108
33
-0.300000
0
3DFACE
8
0
62
1
10
0.751919
20
-1.456864
30
-0.300000
11
0.732944
21
-1.458762
31
-0.300000
12
0.730774
22
-1.458417
32
-0.300000
13
0.730774
23
-1.458417
33
-0.300000
0
3DFACE
8
0
62
1
10
0.749859
20
-1.457513
30
-0.300000
11
0.732944
21
-1.458762
31
-0.300000
12
0.751919
22
-1.456864
32
-0.300000
13
0.751919
23
-1.456864
33
-0.300000
0
3DFACE
8
0
62
1
10
0.749859
20
-1.457513
30
-0.300000
11
0.735101
21
-1.458994
31
-0.300000
12
0.732944
22
-1.458762
32
-0.300000
13
0.732944
23
-1.458762
33
-0.300000
0
3DFACE
8
0
62
1
10
0.747787
20
-1.458053
30
-0.300000
11
0.735101
21
-1.458994
31
-0.300000
12
0.749859
22
-1.457513
32
-0.300000
13
0.749859
23
-1.457513
33
-0.300000
0
3DFACE
8
0
62
1
10
0.747787
20
-1.458053
30
-0.300000
11
0.737246
21
-1.459114
31
-0.300000
12
0.735101
22
-1.458994
32
-0.300000
13
0.735101
23
-1.458994
33
-0.300000
0
3DFACE
8
0
62
1
10
0.745703
20
-1.458485
30
-0.300000
11
0.737246
21
-1.459114
31
-0.300000
12
0.747787
22
-1.458053
32
-0.300000
13
0.747787
23
-1.458053
33
-0.300000
0
3DFACE
8
0
62
1
10
0.745703
20
-1.458485
30
-0.300000
11
0.739379
21
-1.459123
31
-0.300000
12
0.737246
22
-1.459114
32
-0.300000
13
0.737246
23
-1.459114
33
-0.300000
0
3DFACE
8
0
62
1
10
0.743607
20
-1.458808
30
-0.300000
11
0.739379
21
-1.459123
31
-0.300000
12
0.745703
22
-1.458485
32
-0.300000
13
0.745703
23
-1.458485
33
-0.300000
0
3DFACE
8
0
62
1
10
0.743607
20
-1.458808
30
-0.300000
11
0.741499
21
-1.459020
31
-0.300000
12
0.739379
22
-1.459123
32
-0.300000
13
0.739379
23
-1.459123
33
-0.300000
0
3DFACE
8
0
62
1
10
0.602028
20
-0.774790
30
0.350233
11
0.638788
21
-0.364266
31
0.350233
12
-0.566031
22
-0.364266
32
0.350233
13
-0.566031
23
-0.364266
33
0.350233
0
3DFACE
8
0
62
1
10
-0.566031
20
-0.364266
30
0.350233
11
-0.390814
21
-1.027752
31
0.350233
12
-0.383744
22
-1.031689
32
0.350233
13
-0.383744
23
-1.031689
33
0.350233
0
3DFACE
8
0
62
1
10
-0.566031
20
-0.364266
30
0.350233
11
-0.383744
21
-1.031689
31
0.350233
12
-0.376594
22
-1.035245
32
0.350233
13
-0.376594
23
-1.035245
33
0.350233
0
3DFACE
8
0
62
1
10
-0.566031
20
-0.364266
30
0.350233
11
-0.376594
21
-1.035245
31
0.350233
12
-0.369349
22
-1.038358
32
0.350233
13
-0.369349
23
-1.038358
33
0.350233
0
3DFACE
8
0
62
1
10
-0.566031
20
-0.364266
30
0.350233
11
-0.369349
21
-1.038358
31
0.350233
12
-0.365687
22
-1.039729
32
0.350233
13
-0.365687
23
-1.039729
33
0.350233
0
3DFACE
8
0
62
1
10
-0.566031
20
-0.364266
30
0.350233
11
-0.365687
21
-1.039729
31
0.350233
12
-0.361996
22
-1.040964
32
0.350233
13
-0.361996
23
-1.040964
33
0.350233
0
3DFACE
8
0
62
1
10
-0.566031
20
-0.364266
30
0.350233
11
-0.361996
21
-1.040964
31
0.350233
12
-0.358275
22
-1.042057
32
0.350233
13
-0.358275
23
-1.042057
33
0.350233
0
3DFACE
8
0
62
1
10
-0.566031
20
-0.364266
30
0.350233
11
-0.358275
21
-1.042057
31
0.350233
12
-0.354522
22
-1.043000
32
0.350233
13
-0.354522
23
-1.043000
33
0.350233
0
3DFACE
8
0
62
1
10
-0.566031
20
-0.364266
30
0.350233
11
-0.354522
21
-1.043000
31
0.350233
12
-0.350735
22
-1.043784
32
0.350233
13
-0.350735
23
-1.043784
33
0.350233
0
3DFACE
8
0
62
1
10
-0.566031
20
-0.364266
30
0.350233
11
-0.350735
21
-1.043784
31
0.350233
12
-0.346913
22
-1.044401
32
0.350233
13
-0.346913
23
-1.044401
33
0.350233
0
3DFACE
8
0
62
1
10
-0.566031
20
-0.364266
30
0.350233
11
-0.346913
21
-1.044401
31
0.350233
12
-0.343053
22
-1.044845
32
0.350233
13
-0.343053
23
-1.044845
33
0.350233
0
3DFACE
8
0
62
1
10
-0.566031
20
-0.364266
30
0.350233
11
-0.343053
21
-1.044845
31
0.350233
12
-0.339155
22
-1.045106
32
0.350233
13
-0.339155
23
-1.045106
33
0.350233
0
3DFACE
8
0
62
1
10
-0.566031
20
-0.364266
30
0.350233
11
-0.339155
21
-1.045106
31
0.350233
12
-0.335217
22
-1.045177
32
0.350233
13
-0.335217
23
-1.045177
33
0.350233
0
3DFACE
8
0
62
1
10
-0.566031
20
-0.364266
30
0.350233
11
-0.335217
21
-1.045177
31
0.350233
12
-0.331236
22
-1.045050
32
0.350233
13
-0.331236
23
-1.045050
33
0.350233
0
3DFACE
8
0
62
1
10
-0.566031
20
-0.364266
30
0.350233
11
-0.331236
21
-1.045050
31
0.350233
12
-0.327212
22
-1.044717
32
0.350233
13
-0.327212
23
-1.044717
33
0.350233
0
3DFACE
8
0
62
1
10
-0.566031
20
-0.364266
30
0.350233
11
-0.327212
21
-1.044717
31
0.350233
12
-0.323142
22
-1.044170
32
0.350233
13
-0.323142
23
-1.044170
33
0.350233
0
3DFACE
8
0
62
1
10
-0.566031
20
-0.364266
30
0.350233
11
-0.323142
21
-1.044170
31
0.350233
12
-0.319025
22
-1.043402
32
0.350233
13
-0.319025
23
-1.043402
33
0.350233
0
3DFACE
8
0
62
1
10
-0.566031
20
-0.364266
30
0.350233
11
-0.319025
21
-1.043402
31
0.350233
12
-0.314859
22
-1.042404
32
0.350233
13
-0.314859
23
-1.042404
33
0.350233
0
3DFACE
8
0
62
1
10
-0.566031
20
-0.364266
30
0.350233
11
-0.314859
21
-1.042404
31
0.350233
12
-0.310643
22
-1.041168
32
0.350233
13
-0.310643
23
-1.041168
33
0.350233
0
3DFACE
8
0
62
1
10
-0.566031
20
-0.364266
30
0.350233
11
-0.310643
21
-1.041168
31
0.350233
12
-0.306374
22
-1.039686
32
0.350233
13
-0.306374
23
-1.039686
33
0.350233
0
3DFACE
8
0
62
1
10
-0.566031
20
-0.364266
30
0.350233
11
-0.306374
21
-1.039686
31
0.350233
12
-0.302051
22
-1.037951
32
0.350233
13
-0.302051
23
-1.037951
33
0.350233
0
3DFACE
8
0
62
1
10
-0.566031
20
-0.364266
30
0.350233
11
-0.302051
21
-1.037951
31
0.350233
12
-0.297673
22
-1.035955
32
0.350233
13
-0.297673
23
-1.035955
33
0.350233
0
3DFACE
8
0
62
1
10
-0.566031
20
-0.364266
30
0.350233
11
-0.297673
21
-1.035955
31
0.350233
12
-0.293238
22
-1.033689
32
0.350233
13
-0.293238
23
-1.033689
33
0.350233
0
3DFACE
8
0
62
1
10
-0.566031
20
-0.364266
30
0.350233
11
-0.293238
21
-1.033689
31
0.350233
12
-0.288743
22
-1.031146
32
0.350233
13
-0.288743
23
-1.031146
33
0.350233
0
3DFACE
8
0
62
1
10
-0.566031
20
-0.364266
30
0.350233
11
-0.288743
21
-1.031146
31
0.350233
12
-0.284188
22
-1.028318
32
0.350233
13
-0.284188
23
-1.028318
33
0.350233
0
3DFACE
8
0
62
1
10
-0.566031
20
-0.364266
30
0.350233
11
-0.284188
21
-1.028318
31
0.350233
12
-0.279570
22
-1.025196
32
0.350233
13
-0.279570
23
-1.025196
33
0.350233
0
3DFACE
8
0
62
1
10
-0.566031
20
-0.364266
30
0.350233
11
-0.279570
21
-1.025196
31
0.350233
12
-0.274889
22
-1.021774
32
0.350233
13
-0.274889
23
-1.021774
33
0.350233
0
3DFACE
8
0
62
1
10
-0.566031
20
-0.364266
30
0.350233
11
-0.274889
21
-1.021774
31
0.350233
12
-0.270142
22
-1.018043
32
0.350233
13
-0.270142
23
-1.018043
33
0.350233
0
3DFACE
8
0
62
1
10
-0.566031
20
-0.364266
30
0.350233
11
-0.270142
21
-1.018043
31
0.350233
12
-0.260443
22
-1.009622
32
0.350233
13
-0.260443
23
-1.009622
33
0.350233
0
3DFACE
8
0
62
1
10
-0.566031
20
-0.364266
30
0.350233
11
-0.260443
21
-1.009622
31
0.350233
12
-0.250462
22
-0.999870
32
0.350233
13
-0.250462
23
-0.999870
33
0.350233
0
3DFACE
8
0
62
1
10
-0.566031
20
-0.364266
30
0.350233
11
-0.250462
21
-0.999870
31
0.350233
12
-0.240184
22
-0.988724
32
0.350233
13
-0.240184
23
-0.988724
33
0.350233
0
3DFACE
8
0
62
1
10
-0.566031
20
-0.364266
30
0.350233
11
-0.240184
21
-0.988724
31
0.350233
12
-0.073557
22
-0.728552
32
0.350233
13
-0.073557
23
-0.728552
33
0.350233
0
3DFACE
8
0
62
1
10
-0.566031
20
-0.364266
30
0.350233
11
-0.073557
21
-0.728552
31
0.350233
12
-0.065796
22
-0.720916
32
0.350233
13
-0.065796
23
-0.720916
33
0.350233
0
3DFACE
8
0
62
1
10
-0.566031
20
-0.364266
30
0.350233
11
-0.065796
21
-0.720916
31
0.350233
12
-0.057948
22
-0.713963
32
0.350233
13
-0.057948
23
-0.713963
33
0.350233
0
3DFACE
8
0
62
1
10
-0.566031
20
-0.364266
30
0.350233
11
-0.057948
21
-0.713963
31
0.350233
12
-0.050018
22
-0.707684
32
0.350233
13
-0.050018
23
-0.707684
33
0.350233
0
3DFACE
8
0
62
1
10
-0.566031
20
-0.364266
30
0.350233
11
-0.050018
21
-0.707684
31
0.350233
12
-0.042009
22
-0.702071
32
0.350233
13
-0.042009
23
-0.702071
33
0.350233
0
3DFACE
8
0
62
1
10
-0.566031
20
-0.364266
30
0.350233
11
-0.042009
21
-0.702071
31
0.350233
12
-0.033925
22
-0.697115
32
0.350233
13
-0.033925
23
-0.697115
33
0.350233
0
3DFACE
8
0
62
1
10
-0.566031
20
-0.364266
30
0.350233
11
-0.033925
21
-0.697115
31
0.350233
12
-0.025769
22
-0.692809
32
0.350233
13
-0.025769
23
-0.692809
33
0.350233
0
3DFACE
8
0
62
1
10
-0.566031
20
-0.364266
30
0.350233
11
-0.025769
21
-0.692809
31
0.350233
12
-0.017545
22
-0.689145
32
0.350233
13
-0.017545
23
-0.689145
33
0.350233
0
3DFACE
8
0
62
1
10
-0.566031
20
-0.364266
30
0.350233
11
-0.017545
21
-0.689145
31
0.350233
12
-0.009256
22
-0.686112
32
0.350233
13
-0.009256
23
-0.686112
33
0.350233
0
3DFACE
8
0
62
1
10
-0.566031
20
-0.364266
30
0.350233
11
-0.009256
21
-0.686112
31
0.350233
12
-0.005089
22
-0.684831
32
0.350233
13
-0.005089
23
-0.684831
33
0.350233
0
3DFACE
8
0
62
1
10
-0.566031
20
-0.364266
30
0.350233
11
-0.005089
21
-0.684831
31
0.350233
12
-0.000906
22
-0.683705
32
0.350233
13
-0.000906
23
-0.683705
33
0.350233
0
3DFACE
8
0
62
1
10
-0.566031
20
-0.364266
30
0.350233
11
-0.000906
21
-0.683705
31
0.350233
12
0.003290
22
-0.682732
32
0.350233
13
0.003290
23
-0.682732
33
0.350233
0
3DFACE
8
0
62
1
10
-0.566031
20
-0.364266
30
0.350233
11
0.003290
21
-0.682732
31
0.350233
12
0.007501
22
-0.681913
32
0.350233
13
0.007501
23
-0.681913
33
0.350233
0
3DFACE
8
0
62
1
10
-0.566031
20
-0.364266
30
0.350233
11
0.007501
21
-0.681913
31
0.350233
12
0.011724
22
-0.681246
32
0.350233
13
0.011724
23
-0.681246
33
0.350233
0
3DFACE
8
0
62
1
10
-0.566031
20
-0.364266
30
0.350233
11
0.011724
21
-0.681246
31
0.350233
12
0.015961
22
-0.680729
32
0.350233
13
0.015961
23
-0.680729
33
0.350233
0
3DFACE
8
0
62
1
10
-0.566031
20
-0.364266
30
0.350233
11
0.015961
21
-0.680729
31
0.350233
12
0.020211
22
-0.680363
32
0.350233
13
0.020211
23
-0.680363
33
0.350233
0
3DFACE
8
0
62
1
10
-0.566031
20
-0.364266
30
0.350233
11
0.020211
21
-0.680363
31
0.350233
12
0.024472
22
-0.680145
32
0.350233
13
0.024472
23
-0.680145
33
0.350233
0
3DFACE
8
0
62
1
10
-0.566031
20
-0.364266
30
0.350233
11
0.024472
21
-0.680145
31
0.350233
12
0.033029
22
-0.680151
32
0.350233
13
0.033029
23
-0.680151
33
0.350233
0
3DFACE
8
0
62
1
10
-0.566031
20
-0.364266
30
0.350233
11
0.033029
21
-0.680151
31
0.350233
12
0.041630
22
-0.680741
32
0.350233
13
0.041630
23
-0.680741
33
0.350233
0
3DFACE
8
0
62
1
10
-0.566031
20
-0.364266
30
0.350233
11
0.041630
21
-0.680741
31
0.350233
12
0.050269
22
-0.681905
32
0.350233
13
0.050269
23
-0.681905
33
0.350233
0
3DFACE
8
0
62
1
10
0.602028
20
-0.774790
30
0.350233
11
-0.566031
21
-0.364266
31
0.350233
12
0.050269
22
-0.681905
32
0.350233
13
0.050269
23
-0.681905
33
0.350233
0
3DFACE
8
0
62
1
10
0.602028
20
-0.774790
30
0.350233
11
0.050269
21
-0.681905
31
0.350233
12
0.058944
22
-0.683635
32
0.350233
13
0.058944
23
-0.683635
33
0.350233
0
3DFACE
8
0
62
1
10
0.602028
20
-0.774790
30
0.350233
11
0.058944
21
-0.683635
31
0.350233
12
0.067652
22
-0.685922
32
0.350233
13
0.067652
23
-0.685922
33
0.350233
0
3DFACE
8
0
62
1
10
0.602028
20
-0.774790
30
0.350233
11
0.067652
21
-0.685922
31
0.350233
12
0.076387
22
-0.688760
32
0.350233
13
0.076387
23
-0.688760
33
0.350233
0
3DFACE
8
0
62
1
10
0.602028
20
-0.774790
30
0.350233
11
0.076387
21
-0.688760
31
0.350233
12
0.085148
22
-0.692138
32
0.350233
13
0.085148
23
-0.692138
33
0.350233
0
3DFACE
8
0
62
1
10
0.602028
20
-0.774790
30
0.350233
11
0.085148
21
-0.692138
31
0.350233
12
0.093930
22
-0.696050
32
0.350233
13
0.093930
23
-0.696050
33
0.350233
0
3DFACE
8
0
62
1
10
0.602028
20
-0.774790
30
0.350233
11
0.093930
21
-0.696050
31
0.350233
12
0.102729
22
-0.700485
32
0.350233
13
0.102729
23
-0.700485
33
0.350233
0
3DFACE
8
0
62
1
10
0.602028
20
-0.774790
30
0.350233
11
0.102729
21
-0.700485
31
0.350233
12
0.111543
22
-0.705437
32
0.350233
13
0.111543
23
-0.705437
33
0.350233
0
3DFACE
8
0
62
1
10
0.602028
20
-0.774790
30
0.350233
11
0.111543
21
-0.705437
31
0.350233
12
0.217091
22
-0.802094
32
0.350233
13
0.217091
23
-0.802094
33
0.350233
0
3DFACE
8
0
62
1
10
0.602028
20
-0.774790
30
0.350233
11
0.217091
21
-0.802094
31
0.350233
12
0.301704
22
-0.928129
32
0.350233
13
0.301704
23
-0.928129
33
0.350233
0
3DFACE
8
0
62
1
10
0.602028
20
-0.774790
30
0.350233
11
0.301704
21
-0.928129
31
0.350233
12
0.457494
22
-1.232609
32
0.350233
13
0.457494
23
-1.232609
33
0.350233
0
3DFACE
8
0
62
1
10
0.508247
20
-1.227058
30
0.350233
11
0.602028
21
-0.774790
31
0.350233
12
0.457494
22
-1.232609
32
0.350233
13
0.457494
23
-1.232609
33
0.350233
0
3DFACE
8
0
62
1
10
0.505979
20
-1.229773
30
0.350233
11
0.508247
21
-1.227058
31
0.350233
12
0.457494
22
-1.232609
32
0.350233
13
0.457494
23
-1.232609
33
0.350233
0
3DFACE
8
0
62
1
10
0.505979
20
-1.229773
30
0.350233
11
0.457494
21
-1.232609
31
0.350233
12
0.460319
22
-1.234923
32
0.350233
13
0.460319
23
-1.234923
33
0.350233
0
3DFACE
8
0
62
1
10
0.503684
20
-1.232247
30
0.350233
11
0.505979
21
-1.229773
31
0.350233
12
0.460319
22
-1.234923
32
0.350233
13
0.460319
23
-1.234923
33
0.350233
0
3DFACE
8
0
62
1
10
0.503684
20
-1.232247
30
0.350233
11
0.460319
21
-1.234923
31
0.350233
12
0.463111
22
-1.236947
32
0.350233
13
0.463111
23
-1.236947
33
0.350233
0
3DFACE
8
0
62
1
10
0.501363
20
-1.234478
30
0.350233
11
0.503684
21
-1.232247
31
0.350233
12
0.463111
22
-1.236947
32
0.350233
13
0.463111
23
-1.236947
33
0.350233
0
3DFACE
8
0
62
1
10
0.501363
20
-1.234478
30
0.350233
11
0.463111
21
-1.236947
31
0.350233
12
0.465872
22
-1.238685
32
0.350233
13
0.465872
23
-1.238685
33
0.350233
0
3DFACE
8
0
62
1
10
0.499014
20
-1.236464
30
0.350233
11
0.501363
21
-1.234478
31
0.350233
12
0.465872
22
-1.238685
32
0.350233
13
0.465872
23
-1.238685
33
0.350233
0
3DFACE
8
0
62
1
10
0.499014
20
-1.236464
30
0.350233
11
0.465872
21
-1.238685
31
0.350233
12
0.467240
22
-1.239448
32
0.350233
13
0.467240
23
-1.239448
33
0.350233
0
3DFACE
8
0
62
1
10
0.497830
20
-1.237364
30
0.350233
11
0.499014
21
-1.236464
31
0.350233
12
0.467240
22
-1.239448
32
0.350233
13
0.467240
23
-1.239448
33
0.350233
0
3DFACE
8
0
62
1
10
0.497830
20
-1.237364
30
0.350233
11
0.467240
21
-1.239448
31
0.350233
12
0.468601
22
-1.240140
32
0.350233
13
0.468601
23
-1.240140
33
0.350233
0
3DFACE
8
0
62
1
10
0.496638
20
-1.238201
30
0.350233
11
0.497830
21
-1.237364
31
0.350233
12
0.468601
22
-1.240140
32
0.350233
13
0.468601
23
-1.240140
33
0.350233
0
3DFACE
8
0
62
1
10
0.496638
20
-1.238201
30
0.350233
11
0.468601
21
-1.240140
31
0.350233
12
0.469954
22
-1.240762
32
0.350233
13
0.469954
23
-1.240762
33
0.350233
0
3DFACE
8
0
62
1
10
0.495440
20
-1.238976
30
0.350233
11
0.496638
21
-1.238201
31
0.350233
12
0.469954
22
-1.240762
32
0.350233
13
0.469954
23
-1.240762
33
0.350233
0
3DFACE
8
0
62
1
10
0.495440
20
-1.238976
30
0.350233
11
0.469954
21
-1.240762
31
0.350233
12
0.471299
22
-1.241314
32
0.350233
13
0.471299
23
-1.241314
33
0.350233
0
3DFACE
8
0
62
1
10
0.494234
20
-1.239687
30
0.350233
11
0.495440
21
-1.238976
31
0.350233
12
0.471299
22
-1.241314
32
0.350233
13
0.471299
23
-1.241314
33
0.350233
0
3DFACE
8
0
62
1
10
0.494234
20
-1.239687
30
0.350233
11
0.471299
21
-1.241314
31
0.350233
12
0.472637
22
-1.241796
32
0.350233
13
0.472637
23
-1.241796
33
0.350233
0
3DFACE
8
0
62
1
10
0.493022
20
-1.240335
30
0.350233
11
0.494234
21
-1.239687
31
0.350233
12
0.472637
22
-1.241796
32
0.350233
13
0.472637
23
-1.241796
33
0.350233
0
3DFACE
8
0
62
1
10
0.493022
20
-1.240335
30
0.350233
11
0.472637
21
-1.241796
31
0.350233
12
0.473967
22
-1.242210
32
0.350233
13
0.473967
23
-1.242210
33
0.350233
0
3DFACE
8
0
62
1
10
0.491802
20
-1.240919
30
0.350233
11
0.493022
21
-1.240335
31
0.350233
12
0.473967
22
-1.242210
32
0.350233
13
0.473967
23
-1.242210
33
0.350233
0
3DFACE
8
0
62
1
10
0.491802
20
-1.240919
30
0.350233
11
0.473967
21
-1.242210
31
0.350233
12
0.475289
22
-1.242554
32
0.350233
13
0.475289
23
-1.242554
33
0.350233
0
3DFACE
8
0
62
1
10
0.490576
20
-1.241439
30
0.350233
11
0.491802
21
-1.240919
31
0.350233
12
0.475289
22
-1.242554
32
0.350233
13
0.475289
23
-1.242554
33
0.350233
0
3DFACE
8
0
62
1
10
0.490576
20
-1.241439
30
0.350233
11
0.475289
21
-1.242554
31
0.350233
12
0.476604
22
-1.242830
32
0.350233
13
0.476604
23
-1.242830
33
0.350233
0
3DFACE
8
0
62
1
10
0.489342
20
-1.241895
30
0.350233
11
0.490576
21
-1.241439
31
0.350233
12
0.476604
22
-1.242830
32
0.350233
13
0.476604
23
-1.242830
33
0.350233
0
3DFACE
8
0
62
1
10
0.489342
20
-1.241895
30
0.350233
11
0.476604
21
-1.242830
31
0.350233
12
0.477911
22
-1.243038
32
0.350233
13
0.477911
23
-1.243038
33
0.350233
0
3DFACE
8
0
62
1
10
0.488101
20
-1.242285
30
0.350233
11
0.489342
21
-1.241895
31
0.350233
12
0.477911
22
-1.243038
32
0.350233
13
0.477911
23
-1.243038
33
0.350233
0
3DFACE
8
0
62
1
10
0.488101
20
-1.242285
30
0.350233
11
0.477911
21
-1.243038
31
0.350233
12
0.479211
22
-1.243178
32
0.350233
13
0.479211
23
-1.243178
33
0.350233
0
3DFACE
8
0
62
1
10
0.486853
20
-1.242611
30
0.350233
11
0.488101
21
-1.242285
31
0.350233
12
0.479211
22
-1.243178
32
0.350233
13
0.479211
23
-1.243178
33
0.350233
0
3DFACE
8
0
62
1
10
0.486853
20
-1.242611
30
0.350233
11
0.479211
21
-1.243178
31
0.350233
12
0.480503
22
-1.243250
32
0.350233
13
0.480503
23
-1.243250
33
0.350233
0
3DFACE
8
0
62
1
10
0.485597
20
-1.242871
30
0.350233
11
0.486853
21
-1.242611
31
0.350233
12
0.480503
22
-1.243250
32
0.350233
13
0.480503
23
-1.243250
33
0.350233
0
3DFACE
8
0
62
1
10
0.485597
20
-1.242871
30
0.350233
11
0.480503
21
-1.243250
31
0.350233
12
0.481788
22
-1.243255
32
0.350233
13
0.481788
23
-1.243255
33
0.350233
0
3DFACE
8
0
62
1
10
0.484335
20
-1.243065
30
0.350233
11
0.485597
21
-1.242871
31
0.350233
12
0.481788
22
-1.243255
32
0.350233
13
0.481788
23
-1.243255
33
0.350233
0
3DFACE
8
0
62
1
10
0.484335
20
-1.243065
30
0.350233
11
0.481788
21
-1.243255
31
0.350233
12
0.483065
22
-1.243194
32
0.350233
13
0.483065
23
-1.243194
33
0.350233
0
3DFACE
8
0
62
1
10
-0.766589
20
-1.062928
30
0.184809
11
-0.709140
21
-1.101388
31
0.184809
12
-0.390814
22
-1.027752
32
0.350233
13
-0.390814
23
-1.027752
33
0.350233
0
3DFACE
8
0
62
1
10
-0.709140
20
-1.101388
30
0.184809
11
-0.697404
21
-1.107923
31
0.184809
12
-0.383744
22
-1.031689
32
0.350233
13
-0.383744
23
-1.031689
33
0.350233
0
3DFACE
8
0
62
1
10
-0.383744
20
-1.031689
30
0.350233
11
-0.390814
21
-1.027752
31
0.350233
12
-0.709140
22
-1.101388
32
0.184809
13
-0.709140
23
-1.101388
33
0.184809
0
3DFACE
8
0
62
1
10
-0.697404
20
-1.107923
30
0.184809
11
-0.685534
21
-1.113826
31
0.184809
12
-0.376594
22
-1.035245
32
0.350233
13
-0.376594
23
-1.035245
33
0.350233
0
3DFACE
8
0
62
1
10
-0.376594
20
-1.035245
30
0.350233
11
-0.383744
21
-1.031689
31
0.350233
12
-0.697404
22
-1.107923
32
0.184809
13
-0.697404
23
-1.107923
33
0.184809
0
3DFACE
8
0
62
1
10
-0.685534
20
-1.113826
30
0.184809
11
-0.673507
21
-1.118994
31
0.184809
12
-0.369349
22
-1.038358
32
0.350233
13
-0.369349
23
-1.038358
33
0.350233
0
3DFACE
8
0
62
1
10
-0.369349
20
-1.038358
30
0.350233
11
-0.376594
21
-1.035245
31
0.350233
12
-0.685534
22
-1.113826
32
0.184809
13
-0.685534
23
-1.113826
33
0.184809
0
3DFACE
8
0
62
1
10
-0.673507
20
-1.118994
30
0.184809
11
-0.667428
21
-1.121268
31
0.184809
12
-0.365687
22
-1.039729
32
0.350233
13
-0.365687
23
-1.039729
33
0.350233
0
3DFACE
8
0
62
1
10
-0.365687
20
-1.039729
30
0.350233
11
-0.369349
21
-1.038358
31
0.350233
12
-0.673507
22
-1.118994
32
0.184809
13
-0.673507
23
-1.118994
33
0.184809
0
3DFACE
8
0
62
1
10
-0.667428
20
-1.121268
30
0.184809
11
-0.661301
21
-1.123319
31
0.184809
12
-0.361996
22
-1.040964
32
0.350233
13
-0.361996
23
-1.040964
33
0.350233
0
3DFACE
8
0
62
1
10
-0.361996
20
-1.040964
30
0.350233
11
-0.365687
21
-1.039729
31
0.350233
12
-0.667428
22
-1.121268
32
0.184809
13
-0.667428
23
-1.121268
33
0.184809
0
3DFACE
8
0
62
1
10
-0.661301
20
-1.123319
30
0.184809
11
-0.655124
21
-1.125134
31
0.184809
12
-0.358275
22
-1.042057
32
0.350233
13
-0.358275
23
-1.042057
33
0.350233
0
3DFACE
8
0
62
1
10
-0.358275
20
-1.042057
30
0.350233
11
-0.361996
21
-1.040964
31
0.350233
12
-0.661301
22
-1.123319
32
0.184809
13
-0.661301
23
-1.123319
33
0.184809
0
3DFACE
8
0
62
1
10
-0.655124
20
-1.125134
30
0.184809
11
-0.648894
21
-1.126698
31
0.184809
12
-0.354522
22
-1.043000
32
0.350233
13
-0.354522
23
-1.043000
33
0.350233
0
3DFACE
8
0
62
1
10
-0.354522
20
-1.043000
30
0.350233
11
-0.358275
21
-1.042057
31
0.350233
12
-0.655124
22
-1.125134
32
0.184809
13
-0.655124
23
-1.125134
33
0.184809
0
3DFACE
8
0
62
1
10
-0.648894
20
-1.126698
30
0.184809
11
-0.642608
21
-1.128000
31
0.184809
12
-0.350735
22
-1.043784
32
0.350233
13
-0.350735
23
-1.043784
33
0.350233
0
3DFACE
8
0
62
1
10
-0.350735
20
-1.043784
30
0.350233
11
-0.354522
21
-1.043000
31
0.350233
12
-0.648894
22
-1.126698
32
0.184809
13
-0.648894
23
-1.126698
33
0.184809
0
3DFACE
8
0
62
1
10
-0.642608
20
-1.128000
30
0.184809
11
-0.636263
21
-1.129025
31
0.184809
12
-0.346913
22
-1.044401
32
0.350233
13
-0.346913
23
-1.044401
33
0.350233
0
3DFACE
8
0
62
1
10
-0.346913
20
-1.044401
30
0.350233
11
-0.350735
21
-1.043784
31
0.350233
12
-0.642608
22
-1.128000
32
0.184809
13
-0.642608
23
-1.128000
33
0.184809
0
3DFACE
8
0
62
1
10
-0.636263
20
-1.129025
30
0.184809
11
-0.629857
21
-1.129761
31
0.184809
12
-0.343053
22
-1.044845
32
0.350233
13
-0.343053
23
-1.044845
33
0.350233
0
3DFACE
8
0
62
1
10
-0.343053
20
-1.044845
30
0.350233
11
-0.346913
21
-1.044401
31
0.350233
12
-0.636263
22
-1.129025
32
0.184809
13
-0.636263
23
-1.129025
33
0.184809
0
3DFACE
8
0
62
1
10
-0.629857
20
-1.129761
30
0.184809
11
-0.623386
21
-1.130195
31
0.184809
12
-0.339155
22
-1.045106
32
0.350233
13
-0.339155
23
-1.045106
33
0.350233
0
3DFACE
8
0
62
1
10
-0.339155
20
-1.045106
30
0.350233
11
-0.343053
21
-1.044845
31
0.350233
12
-0.629857
22
-1.129761
32
0.184809
13
-0.629857
23
-1.129761
33
0.184809
0
3DFACE
8
0
62
1
10
-0.623386
20
-1.130195
30
0.184809
11
-0.616848
21
-1.130313
31
0.184809
12
-0.335217
22
-1.045177
32
0.350233
13
-0.335217
23
-1.045177
33
0.350233
0
3DFACE
8
0
62
1
10
-0.335217
20
-1.045177
30
0.350233
11
-0.339155
21
-1.045106
31
0.350233
12
-0.623386
22
-1.130195
32
0.184809
13
-0.623386
23
-1.130195
33
0.184809
0
3DFACE
8
0
62
1
10
-0.616848
20
-1.130313
30
0.184809
11
-0.610241
21
-1.130102
31
0.184809
12
-0.331236
22
-1.045050
32
0.350233
13
-0.331236
23
-1.045050
33
0.350233
0
3DFACE
8
0
62
1
10
-0.331236
20
-1.045050
30
0.350233
11
-0.335217
21
-1.045177
31
0.350233
12
-0.616848
22
-1.130313
32
0.184809
13
-0.616848
23
-1.130313
33
0.184809
0
3DFACE
8
0
62
1
10
-0.610241
20
-1.130102
30
0.184809
11
-0.603560
21
-1.129550
31
0.184809
12
-0.327212
22
-1.044717
32
0.350233
13
-0.327212
23
-1.044717
33
0.350233
0
3DFACE
8
0
62
1
10
-0.327212
20
-1.044717
30
0.350233
11
-0.331236
21
-1.045050
31
0.350233
12
-0.610241
22
-1.130102
32
0.184809
13
-0.610241
23
-1.130102
33
0.184809
0
3DFACE
8
0
62
1
10
-0.603560
20
-1.129550
30
0.184809
11
-0.596804
21
-1.128642
31
0.184809
12
-0.323142
22
-1.044170
32
0.350233
13
-0.323142
23
-1.044170
33
0.350233
0
3DFACE
8
0
62
1
10
-0.323142
20
-1.044170
30
0.350233
11
-0.327212
21
-1.044717
31
0.350233
12
-0.603560
22
-1.129550
32
0.184809
13
-0.603560
23
-1.129550
33
0.184809
0
3DFACE
8
0
62
1
10
-0.596804
20
-1.128642
30
0.184809
11
-0.589970
21
-1.127366
31
0.184809
12
-0.319025
22
-1.043402
32
0.350233
13
-0.319025
23
-1.043402
33
0.350233
0
3DFACE
8
0
62
1
10
-0.319025
20
-1.043402
30
0.350233
11
-0.323142
21
-1.044170
31
0.350233
12
-0.596804
22
-1.128642
32
0.184809
13
-0.596804
23
-1.128642
33
0.184809
0
3DFACE
8
0
62
1
10
-0.589970
20
-1.127366
30
0.184809
11
-0.583054
21
-1.125709
31
0.184809
12
-0.314859
22
-1.042404
32
0.350233
13
-0.314859
23
-1.042404
33
0.350233
0
3DFACE
8
0
62
1
10
-0.314859
20
-1.042404
30
0.350233
11
-0.319025
21
-1.043402
31
0.350233
12
-0.589970
22
-1.127366
32
0.184809
13
-0.589970
23
-1.127366
33
0.184809
0
3DFACE
8
0
62
1
10
-0.583054
20
-1.125709
30
0.184809
11
-0.576055
21
-1.123657
31
0.184809
12
-0.310643
22
-1.041168
32
0.350233
13
-0.310643
23
-1.041168
33
0.350233
0
3DFACE
8
0
62
1
10
-0.310643
20
-1.041168
30
0.350233
11
-0.314859
21
-1.042404
31
0.350233
12
-0.583054
22
-1.125709
32
0.184809
13
-0.583054
23
-1.125709
33
0.184809
0
3DFACE
8
0
62
1
10
-0.576055
20
-1.123657
30
0.184809
11
-0.568969
21
-1.121198
31
0.184809
12
-0.306374
22
-1.039686
32
0.350233
13
-0.306374
23
-1.039686
33
0.350233
0
3DFACE
8
0
62
1
10
-0.306374
20
-1.039686
30
0.350233
11
-0.310643
21
-1.041168
31
0.350233
12
-0.576055
22
-1.123657
32
0.184809
13
-0.576055
23
-1.123657
33
0.184809
0
3DFACE
8
0
62
1
10
-0.568969
20
-1.121198
30
0.184809
11
-0.561794
21
-1.118318
31
0.184809
12
-0.302051
22
-1.037951
32
0.350233
13
-0.302051
23
-1.037951
33
0.350233
0
3DFACE
8
0
62
1
10
-0.302051
20
-1.037951
30
0.350233
11
-0.306374
21
-1.039686
31
0.350233
12
-0.568969
22
-1.121198
32
0.184809
13
-0.568969
23
-1.121198
33
0.184809
0
3DFACE
8
0
62
1
10
-0.561794
20
-1.118318
30
0.184809
11
-0.554526
21
-1.115004
31
0.184809
12
-0.297673
22
-1.035955
32
0.350233
13
-0.297673
23
-1.035955
33
0.350233
0
3DFACE
8
0
62
1
10
-0.297673
20
-1.035955
30
0.350233
11
-0.302051
21
-1.037951
31
0.350233
12
-0.561794
22
-1.118318
32
0.184809
13
-0.561794
23
-1.118318
33
0.184809
0
3DFACE
8
0
62
1
10
-0.554526
20
-1.115004
30
0.184809
11
-0.547163
21
-1.111243
31
0.184809
12
-0.293238
22
-1.033689
32
0.350233
13
-0.293238
23
-1.033689
33
0.350233
0
3DFACE
8
0
62
1
10
-0.293238
20
-1.033689
30
0.350233
11
-0.297673
21
-1.035955
31
0.350233
12
-0.554526
22
-1.115004
32
0.184809
13
-0.554526
23
-1.115004
33
0.184809
0
3DFACE
8
0
62
1
10
-0.547163
20
-1.111243
30
0.184809
11
-0.539702
21
-1.107021
31
0.184809
12
-0.288743
22
-1.031146
32
0.350233
13
-0.288743
23
-1.031146
33
0.350233
0
3DFACE
8
0
62
1
10
-0.288743
20
-1.031146
30
0.350233
11
-0.293238
21
-1.033689
31
0.350233
12
-0.547163
22
-1.111243
32
0.184809
13
-0.547163
23
-1.111243
33
0.184809
0
3DFACE
8
0
62
1
10
-0.539702
20
-1.107021
30
0.184809
11
-0.532140
21
-1.102327
31
0.184809
12
-0.284188
22
-1.028318
32
0.350233
13
-0.284188
23
-1.028318
33
0.350233
0
3DFACE
8
0
62
1
10
-0.284188
20
-1.028318
30
0.350233
11
-0.288743
21
-1.031146
31
0.350233
12
-0.539702
22
-1.107021
32
0.184809
13
-0.539702
23
-1.107021
33
0.184809
0
3DFACE
8
0
62
1
10
-0.532140
20
-1.102327
30
0.184809
11
-0.524475
21
-1.097145
31
0.184809
12
-0.279570
22
-1.025196
32
0.350233
13
-0.279570
23
-1.025196
33
0.350233
0
3DFACE
8
0
62
1
10
-0.279570
20
-1.025196
30
0.350233
11
-0.284188
21
-1.028318
31
0.350233
12
-0.532140
22
-1.102327
32
0.184809
13
-0.532140
23
-1.102327
33
0.184809
0
3DFACE
8
0
62
1
10
-0.524475
20
-1.097145
30
0.184809
11
-0.516704
21
-1.091464
31
0.184809
12
-0.274889
22
-1.021774
32
0.350233
13
-0.274889
23
-1.021774
33
0.350233
0
3DFACE
8
0
62
1
10
-0.274889
20
-1.021774
30
0.350233
11
-0.279570
21
-1.025196
31
0.350233
12
-0.524475
22
-1.097145
32
0.184809
13
-0.524475
23
-1.097145
33
0.184809
0
3DFACE
8
0
62
1
10
-0.516704
20
-1.091464
30
0.184809
11
-0.508824
21
-1.085270
31
0.184809
12
-0.270142
22
-1.018043
32
0.350233
13
-0.270142
23
-1.018043
33
0.350233
0
3DFACE
8
0
62
1
10
-0.270142
20
-1.018043
30
0.350233
11
-0.274889
21
-1.021774
31
0.350233
12
-0.516704
22
-1.091464
32
0.184809
13
-0.516704
23
-1.091464
33
0.184809
0
3DFACE
8
0
62
1
10
-0.508824
20
-1.085270
30
0.184809
11
-0.492724
21
-1.071291
31
0.184809
12
-0.260443
22
-1.009622
32
0.350233
13
-0.260443
23
-1.009622
33
0.350233
0
3DFACE
8
0
62
1
10
-0.260443
20
-1.009622
30
0.350233
11
-0.270142
21
-1.018043
31
0.350233
12
-0.508824
22
-1.085270
32
0.184809
13
-0.508824
23
-1.085270
33
0.184809
0
3DFACE
8
0
62
1
10
-0.492724
20
-1.071291
30
0.184809
11
-0.476155
21
-1.055104
31
0.184809
12
-0.250462
22
-0.999870
32
0.350233
13
-0.250462
23
-0.999870
33
0.350233
0
3DFACE
8
0
62
1
10
-0.250462
20
-0.999870
30
0.350233
11
-0.260443
21
-1.009622
31
0.350233
12
-0.492724
22
-1.071291
32
0.184809
13
-0.492724
23
-1.071291
33
0.184809
0
3DFACE
8
0
62
1
10
-0.240184
20
-0.988724
30
0.350233
11
-0.250462
21
-0.999870
31
0.350233
12
-0.476155
22
-1.055104
32
0.184809
13
-0.476155
23
-1.055104
33
0.184809
0
3DFACE
8
0
62
1
10
-0.476155
20
-1.055104
30
0.184809
11
-0.182493
21
-0.604715
31
0.184809
12
-0.240184
22
-0.988724
32
0.350233
13
-0.240184
23
-0.988724
33
0.350233
0
3DFACE
8
0
62
1
10
-0.073557
20
-0.728552
30
0.350233
11
-0.240184
21
-0.988724
31
0.350233
12
-0.182493
22
-0.604715
32
0.184809
13
-0.182493
23
-0.604715
33
0.184809
0
3DFACE
8
0
62
1
10
-0.182493
20
-0.604715
30
0.184809
11
-0.169610
21
-0.592039
31
0.184809
12
-0.065796
22
-0.720916
32
0.350233
13
-0.065796
23
-0.720916
33
0.350233
0
3DFACE
8
0
62
1
10
-0.065796
20
-0.720916
30
0.350233
11
-0.073557
21
-0.728552
31
0.350233
12
-0.182493
22
-0.604715
32
0.184809
13
-0.182493
23
-0.604715
33
0.184809
0
3DFACE
8
0
62
1
10
-0.169610
20
-0.592039
30
0.184809
11
-0.156583
21
-0.580497
31
0.184809
12
-0.057948
22
-0.713963
32
0.350233
13
-0.057948
23
-0.713963
33
0.350233
0
3DFACE
8
0
62
1
10
-0.057948
20
-0.713963
30
0.350233
11
-0.065796
21
-0.720916
31
0.350233
12
-0.169610
22
-0.592039
32
0.184809
13
-0.169610
23
-0.592039
33
0.184809
0
3DFACE
8
0
62
1
10
-0.156583
20
-0.580497
30
0.184809
11
-0.143419
21
-0.570074
31
0.184809
12
-0.050018
22
-0.707684
32
0.350233
13
-0.050018
23
-0.707684
33
0.350233
0
3DFACE
8
0
62
1
10
-0.050018
20
-0.707684
30
0.350233
11
-0.057948
21
-0.713963
31
0.350233
12
-0.156583
22
-0.580497
32
0.184809
13
-0.156583
23
-0.580497
33
0.184809
0
3DFACE
8
0
62
1
10
-0.143419
20
-0.570074
30
0.184809
11
-0.130124
21
-0.560756
31
0.184809
12
-0.042009
22
-0.702071
32
0.350233
13
-0.042009
23
-0.702071
33
0.350233
0
3DFACE
8
0
62
1
10
-0.042009
20
-0.702071
30
0.350233
11
-0.050018
21
-0.707684
31
0.350233
12
-0.143419
22
-0.570074
32
0.184809
13
-0.143419
23
-0.570074
33
0.184809
0
3DFACE
8
0
62
1
10
-0.130124
20
-0.560756
30
0.184809
11
-0.116704
21
-0.552530
31
0.184809
12
-0.033925
22
-0.697115
32
0.350233
13
-0.033925
23
-0.697115
33
0.350233
0
3DFACE
8
0
62
1
10
-0.033925
20
-0.697115
30
0.350233
11
-0.042009
21
-0.702071
31
0.350233
12
-0.130124
22
-0.560756
32
0.184809
13
-0.130124
23
-0.560756
33
0.184809
0
3DFACE
8
0
62
1
10
-0.116704
20
-0.552530
30
0.184809
11
-0.103165
21
-0.545383
31
0.184809
12
-0.025769
22
-0.692809
32
0.350233
13
-0.025769
23
-0.692809
33
0.350233
0
3DFACE
8
0
62
1
10
-0.025769
20
-0.692809
30
0.350233
11
-0.033925
21
-0.697115
31
0.350233
12
-0.116704
22
-0.552530
32
0.184809
13
-0.116704
23
-0.552530
33
0.184809
0
3DFACE
8
0
62
1
10
-0.103165
20
-0.545383
30
0.184809
11
-0.089513
21
-0.539299
31
0.184809
12
-0.017545
22
-0.689145
32
0.350233
13
-0.017545
23
-0.689145
33
0.350233
0
3DFACE
8
0
62
1
10
-0.017545
20
-0.689145
30
0.350233
11
-0.025769
21
-0.692809
31
0.350233
12
-0.103165
22
-0.545383
32
0.184809
13
-0.103165
23
-0.545383
33
0.184809
0
3DFACE
8
0
62
1
10
-0.089513
20
-0.539299
30
0.184809
11
-0.075754
21
-0.534266
31
0.184809
12
-0.009256
22
-0.686112
32
0.350233
13
-0.009256
23
-0.686112
33
0.350233
0
3DFACE
8
0
62
1
10
-0.009256
20
-0.686112
30
0.350233
11
-0.017545
21
-0.689145
31
0.350233
12
-0.089513
22
-0.539299
32
0.184809
13
-0.089513
23
-0.539299
33
0.184809
0
3DFACE
8
0
62
1
10
-0.075754
20
-0.534266
30
0.184809
11
-0.068836
21
-0.532139
31
0.184809
12
-0.005089
22
-0.684831
32
0.350233
13
-0.005089
23
-0.684831
33
0.350233
0
3DFACE
8
0
62
1
10
-0.005089
20
-0.684831
30
0.350233
11
-0.009256
21
-0.686112
31
0.350233
12
-0.075754
22
-0.534266
32
0.184809
13
-0.075754
23
-0.534266
33
0.184809
0
3DFACE
8
0
62
1
10
-0.068836
20
-0.532139
30
0.184809
11
-0.061893
21
-0.530269
31
0.184809
12
-0.000906
22
-0.683705
32
0.350233
13
-0.000906
23
-0.683705
33
0.350233
0
3DFACE
8
0
62
1
10
-0.000906
20
-0.683705
30
0.350233
11
-0.005089
21
-0.684831
31
0.350233
12
-0.068836
22
-0.532139
32
0.184809
13
-0.068836
23
-0.532139
33
0.184809
0
3DFACE
8
0
62
1
10
-0.061893
20
-0.530269
30
0.184809
11
-0.054927
21
-0.528655
31
0.184809
12
0.003290
22
-0.682732
32
0.350233
13
0.003290
23
-0.682732
33
0.350233
0
3DFACE
8
0
62
1
10
0.003290
20
-0.682732
30
0.350233
11
-0.000906
21
-0.683705
31
0.350233
12
-0.061893
22
-0.530269
32
0.184809
13
-0.061893
23
-0.530269
33
0.184809
0
3DFACE
8
0
62
1
10
-0.054927
20
-0.528655
30
0.184809
11
-0.047938
21
-0.527295
31
0.184809
12
0.007501
22
-0.681913
32
0.350233
13
0.007501
23
-0.681913
33
0.350233
0
3DFACE
8
0
62
1
10
0.007501
20
-0.681913
30
0.350233
11
0.003290
21
-0.682732
31
0.350233
12
-0.054927
22
-0.528655
32
0.184809
13
-0.054927
23
-0.528655
33
0.184809
0
3DFACE
8
0
62
1
10
-0.047938
20
-0.527295
30
0.184809
11
-0.040926
21
-0.526187
31
0.184809
12
0.011724
22
-0.681246
32
0.350233
13
0.011724
23
-0.681246
33
0.350233
0
3DFACE
8
0
62
1
10
0.011724
20
-0.681246
30
0.350233
11
0.007501
21
-0.681913
31
0.350233
12
-0.047938
22
-0.527295
32
0.184809
13
-0.047938
23
-0.527295
33
0.184809
0
3DFACE
8
0
62
1
10
-0.040926
20
-0.526187
30
0.184809
11
-0.033893
21
-0.525329
31
0.184809
12
0.015961
22
-0.680729
32
0.350233
13
0.015961
23
-0.680729
33
0.350233
0
3DFACE
8
0
62
1
10
0.015961
20
-0.680729
30
0.350233
11
0.011724
21
-0.681246
31
0.350233
12
-0.040926
22
-0.526187
32
0.184809
13
-0.040926
23
-0.526187
33
0.184809
0
3DFACE
8
0
62
1
10
-0.033893
20
-0.525329
30
0.184809
11
-0.026839
21
-0.524721
31
0.184809
12
0.020211
22
-0.680363
32
0.350233
13
0.020211
23
-0.680363
33
0.350233
0
3DFACE
8
0
62
1
10
0.020211
20
-0.680363
30
0.350233
11
0.015961
21
-0.680729
31
0.350233
12
-0.033893
22
-0.525329
32
0.184809
13
-0.033893
23
-0.525329
33
0.184809
0
3DFACE
8
0
62
1
10
-0.026839
20
-0.524721
30
0.184809
11
-0.019765
21
-0.524359
31
0.184809
12
0.024472
22
-0.680145
32
0.350233
13
0.024472
23
-0.680145
33
0.350233
0
3DFACE
8
0
62
1
10
0.024472
20
-0.680145
30
0.350233
11
0.020211
21
-0.680363
31
0.350233
12
-0.026839
22
-0.524721
32
0.184809
13
-0.026839
23
-0.524721
33
0.184809
0
3DFACE
8
0
62
1
10
-0.019765
20
-0.524359
30
0.184809
11
-0.005560
21
-0.524370
31
0.184809
12
0.033029
22
-0.680151
32
0.350233
13
0.033029
23
-0.680151
33
0.350233
0
3DFACE
8
0
62
1
10
0.033029
20
-0.680151
30
0.350233
11
0.024472
21
-0.680145
31
0.350233
12
-0.019765
22
-0.524359
32
0.184809
13
-0.019765
23
-0.524359
33
0.184809
0
3DFACE
8
0
62
1
10
-0.005560
20
-0.524370
30
0.184809
11
0.008717
21
-0.525349
31
0.184809
12
0.041630
22
-0.680741
32
0.350233
13
0.041630
23
-0.680741
33
0.350233
0
3DFACE
8
0
62
1
10
0.041630
20
-0.680741
30
0.350233
11
0.033029
21
-0.680151
31
0.350233
12
-0.005560
22
-0.524370
32
0.184809
13
-0.005560
23
-0.524370
33
0.184809
0
3DFACE
8
0
62
1
10
0.008717
20
-0.525349
30
0.184809
11
0.023058
21
-0.527281
31
0.184809
12
0.050269
22
-0.681905
32
0.350233
13
0.050269
23
-0.681905
33
0.350233
0
3DFACE
8
0
62
1
10
0.050269
20
-0.681905
30
0.350233
11
0.041630
21
-0.680741
31
0.350233
12
0.008717
22
-0.525349
32
0.184809
13
0.008717
23
-0.525349
33
0.184809
0
3DFACE
8
0
62
1
10
0.023058
20
-0.527281
30
0.184809
11
0.037459
21
-0.530152
31
0.184809
12
0.058944
22
-0.683635
32
0.350233
13
0.058944
23
-0.683635
33
0.350233
0
3DFACE
8
0
62
1
10
0.058944
20
-0.683635
30
0.350233
11
0.050269
21
-0.681905
31
0.350233
12
0.023058
22
-0.527281
32
0.184809
13
0.023058
23
-0.527281
33
0.184809
0
3DFACE
8
0
62
1
10
0.037459
20
-0.530152
30
0.184809
11
0.051913
21
-0.533950
31
0.184809
12
0.067652
22
-0.685922
32
0.350233
13
0.067652
23
-0.685922
33
0.350233
0
3DFACE
8
0
62
1
10
0.067652
20
-0.685922
30
0.350233
11
0.058944
21
-0.683635
31
0.350233
12
0.037459
22
-0.530152
32
0.184809
13
0.037459
23
-0.530152
33
0.184809
0
3DFACE
8
0
62
1
10
0.051913
20
-0.533950
30
0.184809
11
0.066415
21
-0.538660
31
0.184809
12
0.076387
22
-0.688760
32
0.350233
13
0.076387
23
-0.688760
33
0.350233
0
3DFACE
8
0
62
1
10
0.076387
20
-0.688760
30
0.350233
11
0.067652
21
-0.685922
31
0.350233
12
0.051913
22
-0.533950
32
0.184809
13
0.051913
23
-0.533950
33
0.184809
0
3DFACE
8
0
62
1
10
0.066415
20
-0.538660
30
0.184809
11
0.080957
21
-0.544268
31
0.184809
12
0.085148
22
-0.692138
32
0.350233
13
0.085148
23
-0.692138
33
0.350233
0
3DFACE
8
0
62
1
10
0.085148
20
-0.692138
30
0.350233
11
0.076387
21
-0.688760
31
0.350233
12
0.066415
22
-0.538660
32
0.184809
13
0.066415
23
-0.538660
33
0.184809
0
3DFACE
8
0
62
1
10
0.080957
20
-0.544268
30
0.184809
11
0.095535
21
-0.550761
31
0.184809
12
0.093930
22
-0.696050
32
0.350233
13
0.093930
23
-0.696050
33
0.350233
0
3DFACE
8
0
62
1
10
0.093930
20
-0.696050
30
0.350233
11
0.085148
21
-0.692138
31
0.350233
12
0.080957
22
-0.544268
32
0.184809
13
0.080957
23
-0.544268
33
0.184809
0
3DFACE
8
0
62
1
10
0.095535
20
-0.550761
30
0.184809
11
0.110142
21
-0.558125
31
0.184809
12
0.102729
22
-0.700485
32
0.350233
13
0.102729
23
-0.700485
33
0.350233
0
3DFACE
8
0
62
1
10
0.102729
20
-0.700485
30
0.350233
11
0.093930
21
-0.696050
31
0.350233
12
0.095535
22
-0.550761
32
0.184809
13
0.095535
23
-0.550761
33
0.184809
0
3DFACE
8
0
62
1
10
0.110142
20
-0.558125
30
0.184809
11
0.124773
21
-0.566345
31
0.184809
12
0.111543
22
-0.705437
32
0.350233
13
0.111543
23
-0.705437
33
0.350233
0
3DFACE
8
0
62
1
10
0.111543
20
-0.705437
30
0.350233
11
0.102729
21
-0.700485
31
0.350233
12
0.110142
22
-0.558125
32
0.184809
13
0.110142
23
-0.558125
33
0.184809
0
3DFACE
8
0
62
1
10
0.124773
20
-0.566345
30
0.184809
11
0.299983
21
-0.726795
31
0.184809
12
0.217091
22
-0.802094
32
0.350233
13
0.217091
23
-0.802094
33
0.350233
0
3DFACE
8
0
62
1
10
0.217091
20
-0.802094
30
0.350233
11
0.111543
21
-0.705437
31
0.350233
12
0.124773
22
-0.566345
32
0.184809
13
0.124773
23
-0.566345
33
0.184809
0
3DFACE
8
0
62
1
10
0.299983
20
-0.726795
30
0.184809
11
0.440440
21
-0.936014
31
0.184809
12
0.301704
22
-0.928129
32
0.350233
13
0.301704
23
-0.928129
33
0.350233
0
3DFACE
8
0
62
1
10
0.301704
20
-0.928129
30
0.350233
11
0.217091
21
-0.802094
31
0.350233
12
0.299983
22
-0.726795
32
0.184809
13
0.299983
23
-0.726795
33
0.184809
0
3DFACE
8
0
62
1
10
0.440440
20
-0.936014
30
0.184809
11
0.699052
21
-1.441450
31
0.184809
12
0.457494
22
-1.232609
32
0.350233
13
0.457494
23
-1.232609
33
0.350233
0
3DFACE
8
0
62
1
10
0.457494
20
-1.232609
30
0.350233
11
0.301704
21
-0.928129
31
0.350233
12
0.440440
22
-0.936014
32
0.184809
13
0.440440
23
-0.936014
33
0.184809
0
3DFACE
8
0
62
1
10
0.699052
20
-1.441450
30
0.184809
11
0.703741
21
-1.445291
31
0.184809
12
0.460319
22
-1.234923
32
0.350233
13
0.460319
23
-1.234923
33
0.350233
0
3DFACE
8
0
62
1
10
0.460319
20
-1.234923
30
0.350233
11
0.457494
21
-1.232609
31
0.350233
12
0.699052
22
-1.441450
32
0.184809
13
0.699052
23
-1.441450
33
0.184809
0
3DFACE
8
0
62
1
10
0.703741
20
-1.445291
30
0.184809
11
0.708376
21
-1.448651
31
0.184809
12
0.463111
22
-1.236947
32
0.350233
13
0.463111
23
-1.236947
33
0.350233
0
3DFACE
8
0
62
1
10
0.463111
20
-1.236947
30
0.350233
11
0.460319
21
-1.234923
31
0.350233
12
0.703741
22
-1.445291
32
0.184809
13
0.703741
23
-1.445291
33
0.184809
0
3DFACE
8
0
62
1
10
0.708376
20
-1.448651
30
0.184809
11
0.712959
21
-1.451537
31
0.184809
12
0.465872
22
-1.238685
32
0.350233
13
0.465872
23
-1.238685
33
0.350233
0
3DFACE
8
0
62
1
10
0.465872
20
-1.238685
30
0.350233
11
0.463111
21
-1.236947
31
0.350233
12
0.708376
22
-1.448651
32
0.184809
13
0.708376
23
-1.448651
33
0.184809
0
3DFACE
8
0
62
1
10
0.712959
20
-1.451537
30
0.184809
11
0.715230
21
-1.452803
31
0.184809
12
0.467240
22
-1.239448
32
0.350233
13
0.467240
23
-1.239448
33
0.350233
0
3DFACE
8
0
62
1
10
0.467240
20
-1.239448
30
0.350233
11
0.465872
21
-1.238685
31
0.350233
12
0.712959
22
-1.451537
32
0.184809
13
0.712959
23
-1.451537
33
0.184809
0
3DFACE
8
0
62
1
10
0.715230
20
-1.452803
30
0.184809
11
0.717489
21
-1.453952
31
0.184809
12
0.468601
22
-1.240140
32
0.350233
13
0.468601
23
-1.240140
33
0.350233
0
3DFACE
8
0
62
1
10
0.468601
20
-1.240140
30
0.350233
11
0.467240
21
-1.239448
31
0.350233
12
0.715230
22
-1.452803
32
0.184809
13
0.715230
23
-1.452803
33
0.184809
0
3DFACE
8
0
62
1
10
0.717489
20
-1.453952
30
0.184809
11
0.719735
21
-1.454984
31
0.184809
12
0.469954
22
-1.240762
32
0.350233
13
0.469954
23
-1.240762
33
0.350233
0
3DFACE
8
0
62
1
10
0.469954
20
-1.240762
30
0.350233
11
0.468601
21
-1.240140
31
0.350233
12
0.717489
22
-1.453952
32
0.184809
13
0.717489
23
-1.453952
33
0.184809
0
3DFACE
8
0
62
1
10
0.719735
20
-1.454984
30
0.184809
11
0.721968
21
-1.455900
31
0.184809
12
0.471299
22
-1.241314
32
0.350233
13
0.471299
23
-1.241314
33
0.350233
0
3DFACE
8
0
62
1
10
0.471299
20
-1.241314
30
0.350233
11
0.469954
21
-1.240762
31
0.350233
12
0.719735
22
-1.454984
32
0.184809
13
0.719735
23
-1.454984
33
0.184809
0
3DFACE
8
0
62
1
10
0.721968
20
-1.455900
30
0.184809
11
0.724189
21
-1.456701
31
0.184809
12
0.472637
22
-1.241796
32
0.350233
13
0.472637
23
-1.241796
33
0.350233
0
3DFACE
8
0
62
1
10
0.472637
20
-1.241796
30
0.350233
11
0.471299
21
-1.241314
31
0.350233
12
0.721968
22
-1.455900
32
0.184809
13
0.721968
23
-1.455900
33
0.184809
0
3DFACE
8
0
62
1
10
0.724189
20
-1.456701
30
0.184809
11
0.726396
21
-1.457387
31
0.184809
12
0.473967
22
-1.242210
32
0.350233
13
0.473967
23
-1.242210
33
0.350233
0
3DFACE
8
0
62
1
10
0.473967
20
-1.242210
30
0.350233
11
0.472637
21
-1.241796
31
0.350233
12
0.724189
22
-1.456701
32
0.184809
13
0.724189
23
-1.456701
33
0.184809
0
3DFACE
8
0
62
1
10
0.726396
20
-1.457387
30
0.184809
11
0.728591
21
-1.457959
31
0.184809
12
0.475289
22
-1.242554
32
0.350233
13
0.475289
23
-1.242554
33
0.350233
0
3DFACE
8
0
62
1
10
0.475289
20
-1.242554
30
0.350233
11
0.473967
21
-1.242210
31
0.350233
12
0.726396
22
-1.457387
32
0.184809
13
0.726396
23
-1.457387
33
0.184809
0
3DFACE
8
0
62
1
10
0.728591
20
-1.457959
30
0.184809
11
0.730774
21
-1.458417
31
0.184809
12
0.476604
22
-1.242830
32
0.350233
13
0.476604
23
-1.242830
33
0.350233
0
3DFACE
8
0
62
1
10
0.476604
20
-1.242830
30
0.350233
11
0.475289
21
-1.242554
31
0.350233
12
0.728591
22
-1.457959
32
0.184809
13
0.728591
23
-1.457959
33
0.184809
0
3DFACE
8
0
62
1
10
0.730774
20
-1.458417
30
0.184809
11
0.732944
21
-1.458762
31
0.184809
12
0.477911
22
-1.243038
32
0.350233
13
0.477911
23
-1.243038
33
0.350233
0
3DFACE
8
0
62
1
10
0.477911
20
-1.243038
30
0.350233
11
0.476604
21
-1.242830
31
0.350233
12
0.730774
22
-1.458417
32
0.184809
13
0.730774
23
-1.458417
33
0.184809
0
3DFACE
8
0
62
1
10
0.732944
20
-1.458762
30
0.184809
11
0.735101
21
-1.458994
31
0.184809
12
0.479211
22
-1.243178
32
0.350233
13
0.479211
23
-1.243178
33
0.350233
0
3DFACE
8
0
62
1
10
0.479211
20
-1.243178
30
0.350233
11
0.477911
21
-1.243038
31
0.350233
12
0.732944
22
-1.458762
32
0.184809
13
0.732944
23
-1.458762
33
0.184809
0
3DFACE
8
0
62
1
10
0.735101
20
-1.458994
30
0.184809
11
0.737246
21
-1.459114
31
0.184809
12
0.480503
22
-1.243250
32
0.350233
13
0.480503
23
-1.243250
33
0.350233
0
3DFACE
8
0
62
1
10
0.480503
20
-1.243250
30
0.350233
11
0.479211
21
-1.243178
31
0.350233
12
0.735101
22
-1.458994
32
0.184809
13
0.735101
23
-1.458994
33
0.184809
0
3DFACE
8
0
62
1
10
0.737246
20
-1.459114
30
0.184809
11
0.739379
21
-1.459123
31
0.184809
12
0.481788
22
-1.243255
32
0.350233
13
0.481788
23
-1.243255
33
0.350233
0
3DFACE
8
0
62
1
10
0.481788
20
-1.243255
30
0.350233
11
0.480503
21
-1.243250
31
0.350233
12
0.737246
22
-1.459114
32
0.184809
13
0.737246
23
-1.459114
33
0.184809
0
3DFACE
8
0
62
1
10
0.739379
20
-1.459123
30
0.184809
11
0.741499
21
-1.459020
31
0.184809
12
0.483065
22
-1.243194
32
0.350233
13
0.483065
23
-1.243194
33
0.350233
0
3DFACE
8
0
62
1
10
0.483065
20
-1.243194
30
0.350233
11
0.481788
21
-1.243255
31
0.350233
12
0.739379
22
-1.459123
32
0.184809
13
0.739379
23
-1.459123
33
0.184809
0
3DFACE
8
0
62
1
10
0.741499
20
-1.459020
30
0.184809
11
0.743607
21
-1.458808
31
0.184809
12
0.484335
22
-1.243065
32
0.350233
13
0.484335
23
-1.243065
33
0.350233
0
3DFACE
8
0
62
1
10
0.484335
20
-1.243065
30
0.350233
11
0.483065
21
-1.243194
31
0.350233
12
0.741499
22
-1.459020
32
0.184809
13
0.741499
23
-1.459020
33
0.184809
0
3DFACE
8
0
62
1
10
0.743607
20
-1.458808
30
0.184809
11
0.745703
21
-1.458485
31
0.184809
12
0.485597
22
-1.242871
32
0.350233
13
0.485597
23
-1.242871
33
0.350233
0
3DFACE
8
0
62
1
10
0.485597
20
-1.242871
30
0.350233
11
0.484335
21
-1.243065
31
0.350233
12
0.743607
22
-1.458808
32
0.184809
13
0.743607
23
-1.458808
33
0.184809
0
3DFACE
8
0
62
1
10
0.745703
20
-1.458485
30
0.184809
11
0.747787
21
-1.458053
31
0.184809
12
0.486853
22
-1.242611
32
0.350233
13
0.486853
23
-1.242611
33
0.350233
0
3DFACE
8
0
62
1
10
0.486853
20
-1.242611
30
0.350233
11
0.485597
21
-1.242871
31
0.350233
12
0.745703
22
-1.458485
32
0.184809
13
0.745703
23
-1.458485
33
0.184809
0
3DFACE
8
0
62
1
10
0.747787
20
-1.458053
30
0.184809
11
0.749859
21
-1.457513
31
0.184809
12
0.488101
22
-1.242285
32
0.350233
13
0.488101
23
-1.242285
33
0.350233
0
3DFACE
8
0
62
1
10
0.488101
20
-1.242285
30
0.350233
11
0.486853
21
-1.242611
31
0.350233
12
0.747787
22
-1.458053
32
0.184809
13
0.747787
23
-1.458053
33
0.184809
0
3DFACE
8
0
62
1
10
0.749859
20
-1.457513
30
0.184809
11
0.751919
21
-1.456864
31
0.184809
12
0.489342
22
-1.241895
32
0.350233
13
0.489342
23
-1.241895
33
0.350233
0
3DFACE
8
0
62
1
10
0.489342
20
-1.241895
30
0.350233
11
0.488101
21
-1.242285
31
0.350233
12
0.749859
22
-1.457513
32
0.184809
13
0.749859
23
-1.457513
33
0.184809
0
3DFACE
8
0
62
1
10
0.751919
20
-1.456864
30
0.184809
11
0.753967
21
-1.456108
31
0.184809
12
0.490576
22
-1.241439
32
0.350233
13
0.490576
23
-1.241439
33
0.350233
0
3DFACE
8
0
62
1
10
0.490576
20
-1.241439
30
0.350233
11
0.489342
21
-1.241895
31
0.350233
12
0.751919
22
-1.456864
32
0.184809
13
0.751919
23
-1.456864
33
0.184809
0
3DFACE
8
0
62
1
10
0.753967
20
-1.456108
30
0.184809
11
0.756003
21
-1.455245
31
0.184809
12
0.491802
22
-1.240919
32
0.350233
13
0.491802
23
-1.240919
33
0.350233
0
3DFACE
8
0
62
1
10
0.491802
20
-1.240919
30
0.350233
11
0.490576
21
-1.241439
31
0.350233
12
0.753967
22
-1.456108
32
0.184809
13
0.753967
23
-1.456108
33
0.184809
0
3DFACE
8
0
62
1
10
0.756003
20
-1.455245
30
0.184809
11
0.758028
21
-1.454275
31
0.184809
12
0.493022
22
-1.240335
32
0.350233
13
0.493022
23
-1.240335
33
0.350233
0
3DFACE
8
0
62
1
10
0.493022
20
-1.240335
30
0.350233
11
0.491802
21
-1.240919
31
0.350233
12
0.756003
22
-1.455245
32
0.184809
13
0.756003
23
-1.455245
33
0.184809
0
3DFACE
8
0
62
1
10
0.758028
20
-1.454275
30
0.184809
11
0.760041
21
-1.453199
31
0.184809
12
0.494234
22
-1.239687
32
0.350233
13
0.494234
23
-1.239687
33
0.350233
0
3DFACE
8
0
62
1
10
0.494234
20
-1.239687
30
0.350233
11
0.493022
21
-1.240335
31
0.350233
12
0.758028
22
-1.454275
32
0.184809
13
0.758028
23
-1.454275
33
0.184809
0
3DFACE
8
0
62
1
10
0.760041
20
-1.453199
30
0.184809
11
0.762042
21
-1.452018
31
0.184809
12
0.495440
22
-1.238976
32
0.350233
13
0.495440
23
-1.238976
33
0.350233
0
3DFACE
8
0
62
1
10
0.495440
20
-1.238976
30
0.350233
11
0.494234
21
-1.239687
31
0.350233
12
0.760041
22
-1.453199
32
0.184809
13
0.760041
23
-1.453199
33
0.184809
0
3DFACE
8
0
62
1
10
0.762042
20
-1.452018
30
0.184809
11
0.764031
21
-1.450733
31
0.184809
12
0.496638
22
-1.238201
32
0.350233
13
0.496638
23
-1.238201
33
0.350233
0
3DFACE
8
0
62
1
10
0.496638
20
-1.238201
30
0.350233
11
0.495440
21
-1.238976
31
0.350233
12
0.762042
22
-1.452018
32
0.184809
13
0.762042
23
-1.452018
33
0.184809
0
3DFACE
8
0
62
1
10
0.764031
20
-1.450733
30
0.184809
11
0.766009
21
-1.449343
31
0.184809
12
0.497830
22
-1.237364
32
0.350233
13
0.497830
23
-1.237364
33
0.350233
0
3DFACE
8
0
62
1
10
0.497830
20
-1.237364
30
0.350233
11
0.496638
21
-1.238201
31
0.350233
12
0.764031
22
-1.450733
32
0.184809
13
0.764031
23
-1.450733
33
0.184809
0
3DFACE
8
0
62
1
10
0.766009
20
-1.449343
30
0.184809
11
0.767975
21
-1.447849
31
0.184809
12
0.499014
22
-1.236464
32
0.350233
13
0.499014
23
-1.236464
33
0.350233
0
3DFACE
8
0
62
1
10
0.499014
20
-1.236464
30
0.350233
11
0.497830
21
-1.237364
31
0.350233
12
0.766009
22
-1.449343
32
0.184809
13
0.766009
23
-1.449343
33
0.184809
0
3DFACE
8
0
62
1
10
0.767975
20
-1.447849
30
0.184809
11
0.771874
21
-1.444553
31
0.184809
12
0.501363
22
-1.234478
32
0.350233
13
0.501363
23
-1.234478
33
0.350233
0
3DFACE
8
0
62
1
10
0.501363
20
-1.234478
30
0.350233
11
0.499014
21
-1.236464
31
0.350233
12
0.767975
22
-1.447849
32
0.184809
13
0.767975
23
-1.447849
33
0.184809
0
3DFACE
8
0
62
1
10
0.771874
20
-1.444553
30
0.184809
11
0.775728
21
-1.440849
31
0.184809
12
0.503684
22
-1.232247
32
0.350233
13
0.503684
23
-1.232247
33
0.350233
0
3DFACE
8
0
62
1
10
0.503684
20
-1.232247
30
0.350233
11
0.501363
21
-1.234478
31
0.350233
12
0.771874
22
-1.444553
32
0.184809
13
0.771874
23
-1.444553
33
0.184809
0
3DFACE
8
0
62
1
10
0.775728
20
-1.440849
30
0.184809
11
0.779537
21
-1.436742
31
0.184809
12
0.505979
22
-1.229773
32
0.350233
13
0.505979
23
-1.229773
33
0.350233
0
3DFACE
8
0
62
1
10
0.505979
20
-1.229773
30
0.350233
11
0.503684
21
-1.232247
31
0.350233
12
0.775728
22
-1.440849
32
0.184809
13
0.775728
23
-1.440849
33
0.184809
0
3DFACE
8
0
62
1
10
0.779537
20
-1.436742
30
0.184809
11
0.783301
21
-1.432236
31
0.184809
12
0.508247
22
-1.227058
32
0.350233
13
0.508247
23
-1.227058
33
0.350233
0
3DFACE
8
0
62
1
10
0.508247
20
-1.227058
30
0.350233
11
0.505979
21
-1.229773
31
0.350233
12
0.779537
22
-1.436742
32
0.184809
13
0.779537
23
-1.436742
33
0.184809
0
3DFACE
8
0
62
1
10
0.783301
20
-1.432236
30
0.184809
11
0.883434
21
-1.104211
31
0.184809
12
0.508247
22
-1.227058
32
0.350233
13
0.508247
23
-1.227058
33
0.350233
0
3DFACE
8
0
62
1
10
0.602028
20
-0.774790
30
0.350233
11
0.508247
21
-1.227058
31
0.350233
12
0.883434
22
-1.104211
32
0.184809
13
0.883434
23
-1.104211
33
0.184809
0
3DFACE
8
0
62
1
10
0.883434
20
-1.104211
30
0.184809
11
1.000000
21
0.000000
31
0.184809
12
0.638788
22
-0.364266
32
0.350233
13
0.638788
23
-0.364266
33
0.350233
0
3DFACE
8
0
62
1
10
0.638788
20
-0.364266
30
0.350233
11
0.602028
21
-0.774790
31
0.350233
12
0.883434
22
-1.104211
32
0.184809
13
0.883434
23
-1.104211
33
0.184809
0
3DFACE
8
0
62
1
10
1.000000
20
0.000000
30
0.184809
11
-1.000000
21
0.000000
31
0.184809
12
-0.566031
22
-0.364266
32
0.350233
13
-0.566031
23
-0.364266
33
0.350233
0
3DFACE
8
0
62
1
10
-0.566031
20
-0.364266
30
0.350233
11
0.638788
21
-0.364266
31
0.350233
12
1.000000
22
0.000000
32
0.184809
13
1.000000
23
0.000000
33
0.184809
0
3DFACE
8
0
62
1
10
-1.000000
20
0.000000
30
0.184809
11
-0.766589
21
-1.062928
31
0.184809
12
-0.390814
22
-1.027752
32
0.350233
13
-0.390814
23
-1.027752
33
0.350233
0
3DFACE
8
0
62
1
10
-0.390814
20
-1.027752
30
0.350233
11
-0.566031
21
-0.364266
31
0.350233
12
-1.000000
22
0.000000
32
0.184809
13
-1.000000
23
0.000000
33
0.184809
0
ENDSEC
0
EOF
